%TF.GenerationSoftware,KiCad,Pcbnew,9.0.4*%
%TF.CreationDate,2026-06-06T14:19:33-03:00*%
%TF.ProjectId,av3,6176332e-6b69-4636-9164-5f7063625858,rev?*%
%TF.SameCoordinates,Original*%
%TF.FileFunction,Legend,Top*%
%TF.FilePolarity,Positive*%
%FSLAX46Y46*%
G04 Gerber Fmt 4.6, Leading zero omitted, Abs format (unit mm)*
G04 Created by KiCad (PCBNEW 9.0.4) date 2026-06-06 14:19:33*
%MOMM*%
%LPD*%
G01*
G04 APERTURE LIST*
%ADD10C,0.150000*%
%ADD11C,0.120000*%
G04 APERTURE END LIST*
D10*
X167274819Y-198050357D02*
X166798628Y-198383690D01*
X167274819Y-198621785D02*
X166274819Y-198621785D01*
X166274819Y-198621785D02*
X166274819Y-198240833D01*
X166274819Y-198240833D02*
X166322438Y-198145595D01*
X166322438Y-198145595D02*
X166370057Y-198097976D01*
X166370057Y-198097976D02*
X166465295Y-198050357D01*
X166465295Y-198050357D02*
X166608152Y-198050357D01*
X166608152Y-198050357D02*
X166703390Y-198097976D01*
X166703390Y-198097976D02*
X166751009Y-198145595D01*
X166751009Y-198145595D02*
X166798628Y-198240833D01*
X166798628Y-198240833D02*
X166798628Y-198621785D01*
X167274819Y-197097976D02*
X167274819Y-197669404D01*
X167274819Y-197383690D02*
X166274819Y-197383690D01*
X166274819Y-197383690D02*
X166417676Y-197478928D01*
X166417676Y-197478928D02*
X166512914Y-197574166D01*
X166512914Y-197574166D02*
X166560533Y-197669404D01*
X166608152Y-196240833D02*
X167274819Y-196240833D01*
X166227200Y-196478928D02*
X166941485Y-196717023D01*
X166941485Y-196717023D02*
X166941485Y-196097976D01*
X155517142Y-107932319D02*
X155183809Y-107456128D01*
X154945714Y-107932319D02*
X154945714Y-106932319D01*
X154945714Y-106932319D02*
X155326666Y-106932319D01*
X155326666Y-106932319D02*
X155421904Y-106979938D01*
X155421904Y-106979938D02*
X155469523Y-107027557D01*
X155469523Y-107027557D02*
X155517142Y-107122795D01*
X155517142Y-107122795D02*
X155517142Y-107265652D01*
X155517142Y-107265652D02*
X155469523Y-107360890D01*
X155469523Y-107360890D02*
X155421904Y-107408509D01*
X155421904Y-107408509D02*
X155326666Y-107456128D01*
X155326666Y-107456128D02*
X154945714Y-107456128D01*
X155898095Y-107027557D02*
X155945714Y-106979938D01*
X155945714Y-106979938D02*
X156040952Y-106932319D01*
X156040952Y-106932319D02*
X156279047Y-106932319D01*
X156279047Y-106932319D02*
X156374285Y-106979938D01*
X156374285Y-106979938D02*
X156421904Y-107027557D01*
X156421904Y-107027557D02*
X156469523Y-107122795D01*
X156469523Y-107122795D02*
X156469523Y-107218033D01*
X156469523Y-107218033D02*
X156421904Y-107360890D01*
X156421904Y-107360890D02*
X155850476Y-107932319D01*
X155850476Y-107932319D02*
X156469523Y-107932319D01*
X157421904Y-107932319D02*
X156850476Y-107932319D01*
X157136190Y-107932319D02*
X157136190Y-106932319D01*
X157136190Y-106932319D02*
X157040952Y-107075176D01*
X157040952Y-107075176D02*
X156945714Y-107170414D01*
X156945714Y-107170414D02*
X156850476Y-107218033D01*
X108314819Y-184304404D02*
X109124342Y-184304404D01*
X109124342Y-184304404D02*
X109219580Y-184256785D01*
X109219580Y-184256785D02*
X109267200Y-184209166D01*
X109267200Y-184209166D02*
X109314819Y-184113928D01*
X109314819Y-184113928D02*
X109314819Y-183923452D01*
X109314819Y-183923452D02*
X109267200Y-183828214D01*
X109267200Y-183828214D02*
X109219580Y-183780595D01*
X109219580Y-183780595D02*
X109124342Y-183732976D01*
X109124342Y-183732976D02*
X108314819Y-183732976D01*
X108743390Y-183113928D02*
X108695771Y-183209166D01*
X108695771Y-183209166D02*
X108648152Y-183256785D01*
X108648152Y-183256785D02*
X108552914Y-183304404D01*
X108552914Y-183304404D02*
X108505295Y-183304404D01*
X108505295Y-183304404D02*
X108410057Y-183256785D01*
X108410057Y-183256785D02*
X108362438Y-183209166D01*
X108362438Y-183209166D02*
X108314819Y-183113928D01*
X108314819Y-183113928D02*
X108314819Y-182923452D01*
X108314819Y-182923452D02*
X108362438Y-182828214D01*
X108362438Y-182828214D02*
X108410057Y-182780595D01*
X108410057Y-182780595D02*
X108505295Y-182732976D01*
X108505295Y-182732976D02*
X108552914Y-182732976D01*
X108552914Y-182732976D02*
X108648152Y-182780595D01*
X108648152Y-182780595D02*
X108695771Y-182828214D01*
X108695771Y-182828214D02*
X108743390Y-182923452D01*
X108743390Y-182923452D02*
X108743390Y-183113928D01*
X108743390Y-183113928D02*
X108791009Y-183209166D01*
X108791009Y-183209166D02*
X108838628Y-183256785D01*
X108838628Y-183256785D02*
X108933866Y-183304404D01*
X108933866Y-183304404D02*
X109124342Y-183304404D01*
X109124342Y-183304404D02*
X109219580Y-183256785D01*
X109219580Y-183256785D02*
X109267200Y-183209166D01*
X109267200Y-183209166D02*
X109314819Y-183113928D01*
X109314819Y-183113928D02*
X109314819Y-182923452D01*
X109314819Y-182923452D02*
X109267200Y-182828214D01*
X109267200Y-182828214D02*
X109219580Y-182780595D01*
X109219580Y-182780595D02*
X109124342Y-182732976D01*
X109124342Y-182732976D02*
X108933866Y-182732976D01*
X108933866Y-182732976D02*
X108838628Y-182780595D01*
X108838628Y-182780595D02*
X108791009Y-182828214D01*
X108791009Y-182828214D02*
X108743390Y-182923452D01*
X203714819Y-171505594D02*
X202714819Y-171505594D01*
X202714819Y-171505594D02*
X202714819Y-171267499D01*
X202714819Y-171267499D02*
X202762438Y-171124642D01*
X202762438Y-171124642D02*
X202857676Y-171029404D01*
X202857676Y-171029404D02*
X202952914Y-170981785D01*
X202952914Y-170981785D02*
X203143390Y-170934166D01*
X203143390Y-170934166D02*
X203286247Y-170934166D01*
X203286247Y-170934166D02*
X203476723Y-170981785D01*
X203476723Y-170981785D02*
X203571961Y-171029404D01*
X203571961Y-171029404D02*
X203667200Y-171124642D01*
X203667200Y-171124642D02*
X203714819Y-171267499D01*
X203714819Y-171267499D02*
X203714819Y-171505594D01*
X203714819Y-169981785D02*
X203714819Y-170553213D01*
X203714819Y-170267499D02*
X202714819Y-170267499D01*
X202714819Y-170267499D02*
X202857676Y-170362737D01*
X202857676Y-170362737D02*
X202952914Y-170457975D01*
X202952914Y-170457975D02*
X203000533Y-170553213D01*
X203814819Y-167219404D02*
X202814819Y-167219404D01*
X203814819Y-166647976D02*
X203243390Y-167076547D01*
X202814819Y-166647976D02*
X203386247Y-167219404D01*
X196603333Y-140452319D02*
X196270000Y-139976128D01*
X196031905Y-140452319D02*
X196031905Y-139452319D01*
X196031905Y-139452319D02*
X196412857Y-139452319D01*
X196412857Y-139452319D02*
X196508095Y-139499938D01*
X196508095Y-139499938D02*
X196555714Y-139547557D01*
X196555714Y-139547557D02*
X196603333Y-139642795D01*
X196603333Y-139642795D02*
X196603333Y-139785652D01*
X196603333Y-139785652D02*
X196555714Y-139880890D01*
X196555714Y-139880890D02*
X196508095Y-139928509D01*
X196508095Y-139928509D02*
X196412857Y-139976128D01*
X196412857Y-139976128D02*
X196031905Y-139976128D01*
X197460476Y-139785652D02*
X197460476Y-140452319D01*
X197222381Y-139404700D02*
X196984286Y-140118985D01*
X196984286Y-140118985D02*
X197603333Y-140118985D01*
X76127200Y-121767023D02*
X76174819Y-121624166D01*
X76174819Y-121624166D02*
X76174819Y-121386071D01*
X76174819Y-121386071D02*
X76127200Y-121290833D01*
X76127200Y-121290833D02*
X76079580Y-121243214D01*
X76079580Y-121243214D02*
X75984342Y-121195595D01*
X75984342Y-121195595D02*
X75889104Y-121195595D01*
X75889104Y-121195595D02*
X75793866Y-121243214D01*
X75793866Y-121243214D02*
X75746247Y-121290833D01*
X75746247Y-121290833D02*
X75698628Y-121386071D01*
X75698628Y-121386071D02*
X75651009Y-121576547D01*
X75651009Y-121576547D02*
X75603390Y-121671785D01*
X75603390Y-121671785D02*
X75555771Y-121719404D01*
X75555771Y-121719404D02*
X75460533Y-121767023D01*
X75460533Y-121767023D02*
X75365295Y-121767023D01*
X75365295Y-121767023D02*
X75270057Y-121719404D01*
X75270057Y-121719404D02*
X75222438Y-121671785D01*
X75222438Y-121671785D02*
X75174819Y-121576547D01*
X75174819Y-121576547D02*
X75174819Y-121338452D01*
X75174819Y-121338452D02*
X75222438Y-121195595D01*
X75174819Y-120862261D02*
X76174819Y-120624166D01*
X76174819Y-120624166D02*
X75460533Y-120433690D01*
X75460533Y-120433690D02*
X76174819Y-120243214D01*
X76174819Y-120243214D02*
X75174819Y-120005119D01*
X76174819Y-119100357D02*
X76174819Y-119671785D01*
X76174819Y-119386071D02*
X75174819Y-119386071D01*
X75174819Y-119386071D02*
X75317676Y-119481309D01*
X75317676Y-119481309D02*
X75412914Y-119576547D01*
X75412914Y-119576547D02*
X75460533Y-119671785D01*
X75174819Y-118195595D02*
X75174819Y-118671785D01*
X75174819Y-118671785D02*
X75651009Y-118719404D01*
X75651009Y-118719404D02*
X75603390Y-118671785D01*
X75603390Y-118671785D02*
X75555771Y-118576547D01*
X75555771Y-118576547D02*
X75555771Y-118338452D01*
X75555771Y-118338452D02*
X75603390Y-118243214D01*
X75603390Y-118243214D02*
X75651009Y-118195595D01*
X75651009Y-118195595D02*
X75746247Y-118147976D01*
X75746247Y-118147976D02*
X75984342Y-118147976D01*
X75984342Y-118147976D02*
X76079580Y-118195595D01*
X76079580Y-118195595D02*
X76127200Y-118243214D01*
X76127200Y-118243214D02*
X76174819Y-118338452D01*
X76174819Y-118338452D02*
X76174819Y-118576547D01*
X76174819Y-118576547D02*
X76127200Y-118671785D01*
X76127200Y-118671785D02*
X76079580Y-118719404D01*
X98857142Y-191922319D02*
X98523809Y-191446128D01*
X98285714Y-191922319D02*
X98285714Y-190922319D01*
X98285714Y-190922319D02*
X98666666Y-190922319D01*
X98666666Y-190922319D02*
X98761904Y-190969938D01*
X98761904Y-190969938D02*
X98809523Y-191017557D01*
X98809523Y-191017557D02*
X98857142Y-191112795D01*
X98857142Y-191112795D02*
X98857142Y-191255652D01*
X98857142Y-191255652D02*
X98809523Y-191350890D01*
X98809523Y-191350890D02*
X98761904Y-191398509D01*
X98761904Y-191398509D02*
X98666666Y-191446128D01*
X98666666Y-191446128D02*
X98285714Y-191446128D01*
X99238095Y-191017557D02*
X99285714Y-190969938D01*
X99285714Y-190969938D02*
X99380952Y-190922319D01*
X99380952Y-190922319D02*
X99619047Y-190922319D01*
X99619047Y-190922319D02*
X99714285Y-190969938D01*
X99714285Y-190969938D02*
X99761904Y-191017557D01*
X99761904Y-191017557D02*
X99809523Y-191112795D01*
X99809523Y-191112795D02*
X99809523Y-191208033D01*
X99809523Y-191208033D02*
X99761904Y-191350890D01*
X99761904Y-191350890D02*
X99190476Y-191922319D01*
X99190476Y-191922319D02*
X99809523Y-191922319D01*
X100666666Y-191255652D02*
X100666666Y-191922319D01*
X100428571Y-190874700D02*
X100190476Y-191588985D01*
X100190476Y-191588985D02*
X100809523Y-191588985D01*
X196183333Y-125342319D02*
X195850000Y-124866128D01*
X195611905Y-125342319D02*
X195611905Y-124342319D01*
X195611905Y-124342319D02*
X195992857Y-124342319D01*
X195992857Y-124342319D02*
X196088095Y-124389938D01*
X196088095Y-124389938D02*
X196135714Y-124437557D01*
X196135714Y-124437557D02*
X196183333Y-124532795D01*
X196183333Y-124532795D02*
X196183333Y-124675652D01*
X196183333Y-124675652D02*
X196135714Y-124770890D01*
X196135714Y-124770890D02*
X196088095Y-124818509D01*
X196088095Y-124818509D02*
X195992857Y-124866128D01*
X195992857Y-124866128D02*
X195611905Y-124866128D01*
X197088095Y-124342319D02*
X196611905Y-124342319D01*
X196611905Y-124342319D02*
X196564286Y-124818509D01*
X196564286Y-124818509D02*
X196611905Y-124770890D01*
X196611905Y-124770890D02*
X196707143Y-124723271D01*
X196707143Y-124723271D02*
X196945238Y-124723271D01*
X196945238Y-124723271D02*
X197040476Y-124770890D01*
X197040476Y-124770890D02*
X197088095Y-124818509D01*
X197088095Y-124818509D02*
X197135714Y-124913747D01*
X197135714Y-124913747D02*
X197135714Y-125151842D01*
X197135714Y-125151842D02*
X197088095Y-125247080D01*
X197088095Y-125247080D02*
X197040476Y-125294700D01*
X197040476Y-125294700D02*
X196945238Y-125342319D01*
X196945238Y-125342319D02*
X196707143Y-125342319D01*
X196707143Y-125342319D02*
X196611905Y-125294700D01*
X196611905Y-125294700D02*
X196564286Y-125247080D01*
X196583333Y-156552319D02*
X196250000Y-156076128D01*
X196011905Y-156552319D02*
X196011905Y-155552319D01*
X196011905Y-155552319D02*
X196392857Y-155552319D01*
X196392857Y-155552319D02*
X196488095Y-155599938D01*
X196488095Y-155599938D02*
X196535714Y-155647557D01*
X196535714Y-155647557D02*
X196583333Y-155742795D01*
X196583333Y-155742795D02*
X196583333Y-155885652D01*
X196583333Y-155885652D02*
X196535714Y-155980890D01*
X196535714Y-155980890D02*
X196488095Y-156028509D01*
X196488095Y-156028509D02*
X196392857Y-156076128D01*
X196392857Y-156076128D02*
X196011905Y-156076128D01*
X196916667Y-155552319D02*
X197535714Y-155552319D01*
X197535714Y-155552319D02*
X197202381Y-155933271D01*
X197202381Y-155933271D02*
X197345238Y-155933271D01*
X197345238Y-155933271D02*
X197440476Y-155980890D01*
X197440476Y-155980890D02*
X197488095Y-156028509D01*
X197488095Y-156028509D02*
X197535714Y-156123747D01*
X197535714Y-156123747D02*
X197535714Y-156361842D01*
X197535714Y-156361842D02*
X197488095Y-156457080D01*
X197488095Y-156457080D02*
X197440476Y-156504700D01*
X197440476Y-156504700D02*
X197345238Y-156552319D01*
X197345238Y-156552319D02*
X197059524Y-156552319D01*
X197059524Y-156552319D02*
X196964286Y-156504700D01*
X196964286Y-156504700D02*
X196916667Y-156457080D01*
X230714819Y-143645594D02*
X229714819Y-143645594D01*
X230714819Y-143074166D02*
X230143390Y-143502737D01*
X229714819Y-143074166D02*
X230286247Y-143645594D01*
X229714819Y-142740832D02*
X229714819Y-142121785D01*
X229714819Y-142121785D02*
X230095771Y-142455118D01*
X230095771Y-142455118D02*
X230095771Y-142312261D01*
X230095771Y-142312261D02*
X230143390Y-142217023D01*
X230143390Y-142217023D02*
X230191009Y-142169404D01*
X230191009Y-142169404D02*
X230286247Y-142121785D01*
X230286247Y-142121785D02*
X230524342Y-142121785D01*
X230524342Y-142121785D02*
X230619580Y-142169404D01*
X230619580Y-142169404D02*
X230667200Y-142217023D01*
X230667200Y-142217023D02*
X230714819Y-142312261D01*
X230714819Y-142312261D02*
X230714819Y-142597975D01*
X230714819Y-142597975D02*
X230667200Y-142693213D01*
X230667200Y-142693213D02*
X230619580Y-142740832D01*
X182974819Y-198250357D02*
X182498628Y-198583690D01*
X182974819Y-198821785D02*
X181974819Y-198821785D01*
X181974819Y-198821785D02*
X181974819Y-198440833D01*
X181974819Y-198440833D02*
X182022438Y-198345595D01*
X182022438Y-198345595D02*
X182070057Y-198297976D01*
X182070057Y-198297976D02*
X182165295Y-198250357D01*
X182165295Y-198250357D02*
X182308152Y-198250357D01*
X182308152Y-198250357D02*
X182403390Y-198297976D01*
X182403390Y-198297976D02*
X182451009Y-198345595D01*
X182451009Y-198345595D02*
X182498628Y-198440833D01*
X182498628Y-198440833D02*
X182498628Y-198821785D01*
X182974819Y-197297976D02*
X182974819Y-197869404D01*
X182974819Y-197583690D02*
X181974819Y-197583690D01*
X181974819Y-197583690D02*
X182117676Y-197678928D01*
X182117676Y-197678928D02*
X182212914Y-197774166D01*
X182212914Y-197774166D02*
X182260533Y-197869404D01*
X181974819Y-196964642D02*
X181974819Y-196297976D01*
X181974819Y-196297976D02*
X182974819Y-196726547D01*
X162956666Y-223964819D02*
X162956666Y-224679104D01*
X162956666Y-224679104D02*
X162909047Y-224821961D01*
X162909047Y-224821961D02*
X162813809Y-224917200D01*
X162813809Y-224917200D02*
X162670952Y-224964819D01*
X162670952Y-224964819D02*
X162575714Y-224964819D01*
X163337619Y-223964819D02*
X164004285Y-223964819D01*
X164004285Y-223964819D02*
X163575714Y-224964819D01*
X84527200Y-102690832D02*
X84574819Y-102547975D01*
X84574819Y-102547975D02*
X84574819Y-102309880D01*
X84574819Y-102309880D02*
X84527200Y-102214642D01*
X84527200Y-102214642D02*
X84479580Y-102167023D01*
X84479580Y-102167023D02*
X84384342Y-102119404D01*
X84384342Y-102119404D02*
X84289104Y-102119404D01*
X84289104Y-102119404D02*
X84193866Y-102167023D01*
X84193866Y-102167023D02*
X84146247Y-102214642D01*
X84146247Y-102214642D02*
X84098628Y-102309880D01*
X84098628Y-102309880D02*
X84051009Y-102500356D01*
X84051009Y-102500356D02*
X84003390Y-102595594D01*
X84003390Y-102595594D02*
X83955771Y-102643213D01*
X83955771Y-102643213D02*
X83860533Y-102690832D01*
X83860533Y-102690832D02*
X83765295Y-102690832D01*
X83765295Y-102690832D02*
X83670057Y-102643213D01*
X83670057Y-102643213D02*
X83622438Y-102595594D01*
X83622438Y-102595594D02*
X83574819Y-102500356D01*
X83574819Y-102500356D02*
X83574819Y-102262261D01*
X83574819Y-102262261D02*
X83622438Y-102119404D01*
X83574819Y-101786070D02*
X84574819Y-101547975D01*
X84574819Y-101547975D02*
X83860533Y-101357499D01*
X83860533Y-101357499D02*
X84574819Y-101167023D01*
X84574819Y-101167023D02*
X83574819Y-100928928D01*
X84003390Y-100405118D02*
X83955771Y-100500356D01*
X83955771Y-100500356D02*
X83908152Y-100547975D01*
X83908152Y-100547975D02*
X83812914Y-100595594D01*
X83812914Y-100595594D02*
X83765295Y-100595594D01*
X83765295Y-100595594D02*
X83670057Y-100547975D01*
X83670057Y-100547975D02*
X83622438Y-100500356D01*
X83622438Y-100500356D02*
X83574819Y-100405118D01*
X83574819Y-100405118D02*
X83574819Y-100214642D01*
X83574819Y-100214642D02*
X83622438Y-100119404D01*
X83622438Y-100119404D02*
X83670057Y-100071785D01*
X83670057Y-100071785D02*
X83765295Y-100024166D01*
X83765295Y-100024166D02*
X83812914Y-100024166D01*
X83812914Y-100024166D02*
X83908152Y-100071785D01*
X83908152Y-100071785D02*
X83955771Y-100119404D01*
X83955771Y-100119404D02*
X84003390Y-100214642D01*
X84003390Y-100214642D02*
X84003390Y-100405118D01*
X84003390Y-100405118D02*
X84051009Y-100500356D01*
X84051009Y-100500356D02*
X84098628Y-100547975D01*
X84098628Y-100547975D02*
X84193866Y-100595594D01*
X84193866Y-100595594D02*
X84384342Y-100595594D01*
X84384342Y-100595594D02*
X84479580Y-100547975D01*
X84479580Y-100547975D02*
X84527200Y-100500356D01*
X84527200Y-100500356D02*
X84574819Y-100405118D01*
X84574819Y-100405118D02*
X84574819Y-100214642D01*
X84574819Y-100214642D02*
X84527200Y-100119404D01*
X84527200Y-100119404D02*
X84479580Y-100071785D01*
X84479580Y-100071785D02*
X84384342Y-100024166D01*
X84384342Y-100024166D02*
X84193866Y-100024166D01*
X84193866Y-100024166D02*
X84098628Y-100071785D01*
X84098628Y-100071785D02*
X84051009Y-100119404D01*
X84051009Y-100119404D02*
X84003390Y-100214642D01*
X152374819Y-197950357D02*
X151898628Y-198283690D01*
X152374819Y-198521785D02*
X151374819Y-198521785D01*
X151374819Y-198521785D02*
X151374819Y-198140833D01*
X151374819Y-198140833D02*
X151422438Y-198045595D01*
X151422438Y-198045595D02*
X151470057Y-197997976D01*
X151470057Y-197997976D02*
X151565295Y-197950357D01*
X151565295Y-197950357D02*
X151708152Y-197950357D01*
X151708152Y-197950357D02*
X151803390Y-197997976D01*
X151803390Y-197997976D02*
X151851009Y-198045595D01*
X151851009Y-198045595D02*
X151898628Y-198140833D01*
X151898628Y-198140833D02*
X151898628Y-198521785D01*
X152374819Y-196997976D02*
X152374819Y-197569404D01*
X152374819Y-197283690D02*
X151374819Y-197283690D01*
X151374819Y-197283690D02*
X151517676Y-197378928D01*
X151517676Y-197378928D02*
X151612914Y-197474166D01*
X151612914Y-197474166D02*
X151660533Y-197569404D01*
X152374819Y-196045595D02*
X152374819Y-196617023D01*
X152374819Y-196331309D02*
X151374819Y-196331309D01*
X151374819Y-196331309D02*
X151517676Y-196426547D01*
X151517676Y-196426547D02*
X151612914Y-196521785D01*
X151612914Y-196521785D02*
X151660533Y-196617023D01*
X143708628Y-158703690D02*
X144184819Y-158703690D01*
X143184819Y-159037023D02*
X143708628Y-158703690D01*
X143708628Y-158703690D02*
X143184819Y-158370357D01*
X144184819Y-157513214D02*
X144184819Y-158084642D01*
X144184819Y-157798928D02*
X143184819Y-157798928D01*
X143184819Y-157798928D02*
X143327676Y-157894166D01*
X143327676Y-157894166D02*
X143422914Y-157989404D01*
X143422914Y-157989404D02*
X143470533Y-158084642D01*
X135395476Y-124637319D02*
X135395476Y-125351604D01*
X135395476Y-125351604D02*
X135347857Y-125494461D01*
X135347857Y-125494461D02*
X135252619Y-125589700D01*
X135252619Y-125589700D02*
X135109762Y-125637319D01*
X135109762Y-125637319D02*
X135014524Y-125637319D01*
X136395476Y-125637319D02*
X135824048Y-125637319D01*
X136109762Y-125637319D02*
X136109762Y-124637319D01*
X136109762Y-124637319D02*
X136014524Y-124780176D01*
X136014524Y-124780176D02*
X135919286Y-124875414D01*
X135919286Y-124875414D02*
X135824048Y-124923033D01*
X137252619Y-124970652D02*
X137252619Y-125637319D01*
X137014524Y-124589700D02*
X136776429Y-125303985D01*
X136776429Y-125303985D02*
X137395476Y-125303985D01*
X158992142Y-130487319D02*
X158658809Y-130011128D01*
X158420714Y-130487319D02*
X158420714Y-129487319D01*
X158420714Y-129487319D02*
X158801666Y-129487319D01*
X158801666Y-129487319D02*
X158896904Y-129534938D01*
X158896904Y-129534938D02*
X158944523Y-129582557D01*
X158944523Y-129582557D02*
X158992142Y-129677795D01*
X158992142Y-129677795D02*
X158992142Y-129820652D01*
X158992142Y-129820652D02*
X158944523Y-129915890D01*
X158944523Y-129915890D02*
X158896904Y-129963509D01*
X158896904Y-129963509D02*
X158801666Y-130011128D01*
X158801666Y-130011128D02*
X158420714Y-130011128D01*
X159944523Y-130487319D02*
X159373095Y-130487319D01*
X159658809Y-130487319D02*
X159658809Y-129487319D01*
X159658809Y-129487319D02*
X159563571Y-129630176D01*
X159563571Y-129630176D02*
X159468333Y-129725414D01*
X159468333Y-129725414D02*
X159373095Y-129773033D01*
X160420714Y-130487319D02*
X160611190Y-130487319D01*
X160611190Y-130487319D02*
X160706428Y-130439700D01*
X160706428Y-130439700D02*
X160754047Y-130392080D01*
X160754047Y-130392080D02*
X160849285Y-130249223D01*
X160849285Y-130249223D02*
X160896904Y-130058747D01*
X160896904Y-130058747D02*
X160896904Y-129677795D01*
X160896904Y-129677795D02*
X160849285Y-129582557D01*
X160849285Y-129582557D02*
X160801666Y-129534938D01*
X160801666Y-129534938D02*
X160706428Y-129487319D01*
X160706428Y-129487319D02*
X160515952Y-129487319D01*
X160515952Y-129487319D02*
X160420714Y-129534938D01*
X160420714Y-129534938D02*
X160373095Y-129582557D01*
X160373095Y-129582557D02*
X160325476Y-129677795D01*
X160325476Y-129677795D02*
X160325476Y-129915890D01*
X160325476Y-129915890D02*
X160373095Y-130011128D01*
X160373095Y-130011128D02*
X160420714Y-130058747D01*
X160420714Y-130058747D02*
X160515952Y-130106366D01*
X160515952Y-130106366D02*
X160706428Y-130106366D01*
X160706428Y-130106366D02*
X160801666Y-130058747D01*
X160801666Y-130058747D02*
X160849285Y-130011128D01*
X160849285Y-130011128D02*
X160896904Y-129915890D01*
X204014819Y-123205594D02*
X203014819Y-123205594D01*
X203014819Y-123205594D02*
X203014819Y-122967499D01*
X203014819Y-122967499D02*
X203062438Y-122824642D01*
X203062438Y-122824642D02*
X203157676Y-122729404D01*
X203157676Y-122729404D02*
X203252914Y-122681785D01*
X203252914Y-122681785D02*
X203443390Y-122634166D01*
X203443390Y-122634166D02*
X203586247Y-122634166D01*
X203586247Y-122634166D02*
X203776723Y-122681785D01*
X203776723Y-122681785D02*
X203871961Y-122729404D01*
X203871961Y-122729404D02*
X203967200Y-122824642D01*
X203967200Y-122824642D02*
X204014819Y-122967499D01*
X204014819Y-122967499D02*
X204014819Y-123205594D01*
X203348152Y-121777023D02*
X204014819Y-121777023D01*
X202967200Y-122015118D02*
X203681485Y-122253213D01*
X203681485Y-122253213D02*
X203681485Y-121634166D01*
X203914819Y-118919404D02*
X202914819Y-118919404D01*
X203914819Y-118347976D02*
X203343390Y-118776547D01*
X202914819Y-118347976D02*
X203486247Y-118919404D01*
X132993333Y-146512319D02*
X132660000Y-146036128D01*
X132421905Y-146512319D02*
X132421905Y-145512319D01*
X132421905Y-145512319D02*
X132802857Y-145512319D01*
X132802857Y-145512319D02*
X132898095Y-145559938D01*
X132898095Y-145559938D02*
X132945714Y-145607557D01*
X132945714Y-145607557D02*
X132993333Y-145702795D01*
X132993333Y-145702795D02*
X132993333Y-145845652D01*
X132993333Y-145845652D02*
X132945714Y-145940890D01*
X132945714Y-145940890D02*
X132898095Y-145988509D01*
X132898095Y-145988509D02*
X132802857Y-146036128D01*
X132802857Y-146036128D02*
X132421905Y-146036128D01*
X133945714Y-146512319D02*
X133374286Y-146512319D01*
X133660000Y-146512319D02*
X133660000Y-145512319D01*
X133660000Y-145512319D02*
X133564762Y-145655176D01*
X133564762Y-145655176D02*
X133469524Y-145750414D01*
X133469524Y-145750414D02*
X133374286Y-145798033D01*
X170350476Y-125312319D02*
X170350476Y-126026604D01*
X170350476Y-126026604D02*
X170302857Y-126169461D01*
X170302857Y-126169461D02*
X170207619Y-126264700D01*
X170207619Y-126264700D02*
X170064762Y-126312319D01*
X170064762Y-126312319D02*
X169969524Y-126312319D01*
X171350476Y-126312319D02*
X170779048Y-126312319D01*
X171064762Y-126312319D02*
X171064762Y-125312319D01*
X171064762Y-125312319D02*
X170969524Y-125455176D01*
X170969524Y-125455176D02*
X170874286Y-125550414D01*
X170874286Y-125550414D02*
X170779048Y-125598033D01*
X172255238Y-125312319D02*
X171779048Y-125312319D01*
X171779048Y-125312319D02*
X171731429Y-125788509D01*
X171731429Y-125788509D02*
X171779048Y-125740890D01*
X171779048Y-125740890D02*
X171874286Y-125693271D01*
X171874286Y-125693271D02*
X172112381Y-125693271D01*
X172112381Y-125693271D02*
X172207619Y-125740890D01*
X172207619Y-125740890D02*
X172255238Y-125788509D01*
X172255238Y-125788509D02*
X172302857Y-125883747D01*
X172302857Y-125883747D02*
X172302857Y-126121842D01*
X172302857Y-126121842D02*
X172255238Y-126217080D01*
X172255238Y-126217080D02*
X172207619Y-126264700D01*
X172207619Y-126264700D02*
X172112381Y-126312319D01*
X172112381Y-126312319D02*
X171874286Y-126312319D01*
X171874286Y-126312319D02*
X171779048Y-126264700D01*
X171779048Y-126264700D02*
X171731429Y-126217080D01*
X150351905Y-224922319D02*
X150351905Y-223922319D01*
X150351905Y-223922319D02*
X150590000Y-223922319D01*
X150590000Y-223922319D02*
X150732857Y-223969938D01*
X150732857Y-223969938D02*
X150828095Y-224065176D01*
X150828095Y-224065176D02*
X150875714Y-224160414D01*
X150875714Y-224160414D02*
X150923333Y-224350890D01*
X150923333Y-224350890D02*
X150923333Y-224493747D01*
X150923333Y-224493747D02*
X150875714Y-224684223D01*
X150875714Y-224684223D02*
X150828095Y-224779461D01*
X150828095Y-224779461D02*
X150732857Y-224874700D01*
X150732857Y-224874700D02*
X150590000Y-224922319D01*
X150590000Y-224922319D02*
X150351905Y-224922319D01*
X151256667Y-223922319D02*
X151923333Y-223922319D01*
X151923333Y-223922319D02*
X151494762Y-224922319D01*
X107859580Y-82200357D02*
X107907200Y-82247976D01*
X107907200Y-82247976D02*
X107954819Y-82390833D01*
X107954819Y-82390833D02*
X107954819Y-82486071D01*
X107954819Y-82486071D02*
X107907200Y-82628928D01*
X107907200Y-82628928D02*
X107811961Y-82724166D01*
X107811961Y-82724166D02*
X107716723Y-82771785D01*
X107716723Y-82771785D02*
X107526247Y-82819404D01*
X107526247Y-82819404D02*
X107383390Y-82819404D01*
X107383390Y-82819404D02*
X107192914Y-82771785D01*
X107192914Y-82771785D02*
X107097676Y-82724166D01*
X107097676Y-82724166D02*
X107002438Y-82628928D01*
X107002438Y-82628928D02*
X106954819Y-82486071D01*
X106954819Y-82486071D02*
X106954819Y-82390833D01*
X106954819Y-82390833D02*
X107002438Y-82247976D01*
X107002438Y-82247976D02*
X107050057Y-82200357D01*
X107954819Y-81247976D02*
X107954819Y-81819404D01*
X107954819Y-81533690D02*
X106954819Y-81533690D01*
X106954819Y-81533690D02*
X107097676Y-81628928D01*
X107097676Y-81628928D02*
X107192914Y-81724166D01*
X107192914Y-81724166D02*
X107240533Y-81819404D01*
X106954819Y-80343214D02*
X106954819Y-80819404D01*
X106954819Y-80819404D02*
X107431009Y-80867023D01*
X107431009Y-80867023D02*
X107383390Y-80819404D01*
X107383390Y-80819404D02*
X107335771Y-80724166D01*
X107335771Y-80724166D02*
X107335771Y-80486071D01*
X107335771Y-80486071D02*
X107383390Y-80390833D01*
X107383390Y-80390833D02*
X107431009Y-80343214D01*
X107431009Y-80343214D02*
X107526247Y-80295595D01*
X107526247Y-80295595D02*
X107764342Y-80295595D01*
X107764342Y-80295595D02*
X107859580Y-80343214D01*
X107859580Y-80343214D02*
X107907200Y-80390833D01*
X107907200Y-80390833D02*
X107954819Y-80486071D01*
X107954819Y-80486071D02*
X107954819Y-80724166D01*
X107954819Y-80724166D02*
X107907200Y-80819404D01*
X107907200Y-80819404D02*
X107859580Y-80867023D01*
X201510057Y-162462738D02*
X201462438Y-162557976D01*
X201462438Y-162557976D02*
X201367200Y-162653214D01*
X201367200Y-162653214D02*
X201224342Y-162796071D01*
X201224342Y-162796071D02*
X201176723Y-162891309D01*
X201176723Y-162891309D02*
X201176723Y-162986547D01*
X201414819Y-162938928D02*
X201367200Y-163034166D01*
X201367200Y-163034166D02*
X201271961Y-163129404D01*
X201271961Y-163129404D02*
X201081485Y-163177023D01*
X201081485Y-163177023D02*
X200748152Y-163177023D01*
X200748152Y-163177023D02*
X200557676Y-163129404D01*
X200557676Y-163129404D02*
X200462438Y-163034166D01*
X200462438Y-163034166D02*
X200414819Y-162938928D01*
X200414819Y-162938928D02*
X200414819Y-162748452D01*
X200414819Y-162748452D02*
X200462438Y-162653214D01*
X200462438Y-162653214D02*
X200557676Y-162557976D01*
X200557676Y-162557976D02*
X200748152Y-162510357D01*
X200748152Y-162510357D02*
X201081485Y-162510357D01*
X201081485Y-162510357D02*
X201271961Y-162557976D01*
X201271961Y-162557976D02*
X201367200Y-162653214D01*
X201367200Y-162653214D02*
X201414819Y-162748452D01*
X201414819Y-162748452D02*
X201414819Y-162938928D01*
X200510057Y-162129404D02*
X200462438Y-162081785D01*
X200462438Y-162081785D02*
X200414819Y-161986547D01*
X200414819Y-161986547D02*
X200414819Y-161748452D01*
X200414819Y-161748452D02*
X200462438Y-161653214D01*
X200462438Y-161653214D02*
X200510057Y-161605595D01*
X200510057Y-161605595D02*
X200605295Y-161557976D01*
X200605295Y-161557976D02*
X200700533Y-161557976D01*
X200700533Y-161557976D02*
X200843390Y-161605595D01*
X200843390Y-161605595D02*
X201414819Y-162177023D01*
X201414819Y-162177023D02*
X201414819Y-161557976D01*
X131695476Y-124637319D02*
X131695476Y-125351604D01*
X131695476Y-125351604D02*
X131647857Y-125494461D01*
X131647857Y-125494461D02*
X131552619Y-125589700D01*
X131552619Y-125589700D02*
X131409762Y-125637319D01*
X131409762Y-125637319D02*
X131314524Y-125637319D01*
X132695476Y-125637319D02*
X132124048Y-125637319D01*
X132409762Y-125637319D02*
X132409762Y-124637319D01*
X132409762Y-124637319D02*
X132314524Y-124780176D01*
X132314524Y-124780176D02*
X132219286Y-124875414D01*
X132219286Y-124875414D02*
X132124048Y-124923033D01*
X133028810Y-124637319D02*
X133647857Y-124637319D01*
X133647857Y-124637319D02*
X133314524Y-125018271D01*
X133314524Y-125018271D02*
X133457381Y-125018271D01*
X133457381Y-125018271D02*
X133552619Y-125065890D01*
X133552619Y-125065890D02*
X133600238Y-125113509D01*
X133600238Y-125113509D02*
X133647857Y-125208747D01*
X133647857Y-125208747D02*
X133647857Y-125446842D01*
X133647857Y-125446842D02*
X133600238Y-125542080D01*
X133600238Y-125542080D02*
X133552619Y-125589700D01*
X133552619Y-125589700D02*
X133457381Y-125637319D01*
X133457381Y-125637319D02*
X133171667Y-125637319D01*
X133171667Y-125637319D02*
X133076429Y-125589700D01*
X133076429Y-125589700D02*
X133028810Y-125542080D01*
X76127200Y-102690832D02*
X76174819Y-102547975D01*
X76174819Y-102547975D02*
X76174819Y-102309880D01*
X76174819Y-102309880D02*
X76127200Y-102214642D01*
X76127200Y-102214642D02*
X76079580Y-102167023D01*
X76079580Y-102167023D02*
X75984342Y-102119404D01*
X75984342Y-102119404D02*
X75889104Y-102119404D01*
X75889104Y-102119404D02*
X75793866Y-102167023D01*
X75793866Y-102167023D02*
X75746247Y-102214642D01*
X75746247Y-102214642D02*
X75698628Y-102309880D01*
X75698628Y-102309880D02*
X75651009Y-102500356D01*
X75651009Y-102500356D02*
X75603390Y-102595594D01*
X75603390Y-102595594D02*
X75555771Y-102643213D01*
X75555771Y-102643213D02*
X75460533Y-102690832D01*
X75460533Y-102690832D02*
X75365295Y-102690832D01*
X75365295Y-102690832D02*
X75270057Y-102643213D01*
X75270057Y-102643213D02*
X75222438Y-102595594D01*
X75222438Y-102595594D02*
X75174819Y-102500356D01*
X75174819Y-102500356D02*
X75174819Y-102262261D01*
X75174819Y-102262261D02*
X75222438Y-102119404D01*
X75174819Y-101786070D02*
X76174819Y-101547975D01*
X76174819Y-101547975D02*
X75460533Y-101357499D01*
X75460533Y-101357499D02*
X76174819Y-101167023D01*
X76174819Y-101167023D02*
X75174819Y-100928928D01*
X75174819Y-100643213D02*
X75174819Y-99976547D01*
X75174819Y-99976547D02*
X76174819Y-100405118D01*
X133564819Y-200385594D02*
X132564819Y-200385594D01*
X132564819Y-200385594D02*
X132564819Y-200147499D01*
X132564819Y-200147499D02*
X132612438Y-200004642D01*
X132612438Y-200004642D02*
X132707676Y-199909404D01*
X132707676Y-199909404D02*
X132802914Y-199861785D01*
X132802914Y-199861785D02*
X132993390Y-199814166D01*
X132993390Y-199814166D02*
X133136247Y-199814166D01*
X133136247Y-199814166D02*
X133326723Y-199861785D01*
X133326723Y-199861785D02*
X133421961Y-199909404D01*
X133421961Y-199909404D02*
X133517200Y-200004642D01*
X133517200Y-200004642D02*
X133564819Y-200147499D01*
X133564819Y-200147499D02*
X133564819Y-200385594D01*
X132564819Y-198957023D02*
X132564819Y-199147499D01*
X132564819Y-199147499D02*
X132612438Y-199242737D01*
X132612438Y-199242737D02*
X132660057Y-199290356D01*
X132660057Y-199290356D02*
X132802914Y-199385594D01*
X132802914Y-199385594D02*
X132993390Y-199433213D01*
X132993390Y-199433213D02*
X133374342Y-199433213D01*
X133374342Y-199433213D02*
X133469580Y-199385594D01*
X133469580Y-199385594D02*
X133517200Y-199337975D01*
X133517200Y-199337975D02*
X133564819Y-199242737D01*
X133564819Y-199242737D02*
X133564819Y-199052261D01*
X133564819Y-199052261D02*
X133517200Y-198957023D01*
X133517200Y-198957023D02*
X133469580Y-198909404D01*
X133469580Y-198909404D02*
X133374342Y-198861785D01*
X133374342Y-198861785D02*
X133136247Y-198861785D01*
X133136247Y-198861785D02*
X133041009Y-198909404D01*
X133041009Y-198909404D02*
X132993390Y-198957023D01*
X132993390Y-198957023D02*
X132945771Y-199052261D01*
X132945771Y-199052261D02*
X132945771Y-199242737D01*
X132945771Y-199242737D02*
X132993390Y-199337975D01*
X132993390Y-199337975D02*
X133041009Y-199385594D01*
X133041009Y-199385594D02*
X133136247Y-199433213D01*
X118364819Y-110167738D02*
X117888628Y-110501071D01*
X118364819Y-110739166D02*
X117364819Y-110739166D01*
X117364819Y-110739166D02*
X117364819Y-110358214D01*
X117364819Y-110358214D02*
X117412438Y-110262976D01*
X117412438Y-110262976D02*
X117460057Y-110215357D01*
X117460057Y-110215357D02*
X117555295Y-110167738D01*
X117555295Y-110167738D02*
X117698152Y-110167738D01*
X117698152Y-110167738D02*
X117793390Y-110215357D01*
X117793390Y-110215357D02*
X117841009Y-110262976D01*
X117841009Y-110262976D02*
X117888628Y-110358214D01*
X117888628Y-110358214D02*
X117888628Y-110739166D01*
X117364819Y-109882023D02*
X118364819Y-109548690D01*
X118364819Y-109548690D02*
X117364819Y-109215357D01*
X117460057Y-108929642D02*
X117412438Y-108882023D01*
X117412438Y-108882023D02*
X117364819Y-108786785D01*
X117364819Y-108786785D02*
X117364819Y-108548690D01*
X117364819Y-108548690D02*
X117412438Y-108453452D01*
X117412438Y-108453452D02*
X117460057Y-108405833D01*
X117460057Y-108405833D02*
X117555295Y-108358214D01*
X117555295Y-108358214D02*
X117650533Y-108358214D01*
X117650533Y-108358214D02*
X117793390Y-108405833D01*
X117793390Y-108405833D02*
X118364819Y-108977261D01*
X118364819Y-108977261D02*
X118364819Y-108358214D01*
X132199819Y-110137738D02*
X131723628Y-110471071D01*
X132199819Y-110709166D02*
X131199819Y-110709166D01*
X131199819Y-110709166D02*
X131199819Y-110328214D01*
X131199819Y-110328214D02*
X131247438Y-110232976D01*
X131247438Y-110232976D02*
X131295057Y-110185357D01*
X131295057Y-110185357D02*
X131390295Y-110137738D01*
X131390295Y-110137738D02*
X131533152Y-110137738D01*
X131533152Y-110137738D02*
X131628390Y-110185357D01*
X131628390Y-110185357D02*
X131676009Y-110232976D01*
X131676009Y-110232976D02*
X131723628Y-110328214D01*
X131723628Y-110328214D02*
X131723628Y-110709166D01*
X131199819Y-109852023D02*
X132199819Y-109518690D01*
X132199819Y-109518690D02*
X131199819Y-109185357D01*
X131533152Y-108423452D02*
X132199819Y-108423452D01*
X131152200Y-108661547D02*
X131866485Y-108899642D01*
X131866485Y-108899642D02*
X131866485Y-108280595D01*
X180075714Y-225072319D02*
X180075714Y-224072319D01*
X180075714Y-224072319D02*
X180313809Y-224072319D01*
X180313809Y-224072319D02*
X180456666Y-224119938D01*
X180456666Y-224119938D02*
X180551904Y-224215176D01*
X180551904Y-224215176D02*
X180599523Y-224310414D01*
X180599523Y-224310414D02*
X180647142Y-224500890D01*
X180647142Y-224500890D02*
X180647142Y-224643747D01*
X180647142Y-224643747D02*
X180599523Y-224834223D01*
X180599523Y-224834223D02*
X180551904Y-224929461D01*
X180551904Y-224929461D02*
X180456666Y-225024700D01*
X180456666Y-225024700D02*
X180313809Y-225072319D01*
X180313809Y-225072319D02*
X180075714Y-225072319D01*
X181599523Y-225072319D02*
X181028095Y-225072319D01*
X181313809Y-225072319D02*
X181313809Y-224072319D01*
X181313809Y-224072319D02*
X181218571Y-224215176D01*
X181218571Y-224215176D02*
X181123333Y-224310414D01*
X181123333Y-224310414D02*
X181028095Y-224358033D01*
X182551904Y-225072319D02*
X181980476Y-225072319D01*
X182266190Y-225072319D02*
X182266190Y-224072319D01*
X182266190Y-224072319D02*
X182170952Y-224215176D01*
X182170952Y-224215176D02*
X182075714Y-224310414D01*
X182075714Y-224310414D02*
X181980476Y-224358033D01*
X146619580Y-105720357D02*
X146667200Y-105767976D01*
X146667200Y-105767976D02*
X146714819Y-105910833D01*
X146714819Y-105910833D02*
X146714819Y-106006071D01*
X146714819Y-106006071D02*
X146667200Y-106148928D01*
X146667200Y-106148928D02*
X146571961Y-106244166D01*
X146571961Y-106244166D02*
X146476723Y-106291785D01*
X146476723Y-106291785D02*
X146286247Y-106339404D01*
X146286247Y-106339404D02*
X146143390Y-106339404D01*
X146143390Y-106339404D02*
X145952914Y-106291785D01*
X145952914Y-106291785D02*
X145857676Y-106244166D01*
X145857676Y-106244166D02*
X145762438Y-106148928D01*
X145762438Y-106148928D02*
X145714819Y-106006071D01*
X145714819Y-106006071D02*
X145714819Y-105910833D01*
X145714819Y-105910833D02*
X145762438Y-105767976D01*
X145762438Y-105767976D02*
X145810057Y-105720357D01*
X146714819Y-104767976D02*
X146714819Y-105339404D01*
X146714819Y-105053690D02*
X145714819Y-105053690D01*
X145714819Y-105053690D02*
X145857676Y-105148928D01*
X145857676Y-105148928D02*
X145952914Y-105244166D01*
X145952914Y-105244166D02*
X146000533Y-105339404D01*
X146714819Y-103815595D02*
X146714819Y-104387023D01*
X146714819Y-104101309D02*
X145714819Y-104101309D01*
X145714819Y-104101309D02*
X145857676Y-104196547D01*
X145857676Y-104196547D02*
X145952914Y-104291785D01*
X145952914Y-104291785D02*
X146000533Y-104387023D01*
X98839580Y-81190357D02*
X98887200Y-81237976D01*
X98887200Y-81237976D02*
X98934819Y-81380833D01*
X98934819Y-81380833D02*
X98934819Y-81476071D01*
X98934819Y-81476071D02*
X98887200Y-81618928D01*
X98887200Y-81618928D02*
X98791961Y-81714166D01*
X98791961Y-81714166D02*
X98696723Y-81761785D01*
X98696723Y-81761785D02*
X98506247Y-81809404D01*
X98506247Y-81809404D02*
X98363390Y-81809404D01*
X98363390Y-81809404D02*
X98172914Y-81761785D01*
X98172914Y-81761785D02*
X98077676Y-81714166D01*
X98077676Y-81714166D02*
X97982438Y-81618928D01*
X97982438Y-81618928D02*
X97934819Y-81476071D01*
X97934819Y-81476071D02*
X97934819Y-81380833D01*
X97934819Y-81380833D02*
X97982438Y-81237976D01*
X97982438Y-81237976D02*
X98030057Y-81190357D01*
X98934819Y-80237976D02*
X98934819Y-80809404D01*
X98934819Y-80523690D02*
X97934819Y-80523690D01*
X97934819Y-80523690D02*
X98077676Y-80618928D01*
X98077676Y-80618928D02*
X98172914Y-80714166D01*
X98172914Y-80714166D02*
X98220533Y-80809404D01*
X97934819Y-79904642D02*
X97934819Y-79285595D01*
X97934819Y-79285595D02*
X98315771Y-79618928D01*
X98315771Y-79618928D02*
X98315771Y-79476071D01*
X98315771Y-79476071D02*
X98363390Y-79380833D01*
X98363390Y-79380833D02*
X98411009Y-79333214D01*
X98411009Y-79333214D02*
X98506247Y-79285595D01*
X98506247Y-79285595D02*
X98744342Y-79285595D01*
X98744342Y-79285595D02*
X98839580Y-79333214D01*
X98839580Y-79333214D02*
X98887200Y-79380833D01*
X98887200Y-79380833D02*
X98934819Y-79476071D01*
X98934819Y-79476071D02*
X98934819Y-79761785D01*
X98934819Y-79761785D02*
X98887200Y-79857023D01*
X98887200Y-79857023D02*
X98839580Y-79904642D01*
X112114819Y-64292738D02*
X111638628Y-64626071D01*
X112114819Y-64864166D02*
X111114819Y-64864166D01*
X111114819Y-64864166D02*
X111114819Y-64483214D01*
X111114819Y-64483214D02*
X111162438Y-64387976D01*
X111162438Y-64387976D02*
X111210057Y-64340357D01*
X111210057Y-64340357D02*
X111305295Y-64292738D01*
X111305295Y-64292738D02*
X111448152Y-64292738D01*
X111448152Y-64292738D02*
X111543390Y-64340357D01*
X111543390Y-64340357D02*
X111591009Y-64387976D01*
X111591009Y-64387976D02*
X111638628Y-64483214D01*
X111638628Y-64483214D02*
X111638628Y-64864166D01*
X111114819Y-64007023D02*
X112114819Y-63673690D01*
X112114819Y-63673690D02*
X111114819Y-63340357D01*
X111114819Y-62530833D02*
X111114819Y-63007023D01*
X111114819Y-63007023D02*
X111591009Y-63054642D01*
X111591009Y-63054642D02*
X111543390Y-63007023D01*
X111543390Y-63007023D02*
X111495771Y-62911785D01*
X111495771Y-62911785D02*
X111495771Y-62673690D01*
X111495771Y-62673690D02*
X111543390Y-62578452D01*
X111543390Y-62578452D02*
X111591009Y-62530833D01*
X111591009Y-62530833D02*
X111686247Y-62483214D01*
X111686247Y-62483214D02*
X111924342Y-62483214D01*
X111924342Y-62483214D02*
X112019580Y-62530833D01*
X112019580Y-62530833D02*
X112067200Y-62578452D01*
X112067200Y-62578452D02*
X112114819Y-62673690D01*
X112114819Y-62673690D02*
X112114819Y-62911785D01*
X112114819Y-62911785D02*
X112067200Y-63007023D01*
X112067200Y-63007023D02*
X112019580Y-63054642D01*
X109994580Y-186670357D02*
X110042200Y-186717976D01*
X110042200Y-186717976D02*
X110089819Y-186860833D01*
X110089819Y-186860833D02*
X110089819Y-186956071D01*
X110089819Y-186956071D02*
X110042200Y-187098928D01*
X110042200Y-187098928D02*
X109946961Y-187194166D01*
X109946961Y-187194166D02*
X109851723Y-187241785D01*
X109851723Y-187241785D02*
X109661247Y-187289404D01*
X109661247Y-187289404D02*
X109518390Y-187289404D01*
X109518390Y-187289404D02*
X109327914Y-187241785D01*
X109327914Y-187241785D02*
X109232676Y-187194166D01*
X109232676Y-187194166D02*
X109137438Y-187098928D01*
X109137438Y-187098928D02*
X109089819Y-186956071D01*
X109089819Y-186956071D02*
X109089819Y-186860833D01*
X109089819Y-186860833D02*
X109137438Y-186717976D01*
X109137438Y-186717976D02*
X109185057Y-186670357D01*
X110089819Y-185717976D02*
X110089819Y-186289404D01*
X110089819Y-186003690D02*
X109089819Y-186003690D01*
X109089819Y-186003690D02*
X109232676Y-186098928D01*
X109232676Y-186098928D02*
X109327914Y-186194166D01*
X109327914Y-186194166D02*
X109375533Y-186289404D01*
X109089819Y-185384642D02*
X109089819Y-184717976D01*
X109089819Y-184717976D02*
X110089819Y-185146547D01*
X151468095Y-136552319D02*
X151468095Y-137361842D01*
X151468095Y-137361842D02*
X151515714Y-137457080D01*
X151515714Y-137457080D02*
X151563333Y-137504700D01*
X151563333Y-137504700D02*
X151658571Y-137552319D01*
X151658571Y-137552319D02*
X151849047Y-137552319D01*
X151849047Y-137552319D02*
X151944285Y-137504700D01*
X151944285Y-137504700D02*
X151991904Y-137457080D01*
X151991904Y-137457080D02*
X152039523Y-137361842D01*
X152039523Y-137361842D02*
X152039523Y-136552319D01*
X153039523Y-137552319D02*
X152468095Y-137552319D01*
X152753809Y-137552319D02*
X152753809Y-136552319D01*
X152753809Y-136552319D02*
X152658571Y-136695176D01*
X152658571Y-136695176D02*
X152563333Y-136790414D01*
X152563333Y-136790414D02*
X152468095Y-136838033D01*
X163364819Y-200861785D02*
X162364819Y-200861785D01*
X162364819Y-200861785D02*
X162364819Y-200623690D01*
X162364819Y-200623690D02*
X162412438Y-200480833D01*
X162412438Y-200480833D02*
X162507676Y-200385595D01*
X162507676Y-200385595D02*
X162602914Y-200337976D01*
X162602914Y-200337976D02*
X162793390Y-200290357D01*
X162793390Y-200290357D02*
X162936247Y-200290357D01*
X162936247Y-200290357D02*
X163126723Y-200337976D01*
X163126723Y-200337976D02*
X163221961Y-200385595D01*
X163221961Y-200385595D02*
X163317200Y-200480833D01*
X163317200Y-200480833D02*
X163364819Y-200623690D01*
X163364819Y-200623690D02*
X163364819Y-200861785D01*
X163364819Y-199337976D02*
X163364819Y-199909404D01*
X163364819Y-199623690D02*
X162364819Y-199623690D01*
X162364819Y-199623690D02*
X162507676Y-199718928D01*
X162507676Y-199718928D02*
X162602914Y-199814166D01*
X162602914Y-199814166D02*
X162650533Y-199909404D01*
X162364819Y-198718928D02*
X162364819Y-198623690D01*
X162364819Y-198623690D02*
X162412438Y-198528452D01*
X162412438Y-198528452D02*
X162460057Y-198480833D01*
X162460057Y-198480833D02*
X162555295Y-198433214D01*
X162555295Y-198433214D02*
X162745771Y-198385595D01*
X162745771Y-198385595D02*
X162983866Y-198385595D01*
X162983866Y-198385595D02*
X163174342Y-198433214D01*
X163174342Y-198433214D02*
X163269580Y-198480833D01*
X163269580Y-198480833D02*
X163317200Y-198528452D01*
X163317200Y-198528452D02*
X163364819Y-198623690D01*
X163364819Y-198623690D02*
X163364819Y-198718928D01*
X163364819Y-198718928D02*
X163317200Y-198814166D01*
X163317200Y-198814166D02*
X163269580Y-198861785D01*
X163269580Y-198861785D02*
X163174342Y-198909404D01*
X163174342Y-198909404D02*
X162983866Y-198957023D01*
X162983866Y-198957023D02*
X162745771Y-198957023D01*
X162745771Y-198957023D02*
X162555295Y-198909404D01*
X162555295Y-198909404D02*
X162460057Y-198861785D01*
X162460057Y-198861785D02*
X162412438Y-198814166D01*
X162412438Y-198814166D02*
X162364819Y-198718928D01*
X229714819Y-153740833D02*
X230429104Y-153740833D01*
X230429104Y-153740833D02*
X230571961Y-153788452D01*
X230571961Y-153788452D02*
X230667200Y-153883690D01*
X230667200Y-153883690D02*
X230714819Y-154026547D01*
X230714819Y-154026547D02*
X230714819Y-154121785D01*
X229810057Y-153312261D02*
X229762438Y-153264642D01*
X229762438Y-153264642D02*
X229714819Y-153169404D01*
X229714819Y-153169404D02*
X229714819Y-152931309D01*
X229714819Y-152931309D02*
X229762438Y-152836071D01*
X229762438Y-152836071D02*
X229810057Y-152788452D01*
X229810057Y-152788452D02*
X229905295Y-152740833D01*
X229905295Y-152740833D02*
X230000533Y-152740833D01*
X230000533Y-152740833D02*
X230143390Y-152788452D01*
X230143390Y-152788452D02*
X230714819Y-153359880D01*
X230714819Y-153359880D02*
X230714819Y-152740833D01*
X125199819Y-110167738D02*
X124723628Y-110501071D01*
X125199819Y-110739166D02*
X124199819Y-110739166D01*
X124199819Y-110739166D02*
X124199819Y-110358214D01*
X124199819Y-110358214D02*
X124247438Y-110262976D01*
X124247438Y-110262976D02*
X124295057Y-110215357D01*
X124295057Y-110215357D02*
X124390295Y-110167738D01*
X124390295Y-110167738D02*
X124533152Y-110167738D01*
X124533152Y-110167738D02*
X124628390Y-110215357D01*
X124628390Y-110215357D02*
X124676009Y-110262976D01*
X124676009Y-110262976D02*
X124723628Y-110358214D01*
X124723628Y-110358214D02*
X124723628Y-110739166D01*
X124199819Y-109882023D02*
X125199819Y-109548690D01*
X125199819Y-109548690D02*
X124199819Y-109215357D01*
X124199819Y-108977261D02*
X124199819Y-108358214D01*
X124199819Y-108358214D02*
X124580771Y-108691547D01*
X124580771Y-108691547D02*
X124580771Y-108548690D01*
X124580771Y-108548690D02*
X124628390Y-108453452D01*
X124628390Y-108453452D02*
X124676009Y-108405833D01*
X124676009Y-108405833D02*
X124771247Y-108358214D01*
X124771247Y-108358214D02*
X125009342Y-108358214D01*
X125009342Y-108358214D02*
X125104580Y-108405833D01*
X125104580Y-108405833D02*
X125152200Y-108453452D01*
X125152200Y-108453452D02*
X125199819Y-108548690D01*
X125199819Y-108548690D02*
X125199819Y-108834404D01*
X125199819Y-108834404D02*
X125152200Y-108929642D01*
X125152200Y-108929642D02*
X125104580Y-108977261D01*
X135193333Y-146367080D02*
X135145714Y-146414700D01*
X135145714Y-146414700D02*
X135002857Y-146462319D01*
X135002857Y-146462319D02*
X134907619Y-146462319D01*
X134907619Y-146462319D02*
X134764762Y-146414700D01*
X134764762Y-146414700D02*
X134669524Y-146319461D01*
X134669524Y-146319461D02*
X134621905Y-146224223D01*
X134621905Y-146224223D02*
X134574286Y-146033747D01*
X134574286Y-146033747D02*
X134574286Y-145890890D01*
X134574286Y-145890890D02*
X134621905Y-145700414D01*
X134621905Y-145700414D02*
X134669524Y-145605176D01*
X134669524Y-145605176D02*
X134764762Y-145509938D01*
X134764762Y-145509938D02*
X134907619Y-145462319D01*
X134907619Y-145462319D02*
X135002857Y-145462319D01*
X135002857Y-145462319D02*
X135145714Y-145509938D01*
X135145714Y-145509938D02*
X135193333Y-145557557D01*
X135526667Y-145462319D02*
X136145714Y-145462319D01*
X136145714Y-145462319D02*
X135812381Y-145843271D01*
X135812381Y-145843271D02*
X135955238Y-145843271D01*
X135955238Y-145843271D02*
X136050476Y-145890890D01*
X136050476Y-145890890D02*
X136098095Y-145938509D01*
X136098095Y-145938509D02*
X136145714Y-146033747D01*
X136145714Y-146033747D02*
X136145714Y-146271842D01*
X136145714Y-146271842D02*
X136098095Y-146367080D01*
X136098095Y-146367080D02*
X136050476Y-146414700D01*
X136050476Y-146414700D02*
X135955238Y-146462319D01*
X135955238Y-146462319D02*
X135669524Y-146462319D01*
X135669524Y-146462319D02*
X135574286Y-146414700D01*
X135574286Y-146414700D02*
X135526667Y-146367080D01*
X133156666Y-223992319D02*
X133156666Y-224706604D01*
X133156666Y-224706604D02*
X133109047Y-224849461D01*
X133109047Y-224849461D02*
X133013809Y-224944700D01*
X133013809Y-224944700D02*
X132870952Y-224992319D01*
X132870952Y-224992319D02*
X132775714Y-224992319D01*
X134109047Y-223992319D02*
X133632857Y-223992319D01*
X133632857Y-223992319D02*
X133585238Y-224468509D01*
X133585238Y-224468509D02*
X133632857Y-224420890D01*
X133632857Y-224420890D02*
X133728095Y-224373271D01*
X133728095Y-224373271D02*
X133966190Y-224373271D01*
X133966190Y-224373271D02*
X134061428Y-224420890D01*
X134061428Y-224420890D02*
X134109047Y-224468509D01*
X134109047Y-224468509D02*
X134156666Y-224563747D01*
X134156666Y-224563747D02*
X134156666Y-224801842D01*
X134156666Y-224801842D02*
X134109047Y-224897080D01*
X134109047Y-224897080D02*
X134061428Y-224944700D01*
X134061428Y-224944700D02*
X133966190Y-224992319D01*
X133966190Y-224992319D02*
X133728095Y-224992319D01*
X133728095Y-224992319D02*
X133632857Y-224944700D01*
X133632857Y-224944700D02*
X133585238Y-224897080D01*
X128015476Y-124647319D02*
X128015476Y-125361604D01*
X128015476Y-125361604D02*
X127967857Y-125504461D01*
X127967857Y-125504461D02*
X127872619Y-125599700D01*
X127872619Y-125599700D02*
X127729762Y-125647319D01*
X127729762Y-125647319D02*
X127634524Y-125647319D01*
X129015476Y-125647319D02*
X128444048Y-125647319D01*
X128729762Y-125647319D02*
X128729762Y-124647319D01*
X128729762Y-124647319D02*
X128634524Y-124790176D01*
X128634524Y-124790176D02*
X128539286Y-124885414D01*
X128539286Y-124885414D02*
X128444048Y-124933033D01*
X129396429Y-124742557D02*
X129444048Y-124694938D01*
X129444048Y-124694938D02*
X129539286Y-124647319D01*
X129539286Y-124647319D02*
X129777381Y-124647319D01*
X129777381Y-124647319D02*
X129872619Y-124694938D01*
X129872619Y-124694938D02*
X129920238Y-124742557D01*
X129920238Y-124742557D02*
X129967857Y-124837795D01*
X129967857Y-124837795D02*
X129967857Y-124933033D01*
X129967857Y-124933033D02*
X129920238Y-125075890D01*
X129920238Y-125075890D02*
X129348810Y-125647319D01*
X129348810Y-125647319D02*
X129967857Y-125647319D01*
X229664819Y-169940833D02*
X230379104Y-169940833D01*
X230379104Y-169940833D02*
X230521961Y-169988452D01*
X230521961Y-169988452D02*
X230617200Y-170083690D01*
X230617200Y-170083690D02*
X230664819Y-170226547D01*
X230664819Y-170226547D02*
X230664819Y-170321785D01*
X230664819Y-168940833D02*
X230664819Y-169512261D01*
X230664819Y-169226547D02*
X229664819Y-169226547D01*
X229664819Y-169226547D02*
X229807676Y-169321785D01*
X229807676Y-169321785D02*
X229902914Y-169417023D01*
X229902914Y-169417023D02*
X229950533Y-169512261D01*
X117771905Y-57362319D02*
X117771905Y-58171842D01*
X117771905Y-58171842D02*
X117819524Y-58267080D01*
X117819524Y-58267080D02*
X117867143Y-58314700D01*
X117867143Y-58314700D02*
X117962381Y-58362319D01*
X117962381Y-58362319D02*
X118152857Y-58362319D01*
X118152857Y-58362319D02*
X118248095Y-58314700D01*
X118248095Y-58314700D02*
X118295714Y-58267080D01*
X118295714Y-58267080D02*
X118343333Y-58171842D01*
X118343333Y-58171842D02*
X118343333Y-57362319D01*
X119343333Y-58362319D02*
X118771905Y-58362319D01*
X119057619Y-58362319D02*
X119057619Y-57362319D01*
X119057619Y-57362319D02*
X118962381Y-57505176D01*
X118962381Y-57505176D02*
X118867143Y-57600414D01*
X118867143Y-57600414D02*
X118771905Y-57648033D01*
X119962381Y-57362319D02*
X120057619Y-57362319D01*
X120057619Y-57362319D02*
X120152857Y-57409938D01*
X120152857Y-57409938D02*
X120200476Y-57457557D01*
X120200476Y-57457557D02*
X120248095Y-57552795D01*
X120248095Y-57552795D02*
X120295714Y-57743271D01*
X120295714Y-57743271D02*
X120295714Y-57981366D01*
X120295714Y-57981366D02*
X120248095Y-58171842D01*
X120248095Y-58171842D02*
X120200476Y-58267080D01*
X120200476Y-58267080D02*
X120152857Y-58314700D01*
X120152857Y-58314700D02*
X120057619Y-58362319D01*
X120057619Y-58362319D02*
X119962381Y-58362319D01*
X119962381Y-58362319D02*
X119867143Y-58314700D01*
X119867143Y-58314700D02*
X119819524Y-58267080D01*
X119819524Y-58267080D02*
X119771905Y-58171842D01*
X119771905Y-58171842D02*
X119724286Y-57981366D01*
X119724286Y-57981366D02*
X119724286Y-57743271D01*
X119724286Y-57743271D02*
X119771905Y-57552795D01*
X119771905Y-57552795D02*
X119819524Y-57457557D01*
X119819524Y-57457557D02*
X119867143Y-57409938D01*
X119867143Y-57409938D02*
X119962381Y-57362319D01*
X84527200Y-93390832D02*
X84574819Y-93247975D01*
X84574819Y-93247975D02*
X84574819Y-93009880D01*
X84574819Y-93009880D02*
X84527200Y-92914642D01*
X84527200Y-92914642D02*
X84479580Y-92867023D01*
X84479580Y-92867023D02*
X84384342Y-92819404D01*
X84384342Y-92819404D02*
X84289104Y-92819404D01*
X84289104Y-92819404D02*
X84193866Y-92867023D01*
X84193866Y-92867023D02*
X84146247Y-92914642D01*
X84146247Y-92914642D02*
X84098628Y-93009880D01*
X84098628Y-93009880D02*
X84051009Y-93200356D01*
X84051009Y-93200356D02*
X84003390Y-93295594D01*
X84003390Y-93295594D02*
X83955771Y-93343213D01*
X83955771Y-93343213D02*
X83860533Y-93390832D01*
X83860533Y-93390832D02*
X83765295Y-93390832D01*
X83765295Y-93390832D02*
X83670057Y-93343213D01*
X83670057Y-93343213D02*
X83622438Y-93295594D01*
X83622438Y-93295594D02*
X83574819Y-93200356D01*
X83574819Y-93200356D02*
X83574819Y-92962261D01*
X83574819Y-92962261D02*
X83622438Y-92819404D01*
X83574819Y-92486070D02*
X84574819Y-92247975D01*
X84574819Y-92247975D02*
X83860533Y-92057499D01*
X83860533Y-92057499D02*
X84574819Y-91867023D01*
X84574819Y-91867023D02*
X83574819Y-91628928D01*
X83908152Y-90819404D02*
X84574819Y-90819404D01*
X83527200Y-91057499D02*
X84241485Y-91295594D01*
X84241485Y-91295594D02*
X84241485Y-90676547D01*
X229714819Y-120940833D02*
X230429104Y-120940833D01*
X230429104Y-120940833D02*
X230571961Y-120988452D01*
X230571961Y-120988452D02*
X230667200Y-121083690D01*
X230667200Y-121083690D02*
X230714819Y-121226547D01*
X230714819Y-121226547D02*
X230714819Y-121321785D01*
X230048152Y-120036071D02*
X230714819Y-120036071D01*
X229667200Y-120274166D02*
X230381485Y-120512261D01*
X230381485Y-120512261D02*
X230381485Y-119893214D01*
X137574819Y-197524166D02*
X137098628Y-197857499D01*
X137574819Y-198095594D02*
X136574819Y-198095594D01*
X136574819Y-198095594D02*
X136574819Y-197714642D01*
X136574819Y-197714642D02*
X136622438Y-197619404D01*
X136622438Y-197619404D02*
X136670057Y-197571785D01*
X136670057Y-197571785D02*
X136765295Y-197524166D01*
X136765295Y-197524166D02*
X136908152Y-197524166D01*
X136908152Y-197524166D02*
X137003390Y-197571785D01*
X137003390Y-197571785D02*
X137051009Y-197619404D01*
X137051009Y-197619404D02*
X137098628Y-197714642D01*
X137098628Y-197714642D02*
X137098628Y-198095594D01*
X137003390Y-196952737D02*
X136955771Y-197047975D01*
X136955771Y-197047975D02*
X136908152Y-197095594D01*
X136908152Y-197095594D02*
X136812914Y-197143213D01*
X136812914Y-197143213D02*
X136765295Y-197143213D01*
X136765295Y-197143213D02*
X136670057Y-197095594D01*
X136670057Y-197095594D02*
X136622438Y-197047975D01*
X136622438Y-197047975D02*
X136574819Y-196952737D01*
X136574819Y-196952737D02*
X136574819Y-196762261D01*
X136574819Y-196762261D02*
X136622438Y-196667023D01*
X136622438Y-196667023D02*
X136670057Y-196619404D01*
X136670057Y-196619404D02*
X136765295Y-196571785D01*
X136765295Y-196571785D02*
X136812914Y-196571785D01*
X136812914Y-196571785D02*
X136908152Y-196619404D01*
X136908152Y-196619404D02*
X136955771Y-196667023D01*
X136955771Y-196667023D02*
X137003390Y-196762261D01*
X137003390Y-196762261D02*
X137003390Y-196952737D01*
X137003390Y-196952737D02*
X137051009Y-197047975D01*
X137051009Y-197047975D02*
X137098628Y-197095594D01*
X137098628Y-197095594D02*
X137193866Y-197143213D01*
X137193866Y-197143213D02*
X137384342Y-197143213D01*
X137384342Y-197143213D02*
X137479580Y-197095594D01*
X137479580Y-197095594D02*
X137527200Y-197047975D01*
X137527200Y-197047975D02*
X137574819Y-196952737D01*
X137574819Y-196952737D02*
X137574819Y-196762261D01*
X137574819Y-196762261D02*
X137527200Y-196667023D01*
X137527200Y-196667023D02*
X137479580Y-196619404D01*
X137479580Y-196619404D02*
X137384342Y-196571785D01*
X137384342Y-196571785D02*
X137193866Y-196571785D01*
X137193866Y-196571785D02*
X137098628Y-196619404D01*
X137098628Y-196619404D02*
X137051009Y-196667023D01*
X137051009Y-196667023D02*
X137003390Y-196762261D01*
X230714819Y-160245594D02*
X229714819Y-160245594D01*
X230714819Y-159674166D02*
X230143390Y-160102737D01*
X229714819Y-159674166D02*
X230286247Y-160245594D01*
X229810057Y-159293213D02*
X229762438Y-159245594D01*
X229762438Y-159245594D02*
X229714819Y-159150356D01*
X229714819Y-159150356D02*
X229714819Y-158912261D01*
X229714819Y-158912261D02*
X229762438Y-158817023D01*
X229762438Y-158817023D02*
X229810057Y-158769404D01*
X229810057Y-158769404D02*
X229905295Y-158721785D01*
X229905295Y-158721785D02*
X230000533Y-158721785D01*
X230000533Y-158721785D02*
X230143390Y-158769404D01*
X230143390Y-158769404D02*
X230714819Y-159340832D01*
X230714819Y-159340832D02*
X230714819Y-158721785D01*
X77994819Y-218447023D02*
X78709104Y-218447023D01*
X78709104Y-218447023D02*
X78851961Y-218494642D01*
X78851961Y-218494642D02*
X78947200Y-218589880D01*
X78947200Y-218589880D02*
X78994819Y-218732737D01*
X78994819Y-218732737D02*
X78994819Y-218827975D01*
X78994819Y-217447023D02*
X78994819Y-218018451D01*
X78994819Y-217732737D02*
X77994819Y-217732737D01*
X77994819Y-217732737D02*
X78137676Y-217827975D01*
X78137676Y-217827975D02*
X78232914Y-217923213D01*
X78232914Y-217923213D02*
X78280533Y-218018451D01*
X78994819Y-216494642D02*
X78994819Y-217066070D01*
X78994819Y-216780356D02*
X77994819Y-216780356D01*
X77994819Y-216780356D02*
X78137676Y-216875594D01*
X78137676Y-216875594D02*
X78232914Y-216970832D01*
X78232914Y-216970832D02*
X78280533Y-217066070D01*
X92927200Y-93390832D02*
X92974819Y-93247975D01*
X92974819Y-93247975D02*
X92974819Y-93009880D01*
X92974819Y-93009880D02*
X92927200Y-92914642D01*
X92927200Y-92914642D02*
X92879580Y-92867023D01*
X92879580Y-92867023D02*
X92784342Y-92819404D01*
X92784342Y-92819404D02*
X92689104Y-92819404D01*
X92689104Y-92819404D02*
X92593866Y-92867023D01*
X92593866Y-92867023D02*
X92546247Y-92914642D01*
X92546247Y-92914642D02*
X92498628Y-93009880D01*
X92498628Y-93009880D02*
X92451009Y-93200356D01*
X92451009Y-93200356D02*
X92403390Y-93295594D01*
X92403390Y-93295594D02*
X92355771Y-93343213D01*
X92355771Y-93343213D02*
X92260533Y-93390832D01*
X92260533Y-93390832D02*
X92165295Y-93390832D01*
X92165295Y-93390832D02*
X92070057Y-93343213D01*
X92070057Y-93343213D02*
X92022438Y-93295594D01*
X92022438Y-93295594D02*
X91974819Y-93200356D01*
X91974819Y-93200356D02*
X91974819Y-92962261D01*
X91974819Y-92962261D02*
X92022438Y-92819404D01*
X91974819Y-92486070D02*
X92974819Y-92247975D01*
X92974819Y-92247975D02*
X92260533Y-92057499D01*
X92260533Y-92057499D02*
X92974819Y-91867023D01*
X92974819Y-91867023D02*
X91974819Y-91628928D01*
X91974819Y-90771785D02*
X91974819Y-91247975D01*
X91974819Y-91247975D02*
X92451009Y-91295594D01*
X92451009Y-91295594D02*
X92403390Y-91247975D01*
X92403390Y-91247975D02*
X92355771Y-91152737D01*
X92355771Y-91152737D02*
X92355771Y-90914642D01*
X92355771Y-90914642D02*
X92403390Y-90819404D01*
X92403390Y-90819404D02*
X92451009Y-90771785D01*
X92451009Y-90771785D02*
X92546247Y-90724166D01*
X92546247Y-90724166D02*
X92784342Y-90724166D01*
X92784342Y-90724166D02*
X92879580Y-90771785D01*
X92879580Y-90771785D02*
X92927200Y-90819404D01*
X92927200Y-90819404D02*
X92974819Y-90914642D01*
X92974819Y-90914642D02*
X92974819Y-91152737D01*
X92974819Y-91152737D02*
X92927200Y-91247975D01*
X92927200Y-91247975D02*
X92879580Y-91295594D01*
X157874819Y-210214404D02*
X158684342Y-210214404D01*
X158684342Y-210214404D02*
X158779580Y-210166785D01*
X158779580Y-210166785D02*
X158827200Y-210119166D01*
X158827200Y-210119166D02*
X158874819Y-210023928D01*
X158874819Y-210023928D02*
X158874819Y-209833452D01*
X158874819Y-209833452D02*
X158827200Y-209738214D01*
X158827200Y-209738214D02*
X158779580Y-209690595D01*
X158779580Y-209690595D02*
X158684342Y-209642976D01*
X158684342Y-209642976D02*
X157874819Y-209642976D01*
X158208152Y-208738214D02*
X158874819Y-208738214D01*
X157827200Y-208976309D02*
X158541485Y-209214404D01*
X158541485Y-209214404D02*
X158541485Y-208595357D01*
X203914819Y-155705594D02*
X202914819Y-155705594D01*
X202914819Y-155705594D02*
X202914819Y-155467499D01*
X202914819Y-155467499D02*
X202962438Y-155324642D01*
X202962438Y-155324642D02*
X203057676Y-155229404D01*
X203057676Y-155229404D02*
X203152914Y-155181785D01*
X203152914Y-155181785D02*
X203343390Y-155134166D01*
X203343390Y-155134166D02*
X203486247Y-155134166D01*
X203486247Y-155134166D02*
X203676723Y-155181785D01*
X203676723Y-155181785D02*
X203771961Y-155229404D01*
X203771961Y-155229404D02*
X203867200Y-155324642D01*
X203867200Y-155324642D02*
X203914819Y-155467499D01*
X203914819Y-155467499D02*
X203914819Y-155705594D01*
X203010057Y-154753213D02*
X202962438Y-154705594D01*
X202962438Y-154705594D02*
X202914819Y-154610356D01*
X202914819Y-154610356D02*
X202914819Y-154372261D01*
X202914819Y-154372261D02*
X202962438Y-154277023D01*
X202962438Y-154277023D02*
X203010057Y-154229404D01*
X203010057Y-154229404D02*
X203105295Y-154181785D01*
X203105295Y-154181785D02*
X203200533Y-154181785D01*
X203200533Y-154181785D02*
X203343390Y-154229404D01*
X203343390Y-154229404D02*
X203914819Y-154800832D01*
X203914819Y-154800832D02*
X203914819Y-154181785D01*
X203914819Y-151419404D02*
X202914819Y-151419404D01*
X203914819Y-150847976D02*
X203343390Y-151276547D01*
X202914819Y-150847976D02*
X203486247Y-151419404D01*
X67727200Y-121767023D02*
X67774819Y-121624166D01*
X67774819Y-121624166D02*
X67774819Y-121386071D01*
X67774819Y-121386071D02*
X67727200Y-121290833D01*
X67727200Y-121290833D02*
X67679580Y-121243214D01*
X67679580Y-121243214D02*
X67584342Y-121195595D01*
X67584342Y-121195595D02*
X67489104Y-121195595D01*
X67489104Y-121195595D02*
X67393866Y-121243214D01*
X67393866Y-121243214D02*
X67346247Y-121290833D01*
X67346247Y-121290833D02*
X67298628Y-121386071D01*
X67298628Y-121386071D02*
X67251009Y-121576547D01*
X67251009Y-121576547D02*
X67203390Y-121671785D01*
X67203390Y-121671785D02*
X67155771Y-121719404D01*
X67155771Y-121719404D02*
X67060533Y-121767023D01*
X67060533Y-121767023D02*
X66965295Y-121767023D01*
X66965295Y-121767023D02*
X66870057Y-121719404D01*
X66870057Y-121719404D02*
X66822438Y-121671785D01*
X66822438Y-121671785D02*
X66774819Y-121576547D01*
X66774819Y-121576547D02*
X66774819Y-121338452D01*
X66774819Y-121338452D02*
X66822438Y-121195595D01*
X66774819Y-120862261D02*
X67774819Y-120624166D01*
X67774819Y-120624166D02*
X67060533Y-120433690D01*
X67060533Y-120433690D02*
X67774819Y-120243214D01*
X67774819Y-120243214D02*
X66774819Y-120005119D01*
X67774819Y-119100357D02*
X67774819Y-119671785D01*
X67774819Y-119386071D02*
X66774819Y-119386071D01*
X66774819Y-119386071D02*
X66917676Y-119481309D01*
X66917676Y-119481309D02*
X67012914Y-119576547D01*
X67012914Y-119576547D02*
X67060533Y-119671785D01*
X67108152Y-118243214D02*
X67774819Y-118243214D01*
X66727200Y-118481309D02*
X67441485Y-118719404D01*
X67441485Y-118719404D02*
X67441485Y-118100357D01*
X117394819Y-160590833D02*
X118109104Y-160590833D01*
X118109104Y-160590833D02*
X118251961Y-160638452D01*
X118251961Y-160638452D02*
X118347200Y-160733690D01*
X118347200Y-160733690D02*
X118394819Y-160876547D01*
X118394819Y-160876547D02*
X118394819Y-160971785D01*
X118394819Y-160067023D02*
X118394819Y-159876547D01*
X118394819Y-159876547D02*
X118347200Y-159781309D01*
X118347200Y-159781309D02*
X118299580Y-159733690D01*
X118299580Y-159733690D02*
X118156723Y-159638452D01*
X118156723Y-159638452D02*
X117966247Y-159590833D01*
X117966247Y-159590833D02*
X117585295Y-159590833D01*
X117585295Y-159590833D02*
X117490057Y-159638452D01*
X117490057Y-159638452D02*
X117442438Y-159686071D01*
X117442438Y-159686071D02*
X117394819Y-159781309D01*
X117394819Y-159781309D02*
X117394819Y-159971785D01*
X117394819Y-159971785D02*
X117442438Y-160067023D01*
X117442438Y-160067023D02*
X117490057Y-160114642D01*
X117490057Y-160114642D02*
X117585295Y-160162261D01*
X117585295Y-160162261D02*
X117823390Y-160162261D01*
X117823390Y-160162261D02*
X117918628Y-160114642D01*
X117918628Y-160114642D02*
X117966247Y-160067023D01*
X117966247Y-160067023D02*
X118013866Y-159971785D01*
X118013866Y-159971785D02*
X118013866Y-159781309D01*
X118013866Y-159781309D02*
X117966247Y-159686071D01*
X117966247Y-159686071D02*
X117918628Y-159638452D01*
X117918628Y-159638452D02*
X117823390Y-159590833D01*
X124305476Y-124647319D02*
X124305476Y-125361604D01*
X124305476Y-125361604D02*
X124257857Y-125504461D01*
X124257857Y-125504461D02*
X124162619Y-125599700D01*
X124162619Y-125599700D02*
X124019762Y-125647319D01*
X124019762Y-125647319D02*
X123924524Y-125647319D01*
X125305476Y-125647319D02*
X124734048Y-125647319D01*
X125019762Y-125647319D02*
X125019762Y-124647319D01*
X125019762Y-124647319D02*
X124924524Y-124790176D01*
X124924524Y-124790176D02*
X124829286Y-124885414D01*
X124829286Y-124885414D02*
X124734048Y-124933033D01*
X125924524Y-124647319D02*
X126019762Y-124647319D01*
X126019762Y-124647319D02*
X126115000Y-124694938D01*
X126115000Y-124694938D02*
X126162619Y-124742557D01*
X126162619Y-124742557D02*
X126210238Y-124837795D01*
X126210238Y-124837795D02*
X126257857Y-125028271D01*
X126257857Y-125028271D02*
X126257857Y-125266366D01*
X126257857Y-125266366D02*
X126210238Y-125456842D01*
X126210238Y-125456842D02*
X126162619Y-125552080D01*
X126162619Y-125552080D02*
X126115000Y-125599700D01*
X126115000Y-125599700D02*
X126019762Y-125647319D01*
X126019762Y-125647319D02*
X125924524Y-125647319D01*
X125924524Y-125647319D02*
X125829286Y-125599700D01*
X125829286Y-125599700D02*
X125781667Y-125552080D01*
X125781667Y-125552080D02*
X125734048Y-125456842D01*
X125734048Y-125456842D02*
X125686429Y-125266366D01*
X125686429Y-125266366D02*
X125686429Y-125028271D01*
X125686429Y-125028271D02*
X125734048Y-124837795D01*
X125734048Y-124837795D02*
X125781667Y-124742557D01*
X125781667Y-124742557D02*
X125829286Y-124694938D01*
X125829286Y-124694938D02*
X125924524Y-124647319D01*
X80814819Y-190550357D02*
X80338628Y-190883690D01*
X80814819Y-191121785D02*
X79814819Y-191121785D01*
X79814819Y-191121785D02*
X79814819Y-190740833D01*
X79814819Y-190740833D02*
X79862438Y-190645595D01*
X79862438Y-190645595D02*
X79910057Y-190597976D01*
X79910057Y-190597976D02*
X80005295Y-190550357D01*
X80005295Y-190550357D02*
X80148152Y-190550357D01*
X80148152Y-190550357D02*
X80243390Y-190597976D01*
X80243390Y-190597976D02*
X80291009Y-190645595D01*
X80291009Y-190645595D02*
X80338628Y-190740833D01*
X80338628Y-190740833D02*
X80338628Y-191121785D01*
X79910057Y-190169404D02*
X79862438Y-190121785D01*
X79862438Y-190121785D02*
X79814819Y-190026547D01*
X79814819Y-190026547D02*
X79814819Y-189788452D01*
X79814819Y-189788452D02*
X79862438Y-189693214D01*
X79862438Y-189693214D02*
X79910057Y-189645595D01*
X79910057Y-189645595D02*
X80005295Y-189597976D01*
X80005295Y-189597976D02*
X80100533Y-189597976D01*
X80100533Y-189597976D02*
X80243390Y-189645595D01*
X80243390Y-189645595D02*
X80814819Y-190217023D01*
X80814819Y-190217023D02*
X80814819Y-189597976D01*
X79814819Y-188740833D02*
X79814819Y-188931309D01*
X79814819Y-188931309D02*
X79862438Y-189026547D01*
X79862438Y-189026547D02*
X79910057Y-189074166D01*
X79910057Y-189074166D02*
X80052914Y-189169404D01*
X80052914Y-189169404D02*
X80243390Y-189217023D01*
X80243390Y-189217023D02*
X80624342Y-189217023D01*
X80624342Y-189217023D02*
X80719580Y-189169404D01*
X80719580Y-189169404D02*
X80767200Y-189121785D01*
X80767200Y-189121785D02*
X80814819Y-189026547D01*
X80814819Y-189026547D02*
X80814819Y-188836071D01*
X80814819Y-188836071D02*
X80767200Y-188740833D01*
X80767200Y-188740833D02*
X80719580Y-188693214D01*
X80719580Y-188693214D02*
X80624342Y-188645595D01*
X80624342Y-188645595D02*
X80386247Y-188645595D01*
X80386247Y-188645595D02*
X80291009Y-188693214D01*
X80291009Y-188693214D02*
X80243390Y-188740833D01*
X80243390Y-188740833D02*
X80195771Y-188836071D01*
X80195771Y-188836071D02*
X80195771Y-189026547D01*
X80195771Y-189026547D02*
X80243390Y-189121785D01*
X80243390Y-189121785D02*
X80291009Y-189169404D01*
X80291009Y-189169404D02*
X80386247Y-189217023D01*
X122567200Y-149690832D02*
X122614819Y-149547975D01*
X122614819Y-149547975D02*
X122614819Y-149309880D01*
X122614819Y-149309880D02*
X122567200Y-149214642D01*
X122567200Y-149214642D02*
X122519580Y-149167023D01*
X122519580Y-149167023D02*
X122424342Y-149119404D01*
X122424342Y-149119404D02*
X122329104Y-149119404D01*
X122329104Y-149119404D02*
X122233866Y-149167023D01*
X122233866Y-149167023D02*
X122186247Y-149214642D01*
X122186247Y-149214642D02*
X122138628Y-149309880D01*
X122138628Y-149309880D02*
X122091009Y-149500356D01*
X122091009Y-149500356D02*
X122043390Y-149595594D01*
X122043390Y-149595594D02*
X121995771Y-149643213D01*
X121995771Y-149643213D02*
X121900533Y-149690832D01*
X121900533Y-149690832D02*
X121805295Y-149690832D01*
X121805295Y-149690832D02*
X121710057Y-149643213D01*
X121710057Y-149643213D02*
X121662438Y-149595594D01*
X121662438Y-149595594D02*
X121614819Y-149500356D01*
X121614819Y-149500356D02*
X121614819Y-149262261D01*
X121614819Y-149262261D02*
X121662438Y-149119404D01*
X121614819Y-148786070D02*
X122614819Y-148547975D01*
X122614819Y-148547975D02*
X121900533Y-148357499D01*
X121900533Y-148357499D02*
X122614819Y-148167023D01*
X122614819Y-148167023D02*
X121614819Y-147928928D01*
X122614819Y-147024166D02*
X122614819Y-147595594D01*
X122614819Y-147309880D02*
X121614819Y-147309880D01*
X121614819Y-147309880D02*
X121757676Y-147405118D01*
X121757676Y-147405118D02*
X121852914Y-147500356D01*
X121852914Y-147500356D02*
X121900533Y-147595594D01*
X112958214Y-176304819D02*
X112958214Y-175304819D01*
X112958214Y-175304819D02*
X113339166Y-175304819D01*
X113339166Y-175304819D02*
X113434404Y-175352438D01*
X113434404Y-175352438D02*
X113482023Y-175400057D01*
X113482023Y-175400057D02*
X113529642Y-175495295D01*
X113529642Y-175495295D02*
X113529642Y-175638152D01*
X113529642Y-175638152D02*
X113482023Y-175733390D01*
X113482023Y-175733390D02*
X113434404Y-175781009D01*
X113434404Y-175781009D02*
X113339166Y-175828628D01*
X113339166Y-175828628D02*
X112958214Y-175828628D01*
X113910595Y-176257200D02*
X114053452Y-176304819D01*
X114053452Y-176304819D02*
X114291547Y-176304819D01*
X114291547Y-176304819D02*
X114386785Y-176257200D01*
X114386785Y-176257200D02*
X114434404Y-176209580D01*
X114434404Y-176209580D02*
X114482023Y-176114342D01*
X114482023Y-176114342D02*
X114482023Y-176019104D01*
X114482023Y-176019104D02*
X114434404Y-175923866D01*
X114434404Y-175923866D02*
X114386785Y-175876247D01*
X114386785Y-175876247D02*
X114291547Y-175828628D01*
X114291547Y-175828628D02*
X114101071Y-175781009D01*
X114101071Y-175781009D02*
X114005833Y-175733390D01*
X114005833Y-175733390D02*
X113958214Y-175685771D01*
X113958214Y-175685771D02*
X113910595Y-175590533D01*
X113910595Y-175590533D02*
X113910595Y-175495295D01*
X113910595Y-175495295D02*
X113958214Y-175400057D01*
X113958214Y-175400057D02*
X114005833Y-175352438D01*
X114005833Y-175352438D02*
X114101071Y-175304819D01*
X114101071Y-175304819D02*
X114339166Y-175304819D01*
X114339166Y-175304819D02*
X114482023Y-175352438D01*
X115434404Y-176304819D02*
X114862976Y-176304819D01*
X115148690Y-176304819D02*
X115148690Y-175304819D01*
X115148690Y-175304819D02*
X115053452Y-175447676D01*
X115053452Y-175447676D02*
X114958214Y-175542914D01*
X114958214Y-175542914D02*
X114862976Y-175590533D01*
X92927200Y-102690832D02*
X92974819Y-102547975D01*
X92974819Y-102547975D02*
X92974819Y-102309880D01*
X92974819Y-102309880D02*
X92927200Y-102214642D01*
X92927200Y-102214642D02*
X92879580Y-102167023D01*
X92879580Y-102167023D02*
X92784342Y-102119404D01*
X92784342Y-102119404D02*
X92689104Y-102119404D01*
X92689104Y-102119404D02*
X92593866Y-102167023D01*
X92593866Y-102167023D02*
X92546247Y-102214642D01*
X92546247Y-102214642D02*
X92498628Y-102309880D01*
X92498628Y-102309880D02*
X92451009Y-102500356D01*
X92451009Y-102500356D02*
X92403390Y-102595594D01*
X92403390Y-102595594D02*
X92355771Y-102643213D01*
X92355771Y-102643213D02*
X92260533Y-102690832D01*
X92260533Y-102690832D02*
X92165295Y-102690832D01*
X92165295Y-102690832D02*
X92070057Y-102643213D01*
X92070057Y-102643213D02*
X92022438Y-102595594D01*
X92022438Y-102595594D02*
X91974819Y-102500356D01*
X91974819Y-102500356D02*
X91974819Y-102262261D01*
X91974819Y-102262261D02*
X92022438Y-102119404D01*
X91974819Y-101786070D02*
X92974819Y-101547975D01*
X92974819Y-101547975D02*
X92260533Y-101357499D01*
X92260533Y-101357499D02*
X92974819Y-101167023D01*
X92974819Y-101167023D02*
X91974819Y-100928928D01*
X92974819Y-100500356D02*
X92974819Y-100309880D01*
X92974819Y-100309880D02*
X92927200Y-100214642D01*
X92927200Y-100214642D02*
X92879580Y-100167023D01*
X92879580Y-100167023D02*
X92736723Y-100071785D01*
X92736723Y-100071785D02*
X92546247Y-100024166D01*
X92546247Y-100024166D02*
X92165295Y-100024166D01*
X92165295Y-100024166D02*
X92070057Y-100071785D01*
X92070057Y-100071785D02*
X92022438Y-100119404D01*
X92022438Y-100119404D02*
X91974819Y-100214642D01*
X91974819Y-100214642D02*
X91974819Y-100405118D01*
X91974819Y-100405118D02*
X92022438Y-100500356D01*
X92022438Y-100500356D02*
X92070057Y-100547975D01*
X92070057Y-100547975D02*
X92165295Y-100595594D01*
X92165295Y-100595594D02*
X92403390Y-100595594D01*
X92403390Y-100595594D02*
X92498628Y-100547975D01*
X92498628Y-100547975D02*
X92546247Y-100500356D01*
X92546247Y-100500356D02*
X92593866Y-100405118D01*
X92593866Y-100405118D02*
X92593866Y-100214642D01*
X92593866Y-100214642D02*
X92546247Y-100119404D01*
X92546247Y-100119404D02*
X92498628Y-100071785D01*
X92498628Y-100071785D02*
X92403390Y-100024166D01*
X98639580Y-61190357D02*
X98687200Y-61237976D01*
X98687200Y-61237976D02*
X98734819Y-61380833D01*
X98734819Y-61380833D02*
X98734819Y-61476071D01*
X98734819Y-61476071D02*
X98687200Y-61618928D01*
X98687200Y-61618928D02*
X98591961Y-61714166D01*
X98591961Y-61714166D02*
X98496723Y-61761785D01*
X98496723Y-61761785D02*
X98306247Y-61809404D01*
X98306247Y-61809404D02*
X98163390Y-61809404D01*
X98163390Y-61809404D02*
X97972914Y-61761785D01*
X97972914Y-61761785D02*
X97877676Y-61714166D01*
X97877676Y-61714166D02*
X97782438Y-61618928D01*
X97782438Y-61618928D02*
X97734819Y-61476071D01*
X97734819Y-61476071D02*
X97734819Y-61380833D01*
X97734819Y-61380833D02*
X97782438Y-61237976D01*
X97782438Y-61237976D02*
X97830057Y-61190357D01*
X98734819Y-60237976D02*
X98734819Y-60809404D01*
X98734819Y-60523690D02*
X97734819Y-60523690D01*
X97734819Y-60523690D02*
X97877676Y-60618928D01*
X97877676Y-60618928D02*
X97972914Y-60714166D01*
X97972914Y-60714166D02*
X98020533Y-60809404D01*
X97830057Y-59857023D02*
X97782438Y-59809404D01*
X97782438Y-59809404D02*
X97734819Y-59714166D01*
X97734819Y-59714166D02*
X97734819Y-59476071D01*
X97734819Y-59476071D02*
X97782438Y-59380833D01*
X97782438Y-59380833D02*
X97830057Y-59333214D01*
X97830057Y-59333214D02*
X97925295Y-59285595D01*
X97925295Y-59285595D02*
X98020533Y-59285595D01*
X98020533Y-59285595D02*
X98163390Y-59333214D01*
X98163390Y-59333214D02*
X98734819Y-59904642D01*
X98734819Y-59904642D02*
X98734819Y-59285595D01*
X173214819Y-210429404D02*
X174024342Y-210429404D01*
X174024342Y-210429404D02*
X174119580Y-210381785D01*
X174119580Y-210381785D02*
X174167200Y-210334166D01*
X174167200Y-210334166D02*
X174214819Y-210238928D01*
X174214819Y-210238928D02*
X174214819Y-210048452D01*
X174214819Y-210048452D02*
X174167200Y-209953214D01*
X174167200Y-209953214D02*
X174119580Y-209905595D01*
X174119580Y-209905595D02*
X174024342Y-209857976D01*
X174024342Y-209857976D02*
X173214819Y-209857976D01*
X173214819Y-208905595D02*
X173214819Y-209381785D01*
X173214819Y-209381785D02*
X173691009Y-209429404D01*
X173691009Y-209429404D02*
X173643390Y-209381785D01*
X173643390Y-209381785D02*
X173595771Y-209286547D01*
X173595771Y-209286547D02*
X173595771Y-209048452D01*
X173595771Y-209048452D02*
X173643390Y-208953214D01*
X173643390Y-208953214D02*
X173691009Y-208905595D01*
X173691009Y-208905595D02*
X173786247Y-208857976D01*
X173786247Y-208857976D02*
X174024342Y-208857976D01*
X174024342Y-208857976D02*
X174119580Y-208905595D01*
X174119580Y-208905595D02*
X174167200Y-208953214D01*
X174167200Y-208953214D02*
X174214819Y-209048452D01*
X174214819Y-209048452D02*
X174214819Y-209286547D01*
X174214819Y-209286547D02*
X174167200Y-209381785D01*
X174167200Y-209381785D02*
X174119580Y-209429404D01*
X196303333Y-172352319D02*
X195970000Y-171876128D01*
X195731905Y-172352319D02*
X195731905Y-171352319D01*
X195731905Y-171352319D02*
X196112857Y-171352319D01*
X196112857Y-171352319D02*
X196208095Y-171399938D01*
X196208095Y-171399938D02*
X196255714Y-171447557D01*
X196255714Y-171447557D02*
X196303333Y-171542795D01*
X196303333Y-171542795D02*
X196303333Y-171685652D01*
X196303333Y-171685652D02*
X196255714Y-171780890D01*
X196255714Y-171780890D02*
X196208095Y-171828509D01*
X196208095Y-171828509D02*
X196112857Y-171876128D01*
X196112857Y-171876128D02*
X195731905Y-171876128D01*
X196684286Y-171447557D02*
X196731905Y-171399938D01*
X196731905Y-171399938D02*
X196827143Y-171352319D01*
X196827143Y-171352319D02*
X197065238Y-171352319D01*
X197065238Y-171352319D02*
X197160476Y-171399938D01*
X197160476Y-171399938D02*
X197208095Y-171447557D01*
X197208095Y-171447557D02*
X197255714Y-171542795D01*
X197255714Y-171542795D02*
X197255714Y-171638033D01*
X197255714Y-171638033D02*
X197208095Y-171780890D01*
X197208095Y-171780890D02*
X196636667Y-172352319D01*
X196636667Y-172352319D02*
X197255714Y-172352319D01*
X110269819Y-110162738D02*
X109793628Y-110496071D01*
X110269819Y-110734166D02*
X109269819Y-110734166D01*
X109269819Y-110734166D02*
X109269819Y-110353214D01*
X109269819Y-110353214D02*
X109317438Y-110257976D01*
X109317438Y-110257976D02*
X109365057Y-110210357D01*
X109365057Y-110210357D02*
X109460295Y-110162738D01*
X109460295Y-110162738D02*
X109603152Y-110162738D01*
X109603152Y-110162738D02*
X109698390Y-110210357D01*
X109698390Y-110210357D02*
X109746009Y-110257976D01*
X109746009Y-110257976D02*
X109793628Y-110353214D01*
X109793628Y-110353214D02*
X109793628Y-110734166D01*
X109269819Y-109877023D02*
X110269819Y-109543690D01*
X110269819Y-109543690D02*
X109269819Y-109210357D01*
X110269819Y-108353214D02*
X110269819Y-108924642D01*
X110269819Y-108638928D02*
X109269819Y-108638928D01*
X109269819Y-108638928D02*
X109412676Y-108734166D01*
X109412676Y-108734166D02*
X109507914Y-108829404D01*
X109507914Y-108829404D02*
X109555533Y-108924642D01*
X204114819Y-139705594D02*
X203114819Y-139705594D01*
X203114819Y-139705594D02*
X203114819Y-139467499D01*
X203114819Y-139467499D02*
X203162438Y-139324642D01*
X203162438Y-139324642D02*
X203257676Y-139229404D01*
X203257676Y-139229404D02*
X203352914Y-139181785D01*
X203352914Y-139181785D02*
X203543390Y-139134166D01*
X203543390Y-139134166D02*
X203686247Y-139134166D01*
X203686247Y-139134166D02*
X203876723Y-139181785D01*
X203876723Y-139181785D02*
X203971961Y-139229404D01*
X203971961Y-139229404D02*
X204067200Y-139324642D01*
X204067200Y-139324642D02*
X204114819Y-139467499D01*
X204114819Y-139467499D02*
X204114819Y-139705594D01*
X203114819Y-138800832D02*
X203114819Y-138181785D01*
X203114819Y-138181785D02*
X203495771Y-138515118D01*
X203495771Y-138515118D02*
X203495771Y-138372261D01*
X203495771Y-138372261D02*
X203543390Y-138277023D01*
X203543390Y-138277023D02*
X203591009Y-138229404D01*
X203591009Y-138229404D02*
X203686247Y-138181785D01*
X203686247Y-138181785D02*
X203924342Y-138181785D01*
X203924342Y-138181785D02*
X204019580Y-138229404D01*
X204019580Y-138229404D02*
X204067200Y-138277023D01*
X204067200Y-138277023D02*
X204114819Y-138372261D01*
X204114819Y-138372261D02*
X204114819Y-138657975D01*
X204114819Y-138657975D02*
X204067200Y-138753213D01*
X204067200Y-138753213D02*
X204019580Y-138800832D01*
X204114819Y-135419404D02*
X203114819Y-135419404D01*
X204114819Y-134847976D02*
X203543390Y-135276547D01*
X203114819Y-134847976D02*
X203686247Y-135419404D01*
X230764819Y-127245594D02*
X229764819Y-127245594D01*
X230764819Y-126674166D02*
X230193390Y-127102737D01*
X229764819Y-126674166D02*
X230336247Y-127245594D01*
X230098152Y-125817023D02*
X230764819Y-125817023D01*
X229717200Y-126055118D02*
X230431485Y-126293213D01*
X230431485Y-126293213D02*
X230431485Y-125674166D01*
X109974580Y-181600357D02*
X110022200Y-181647976D01*
X110022200Y-181647976D02*
X110069819Y-181790833D01*
X110069819Y-181790833D02*
X110069819Y-181886071D01*
X110069819Y-181886071D02*
X110022200Y-182028928D01*
X110022200Y-182028928D02*
X109926961Y-182124166D01*
X109926961Y-182124166D02*
X109831723Y-182171785D01*
X109831723Y-182171785D02*
X109641247Y-182219404D01*
X109641247Y-182219404D02*
X109498390Y-182219404D01*
X109498390Y-182219404D02*
X109307914Y-182171785D01*
X109307914Y-182171785D02*
X109212676Y-182124166D01*
X109212676Y-182124166D02*
X109117438Y-182028928D01*
X109117438Y-182028928D02*
X109069819Y-181886071D01*
X109069819Y-181886071D02*
X109069819Y-181790833D01*
X109069819Y-181790833D02*
X109117438Y-181647976D01*
X109117438Y-181647976D02*
X109165057Y-181600357D01*
X110069819Y-180647976D02*
X110069819Y-181219404D01*
X110069819Y-180933690D02*
X109069819Y-180933690D01*
X109069819Y-180933690D02*
X109212676Y-181028928D01*
X109212676Y-181028928D02*
X109307914Y-181124166D01*
X109307914Y-181124166D02*
X109355533Y-181219404D01*
X109069819Y-179790833D02*
X109069819Y-179981309D01*
X109069819Y-179981309D02*
X109117438Y-180076547D01*
X109117438Y-180076547D02*
X109165057Y-180124166D01*
X109165057Y-180124166D02*
X109307914Y-180219404D01*
X109307914Y-180219404D02*
X109498390Y-180267023D01*
X109498390Y-180267023D02*
X109879342Y-180267023D01*
X109879342Y-180267023D02*
X109974580Y-180219404D01*
X109974580Y-180219404D02*
X110022200Y-180171785D01*
X110022200Y-180171785D02*
X110069819Y-180076547D01*
X110069819Y-180076547D02*
X110069819Y-179886071D01*
X110069819Y-179886071D02*
X110022200Y-179790833D01*
X110022200Y-179790833D02*
X109974580Y-179743214D01*
X109974580Y-179743214D02*
X109879342Y-179695595D01*
X109879342Y-179695595D02*
X109641247Y-179695595D01*
X109641247Y-179695595D02*
X109546009Y-179743214D01*
X109546009Y-179743214D02*
X109498390Y-179790833D01*
X109498390Y-179790833D02*
X109450771Y-179886071D01*
X109450771Y-179886071D02*
X109450771Y-180076547D01*
X109450771Y-180076547D02*
X109498390Y-180171785D01*
X109498390Y-180171785D02*
X109546009Y-180219404D01*
X109546009Y-180219404D02*
X109641247Y-180267023D01*
X108764819Y-71407023D02*
X109479104Y-71407023D01*
X109479104Y-71407023D02*
X109621961Y-71454642D01*
X109621961Y-71454642D02*
X109717200Y-71549880D01*
X109717200Y-71549880D02*
X109764819Y-71692737D01*
X109764819Y-71692737D02*
X109764819Y-71787975D01*
X109764819Y-70407023D02*
X109764819Y-70978451D01*
X109764819Y-70692737D02*
X108764819Y-70692737D01*
X108764819Y-70692737D02*
X108907676Y-70787975D01*
X108907676Y-70787975D02*
X109002914Y-70883213D01*
X109002914Y-70883213D02*
X109050533Y-70978451D01*
X108764819Y-69549880D02*
X108764819Y-69740356D01*
X108764819Y-69740356D02*
X108812438Y-69835594D01*
X108812438Y-69835594D02*
X108860057Y-69883213D01*
X108860057Y-69883213D02*
X109002914Y-69978451D01*
X109002914Y-69978451D02*
X109193390Y-70026070D01*
X109193390Y-70026070D02*
X109574342Y-70026070D01*
X109574342Y-70026070D02*
X109669580Y-69978451D01*
X109669580Y-69978451D02*
X109717200Y-69930832D01*
X109717200Y-69930832D02*
X109764819Y-69835594D01*
X109764819Y-69835594D02*
X109764819Y-69645118D01*
X109764819Y-69645118D02*
X109717200Y-69549880D01*
X109717200Y-69549880D02*
X109669580Y-69502261D01*
X109669580Y-69502261D02*
X109574342Y-69454642D01*
X109574342Y-69454642D02*
X109336247Y-69454642D01*
X109336247Y-69454642D02*
X109241009Y-69502261D01*
X109241009Y-69502261D02*
X109193390Y-69549880D01*
X109193390Y-69549880D02*
X109145771Y-69645118D01*
X109145771Y-69645118D02*
X109145771Y-69835594D01*
X109145771Y-69835594D02*
X109193390Y-69930832D01*
X109193390Y-69930832D02*
X109241009Y-69978451D01*
X109241009Y-69978451D02*
X109336247Y-70026070D01*
X76127200Y-112467023D02*
X76174819Y-112324166D01*
X76174819Y-112324166D02*
X76174819Y-112086071D01*
X76174819Y-112086071D02*
X76127200Y-111990833D01*
X76127200Y-111990833D02*
X76079580Y-111943214D01*
X76079580Y-111943214D02*
X75984342Y-111895595D01*
X75984342Y-111895595D02*
X75889104Y-111895595D01*
X75889104Y-111895595D02*
X75793866Y-111943214D01*
X75793866Y-111943214D02*
X75746247Y-111990833D01*
X75746247Y-111990833D02*
X75698628Y-112086071D01*
X75698628Y-112086071D02*
X75651009Y-112276547D01*
X75651009Y-112276547D02*
X75603390Y-112371785D01*
X75603390Y-112371785D02*
X75555771Y-112419404D01*
X75555771Y-112419404D02*
X75460533Y-112467023D01*
X75460533Y-112467023D02*
X75365295Y-112467023D01*
X75365295Y-112467023D02*
X75270057Y-112419404D01*
X75270057Y-112419404D02*
X75222438Y-112371785D01*
X75222438Y-112371785D02*
X75174819Y-112276547D01*
X75174819Y-112276547D02*
X75174819Y-112038452D01*
X75174819Y-112038452D02*
X75222438Y-111895595D01*
X75174819Y-111562261D02*
X76174819Y-111324166D01*
X76174819Y-111324166D02*
X75460533Y-111133690D01*
X75460533Y-111133690D02*
X76174819Y-110943214D01*
X76174819Y-110943214D02*
X75174819Y-110705119D01*
X76174819Y-109800357D02*
X76174819Y-110371785D01*
X76174819Y-110086071D02*
X75174819Y-110086071D01*
X75174819Y-110086071D02*
X75317676Y-110181309D01*
X75317676Y-110181309D02*
X75412914Y-110276547D01*
X75412914Y-110276547D02*
X75460533Y-110371785D01*
X76174819Y-108847976D02*
X76174819Y-109419404D01*
X76174819Y-109133690D02*
X75174819Y-109133690D01*
X75174819Y-109133690D02*
X75317676Y-109228928D01*
X75317676Y-109228928D02*
X75412914Y-109324166D01*
X75412914Y-109324166D02*
X75460533Y-109419404D01*
X101394642Y-176472319D02*
X101061309Y-175996128D01*
X100823214Y-176472319D02*
X100823214Y-175472319D01*
X100823214Y-175472319D02*
X101204166Y-175472319D01*
X101204166Y-175472319D02*
X101299404Y-175519938D01*
X101299404Y-175519938D02*
X101347023Y-175567557D01*
X101347023Y-175567557D02*
X101394642Y-175662795D01*
X101394642Y-175662795D02*
X101394642Y-175805652D01*
X101394642Y-175805652D02*
X101347023Y-175900890D01*
X101347023Y-175900890D02*
X101299404Y-175948509D01*
X101299404Y-175948509D02*
X101204166Y-175996128D01*
X101204166Y-175996128D02*
X100823214Y-175996128D01*
X101775595Y-175567557D02*
X101823214Y-175519938D01*
X101823214Y-175519938D02*
X101918452Y-175472319D01*
X101918452Y-175472319D02*
X102156547Y-175472319D01*
X102156547Y-175472319D02*
X102251785Y-175519938D01*
X102251785Y-175519938D02*
X102299404Y-175567557D01*
X102299404Y-175567557D02*
X102347023Y-175662795D01*
X102347023Y-175662795D02*
X102347023Y-175758033D01*
X102347023Y-175758033D02*
X102299404Y-175900890D01*
X102299404Y-175900890D02*
X101727976Y-176472319D01*
X101727976Y-176472319D02*
X102347023Y-176472319D01*
X103251785Y-175472319D02*
X102775595Y-175472319D01*
X102775595Y-175472319D02*
X102727976Y-175948509D01*
X102727976Y-175948509D02*
X102775595Y-175900890D01*
X102775595Y-175900890D02*
X102870833Y-175853271D01*
X102870833Y-175853271D02*
X103108928Y-175853271D01*
X103108928Y-175853271D02*
X103204166Y-175900890D01*
X103204166Y-175900890D02*
X103251785Y-175948509D01*
X103251785Y-175948509D02*
X103299404Y-176043747D01*
X103299404Y-176043747D02*
X103299404Y-176281842D01*
X103299404Y-176281842D02*
X103251785Y-176377080D01*
X103251785Y-176377080D02*
X103204166Y-176424700D01*
X103204166Y-176424700D02*
X103108928Y-176472319D01*
X103108928Y-176472319D02*
X102870833Y-176472319D01*
X102870833Y-176472319D02*
X102775595Y-176424700D01*
X102775595Y-176424700D02*
X102727976Y-176377080D01*
X201410057Y-130062738D02*
X201362438Y-130157976D01*
X201362438Y-130157976D02*
X201267200Y-130253214D01*
X201267200Y-130253214D02*
X201124342Y-130396071D01*
X201124342Y-130396071D02*
X201076723Y-130491309D01*
X201076723Y-130491309D02*
X201076723Y-130586547D01*
X201314819Y-130538928D02*
X201267200Y-130634166D01*
X201267200Y-130634166D02*
X201171961Y-130729404D01*
X201171961Y-130729404D02*
X200981485Y-130777023D01*
X200981485Y-130777023D02*
X200648152Y-130777023D01*
X200648152Y-130777023D02*
X200457676Y-130729404D01*
X200457676Y-130729404D02*
X200362438Y-130634166D01*
X200362438Y-130634166D02*
X200314819Y-130538928D01*
X200314819Y-130538928D02*
X200314819Y-130348452D01*
X200314819Y-130348452D02*
X200362438Y-130253214D01*
X200362438Y-130253214D02*
X200457676Y-130157976D01*
X200457676Y-130157976D02*
X200648152Y-130110357D01*
X200648152Y-130110357D02*
X200981485Y-130110357D01*
X200981485Y-130110357D02*
X201171961Y-130157976D01*
X201171961Y-130157976D02*
X201267200Y-130253214D01*
X201267200Y-130253214D02*
X201314819Y-130348452D01*
X201314819Y-130348452D02*
X201314819Y-130538928D01*
X200648152Y-129253214D02*
X201314819Y-129253214D01*
X200267200Y-129491309D02*
X200981485Y-129729404D01*
X200981485Y-129729404D02*
X200981485Y-129110357D01*
X155347142Y-112332319D02*
X155013809Y-111856128D01*
X154775714Y-112332319D02*
X154775714Y-111332319D01*
X154775714Y-111332319D02*
X155156666Y-111332319D01*
X155156666Y-111332319D02*
X155251904Y-111379938D01*
X155251904Y-111379938D02*
X155299523Y-111427557D01*
X155299523Y-111427557D02*
X155347142Y-111522795D01*
X155347142Y-111522795D02*
X155347142Y-111665652D01*
X155347142Y-111665652D02*
X155299523Y-111760890D01*
X155299523Y-111760890D02*
X155251904Y-111808509D01*
X155251904Y-111808509D02*
X155156666Y-111856128D01*
X155156666Y-111856128D02*
X154775714Y-111856128D01*
X155728095Y-111427557D02*
X155775714Y-111379938D01*
X155775714Y-111379938D02*
X155870952Y-111332319D01*
X155870952Y-111332319D02*
X156109047Y-111332319D01*
X156109047Y-111332319D02*
X156204285Y-111379938D01*
X156204285Y-111379938D02*
X156251904Y-111427557D01*
X156251904Y-111427557D02*
X156299523Y-111522795D01*
X156299523Y-111522795D02*
X156299523Y-111618033D01*
X156299523Y-111618033D02*
X156251904Y-111760890D01*
X156251904Y-111760890D02*
X155680476Y-112332319D01*
X155680476Y-112332319D02*
X156299523Y-112332319D01*
X156918571Y-111332319D02*
X157013809Y-111332319D01*
X157013809Y-111332319D02*
X157109047Y-111379938D01*
X157109047Y-111379938D02*
X157156666Y-111427557D01*
X157156666Y-111427557D02*
X157204285Y-111522795D01*
X157204285Y-111522795D02*
X157251904Y-111713271D01*
X157251904Y-111713271D02*
X157251904Y-111951366D01*
X157251904Y-111951366D02*
X157204285Y-112141842D01*
X157204285Y-112141842D02*
X157156666Y-112237080D01*
X157156666Y-112237080D02*
X157109047Y-112284700D01*
X157109047Y-112284700D02*
X157013809Y-112332319D01*
X157013809Y-112332319D02*
X156918571Y-112332319D01*
X156918571Y-112332319D02*
X156823333Y-112284700D01*
X156823333Y-112284700D02*
X156775714Y-112237080D01*
X156775714Y-112237080D02*
X156728095Y-112141842D01*
X156728095Y-112141842D02*
X156680476Y-111951366D01*
X156680476Y-111951366D02*
X156680476Y-111713271D01*
X156680476Y-111713271D02*
X156728095Y-111522795D01*
X156728095Y-111522795D02*
X156775714Y-111427557D01*
X156775714Y-111427557D02*
X156823333Y-111379938D01*
X156823333Y-111379938D02*
X156918571Y-111332319D01*
X150257142Y-134852319D02*
X149923809Y-134376128D01*
X149685714Y-134852319D02*
X149685714Y-133852319D01*
X149685714Y-133852319D02*
X150066666Y-133852319D01*
X150066666Y-133852319D02*
X150161904Y-133899938D01*
X150161904Y-133899938D02*
X150209523Y-133947557D01*
X150209523Y-133947557D02*
X150257142Y-134042795D01*
X150257142Y-134042795D02*
X150257142Y-134185652D01*
X150257142Y-134185652D02*
X150209523Y-134280890D01*
X150209523Y-134280890D02*
X150161904Y-134328509D01*
X150161904Y-134328509D02*
X150066666Y-134376128D01*
X150066666Y-134376128D02*
X149685714Y-134376128D01*
X151209523Y-134852319D02*
X150638095Y-134852319D01*
X150923809Y-134852319D02*
X150923809Y-133852319D01*
X150923809Y-133852319D02*
X150828571Y-133995176D01*
X150828571Y-133995176D02*
X150733333Y-134090414D01*
X150733333Y-134090414D02*
X150638095Y-134138033D01*
X151780952Y-134280890D02*
X151685714Y-134233271D01*
X151685714Y-134233271D02*
X151638095Y-134185652D01*
X151638095Y-134185652D02*
X151590476Y-134090414D01*
X151590476Y-134090414D02*
X151590476Y-134042795D01*
X151590476Y-134042795D02*
X151638095Y-133947557D01*
X151638095Y-133947557D02*
X151685714Y-133899938D01*
X151685714Y-133899938D02*
X151780952Y-133852319D01*
X151780952Y-133852319D02*
X151971428Y-133852319D01*
X151971428Y-133852319D02*
X152066666Y-133899938D01*
X152066666Y-133899938D02*
X152114285Y-133947557D01*
X152114285Y-133947557D02*
X152161904Y-134042795D01*
X152161904Y-134042795D02*
X152161904Y-134090414D01*
X152161904Y-134090414D02*
X152114285Y-134185652D01*
X152114285Y-134185652D02*
X152066666Y-134233271D01*
X152066666Y-134233271D02*
X151971428Y-134280890D01*
X151971428Y-134280890D02*
X151780952Y-134280890D01*
X151780952Y-134280890D02*
X151685714Y-134328509D01*
X151685714Y-134328509D02*
X151638095Y-134376128D01*
X151638095Y-134376128D02*
X151590476Y-134471366D01*
X151590476Y-134471366D02*
X151590476Y-134661842D01*
X151590476Y-134661842D02*
X151638095Y-134757080D01*
X151638095Y-134757080D02*
X151685714Y-134804700D01*
X151685714Y-134804700D02*
X151780952Y-134852319D01*
X151780952Y-134852319D02*
X151971428Y-134852319D01*
X151971428Y-134852319D02*
X152066666Y-134804700D01*
X152066666Y-134804700D02*
X152114285Y-134757080D01*
X152114285Y-134757080D02*
X152161904Y-134661842D01*
X152161904Y-134661842D02*
X152161904Y-134471366D01*
X152161904Y-134471366D02*
X152114285Y-134376128D01*
X152114285Y-134376128D02*
X152066666Y-134328509D01*
X152066666Y-134328509D02*
X151971428Y-134280890D01*
X201410057Y-146362738D02*
X201362438Y-146457976D01*
X201362438Y-146457976D02*
X201267200Y-146553214D01*
X201267200Y-146553214D02*
X201124342Y-146696071D01*
X201124342Y-146696071D02*
X201076723Y-146791309D01*
X201076723Y-146791309D02*
X201076723Y-146886547D01*
X201314819Y-146838928D02*
X201267200Y-146934166D01*
X201267200Y-146934166D02*
X201171961Y-147029404D01*
X201171961Y-147029404D02*
X200981485Y-147077023D01*
X200981485Y-147077023D02*
X200648152Y-147077023D01*
X200648152Y-147077023D02*
X200457676Y-147029404D01*
X200457676Y-147029404D02*
X200362438Y-146934166D01*
X200362438Y-146934166D02*
X200314819Y-146838928D01*
X200314819Y-146838928D02*
X200314819Y-146648452D01*
X200314819Y-146648452D02*
X200362438Y-146553214D01*
X200362438Y-146553214D02*
X200457676Y-146457976D01*
X200457676Y-146457976D02*
X200648152Y-146410357D01*
X200648152Y-146410357D02*
X200981485Y-146410357D01*
X200981485Y-146410357D02*
X201171961Y-146457976D01*
X201171961Y-146457976D02*
X201267200Y-146553214D01*
X201267200Y-146553214D02*
X201314819Y-146648452D01*
X201314819Y-146648452D02*
X201314819Y-146838928D01*
X200314819Y-146077023D02*
X200314819Y-145457976D01*
X200314819Y-145457976D02*
X200695771Y-145791309D01*
X200695771Y-145791309D02*
X200695771Y-145648452D01*
X200695771Y-145648452D02*
X200743390Y-145553214D01*
X200743390Y-145553214D02*
X200791009Y-145505595D01*
X200791009Y-145505595D02*
X200886247Y-145457976D01*
X200886247Y-145457976D02*
X201124342Y-145457976D01*
X201124342Y-145457976D02*
X201219580Y-145505595D01*
X201219580Y-145505595D02*
X201267200Y-145553214D01*
X201267200Y-145553214D02*
X201314819Y-145648452D01*
X201314819Y-145648452D02*
X201314819Y-145934166D01*
X201314819Y-145934166D02*
X201267200Y-146029404D01*
X201267200Y-146029404D02*
X201219580Y-146077023D01*
X84527200Y-112467023D02*
X84574819Y-112324166D01*
X84574819Y-112324166D02*
X84574819Y-112086071D01*
X84574819Y-112086071D02*
X84527200Y-111990833D01*
X84527200Y-111990833D02*
X84479580Y-111943214D01*
X84479580Y-111943214D02*
X84384342Y-111895595D01*
X84384342Y-111895595D02*
X84289104Y-111895595D01*
X84289104Y-111895595D02*
X84193866Y-111943214D01*
X84193866Y-111943214D02*
X84146247Y-111990833D01*
X84146247Y-111990833D02*
X84098628Y-112086071D01*
X84098628Y-112086071D02*
X84051009Y-112276547D01*
X84051009Y-112276547D02*
X84003390Y-112371785D01*
X84003390Y-112371785D02*
X83955771Y-112419404D01*
X83955771Y-112419404D02*
X83860533Y-112467023D01*
X83860533Y-112467023D02*
X83765295Y-112467023D01*
X83765295Y-112467023D02*
X83670057Y-112419404D01*
X83670057Y-112419404D02*
X83622438Y-112371785D01*
X83622438Y-112371785D02*
X83574819Y-112276547D01*
X83574819Y-112276547D02*
X83574819Y-112038452D01*
X83574819Y-112038452D02*
X83622438Y-111895595D01*
X83574819Y-111562261D02*
X84574819Y-111324166D01*
X84574819Y-111324166D02*
X83860533Y-111133690D01*
X83860533Y-111133690D02*
X84574819Y-110943214D01*
X84574819Y-110943214D02*
X83574819Y-110705119D01*
X84574819Y-109800357D02*
X84574819Y-110371785D01*
X84574819Y-110086071D02*
X83574819Y-110086071D01*
X83574819Y-110086071D02*
X83717676Y-110181309D01*
X83717676Y-110181309D02*
X83812914Y-110276547D01*
X83812914Y-110276547D02*
X83860533Y-110371785D01*
X83670057Y-109419404D02*
X83622438Y-109371785D01*
X83622438Y-109371785D02*
X83574819Y-109276547D01*
X83574819Y-109276547D02*
X83574819Y-109038452D01*
X83574819Y-109038452D02*
X83622438Y-108943214D01*
X83622438Y-108943214D02*
X83670057Y-108895595D01*
X83670057Y-108895595D02*
X83765295Y-108847976D01*
X83765295Y-108847976D02*
X83860533Y-108847976D01*
X83860533Y-108847976D02*
X84003390Y-108895595D01*
X84003390Y-108895595D02*
X84574819Y-109467023D01*
X84574819Y-109467023D02*
X84574819Y-108847976D01*
X165251905Y-224972319D02*
X165251905Y-223972319D01*
X165251905Y-223972319D02*
X165490000Y-223972319D01*
X165490000Y-223972319D02*
X165632857Y-224019938D01*
X165632857Y-224019938D02*
X165728095Y-224115176D01*
X165728095Y-224115176D02*
X165775714Y-224210414D01*
X165775714Y-224210414D02*
X165823333Y-224400890D01*
X165823333Y-224400890D02*
X165823333Y-224543747D01*
X165823333Y-224543747D02*
X165775714Y-224734223D01*
X165775714Y-224734223D02*
X165728095Y-224829461D01*
X165728095Y-224829461D02*
X165632857Y-224924700D01*
X165632857Y-224924700D02*
X165490000Y-224972319D01*
X165490000Y-224972319D02*
X165251905Y-224972319D01*
X166299524Y-224972319D02*
X166490000Y-224972319D01*
X166490000Y-224972319D02*
X166585238Y-224924700D01*
X166585238Y-224924700D02*
X166632857Y-224877080D01*
X166632857Y-224877080D02*
X166728095Y-224734223D01*
X166728095Y-224734223D02*
X166775714Y-224543747D01*
X166775714Y-224543747D02*
X166775714Y-224162795D01*
X166775714Y-224162795D02*
X166728095Y-224067557D01*
X166728095Y-224067557D02*
X166680476Y-224019938D01*
X166680476Y-224019938D02*
X166585238Y-223972319D01*
X166585238Y-223972319D02*
X166394762Y-223972319D01*
X166394762Y-223972319D02*
X166299524Y-224019938D01*
X166299524Y-224019938D02*
X166251905Y-224067557D01*
X166251905Y-224067557D02*
X166204286Y-224162795D01*
X166204286Y-224162795D02*
X166204286Y-224400890D01*
X166204286Y-224400890D02*
X166251905Y-224496128D01*
X166251905Y-224496128D02*
X166299524Y-224543747D01*
X166299524Y-224543747D02*
X166394762Y-224591366D01*
X166394762Y-224591366D02*
X166585238Y-224591366D01*
X166585238Y-224591366D02*
X166680476Y-224543747D01*
X166680476Y-224543747D02*
X166728095Y-224496128D01*
X166728095Y-224496128D02*
X166775714Y-224400890D01*
X229664819Y-137190833D02*
X230379104Y-137190833D01*
X230379104Y-137190833D02*
X230521961Y-137238452D01*
X230521961Y-137238452D02*
X230617200Y-137333690D01*
X230617200Y-137333690D02*
X230664819Y-137476547D01*
X230664819Y-137476547D02*
X230664819Y-137571785D01*
X229664819Y-136809880D02*
X229664819Y-136190833D01*
X229664819Y-136190833D02*
X230045771Y-136524166D01*
X230045771Y-136524166D02*
X230045771Y-136381309D01*
X230045771Y-136381309D02*
X230093390Y-136286071D01*
X230093390Y-136286071D02*
X230141009Y-136238452D01*
X230141009Y-136238452D02*
X230236247Y-136190833D01*
X230236247Y-136190833D02*
X230474342Y-136190833D01*
X230474342Y-136190833D02*
X230569580Y-136238452D01*
X230569580Y-136238452D02*
X230617200Y-136286071D01*
X230617200Y-136286071D02*
X230664819Y-136381309D01*
X230664819Y-136381309D02*
X230664819Y-136667023D01*
X230664819Y-136667023D02*
X230617200Y-136762261D01*
X230617200Y-136762261D02*
X230569580Y-136809880D01*
X148056666Y-223964819D02*
X148056666Y-224679104D01*
X148056666Y-224679104D02*
X148009047Y-224821961D01*
X148009047Y-224821961D02*
X147913809Y-224917200D01*
X147913809Y-224917200D02*
X147770952Y-224964819D01*
X147770952Y-224964819D02*
X147675714Y-224964819D01*
X148961428Y-223964819D02*
X148770952Y-223964819D01*
X148770952Y-223964819D02*
X148675714Y-224012438D01*
X148675714Y-224012438D02*
X148628095Y-224060057D01*
X148628095Y-224060057D02*
X148532857Y-224202914D01*
X148532857Y-224202914D02*
X148485238Y-224393390D01*
X148485238Y-224393390D02*
X148485238Y-224774342D01*
X148485238Y-224774342D02*
X148532857Y-224869580D01*
X148532857Y-224869580D02*
X148580476Y-224917200D01*
X148580476Y-224917200D02*
X148675714Y-224964819D01*
X148675714Y-224964819D02*
X148866190Y-224964819D01*
X148866190Y-224964819D02*
X148961428Y-224917200D01*
X148961428Y-224917200D02*
X149009047Y-224869580D01*
X149009047Y-224869580D02*
X149056666Y-224774342D01*
X149056666Y-224774342D02*
X149056666Y-224536247D01*
X149056666Y-224536247D02*
X149009047Y-224441009D01*
X149009047Y-224441009D02*
X148961428Y-224393390D01*
X148961428Y-224393390D02*
X148866190Y-224345771D01*
X148866190Y-224345771D02*
X148675714Y-224345771D01*
X148675714Y-224345771D02*
X148580476Y-224393390D01*
X148580476Y-224393390D02*
X148532857Y-224441009D01*
X148532857Y-224441009D02*
X148485238Y-224536247D01*
X74084819Y-202764404D02*
X74894342Y-202764404D01*
X74894342Y-202764404D02*
X74989580Y-202716785D01*
X74989580Y-202716785D02*
X75037200Y-202669166D01*
X75037200Y-202669166D02*
X75084819Y-202573928D01*
X75084819Y-202573928D02*
X75084819Y-202383452D01*
X75084819Y-202383452D02*
X75037200Y-202288214D01*
X75037200Y-202288214D02*
X74989580Y-202240595D01*
X74989580Y-202240595D02*
X74894342Y-202192976D01*
X74894342Y-202192976D02*
X74084819Y-202192976D01*
X75084819Y-201669166D02*
X75084819Y-201478690D01*
X75084819Y-201478690D02*
X75037200Y-201383452D01*
X75037200Y-201383452D02*
X74989580Y-201335833D01*
X74989580Y-201335833D02*
X74846723Y-201240595D01*
X74846723Y-201240595D02*
X74656247Y-201192976D01*
X74656247Y-201192976D02*
X74275295Y-201192976D01*
X74275295Y-201192976D02*
X74180057Y-201240595D01*
X74180057Y-201240595D02*
X74132438Y-201288214D01*
X74132438Y-201288214D02*
X74084819Y-201383452D01*
X74084819Y-201383452D02*
X74084819Y-201573928D01*
X74084819Y-201573928D02*
X74132438Y-201669166D01*
X74132438Y-201669166D02*
X74180057Y-201716785D01*
X74180057Y-201716785D02*
X74275295Y-201764404D01*
X74275295Y-201764404D02*
X74513390Y-201764404D01*
X74513390Y-201764404D02*
X74608628Y-201716785D01*
X74608628Y-201716785D02*
X74656247Y-201669166D01*
X74656247Y-201669166D02*
X74703866Y-201573928D01*
X74703866Y-201573928D02*
X74703866Y-201383452D01*
X74703866Y-201383452D02*
X74656247Y-201288214D01*
X74656247Y-201288214D02*
X74608628Y-201240595D01*
X74608628Y-201240595D02*
X74513390Y-201192976D01*
X139134819Y-121739404D02*
X139944342Y-121739404D01*
X139944342Y-121739404D02*
X140039580Y-121691785D01*
X140039580Y-121691785D02*
X140087200Y-121644166D01*
X140087200Y-121644166D02*
X140134819Y-121548928D01*
X140134819Y-121548928D02*
X140134819Y-121358452D01*
X140134819Y-121358452D02*
X140087200Y-121263214D01*
X140087200Y-121263214D02*
X140039580Y-121215595D01*
X140039580Y-121215595D02*
X139944342Y-121167976D01*
X139944342Y-121167976D02*
X139134819Y-121167976D01*
X139134819Y-120263214D02*
X139134819Y-120453690D01*
X139134819Y-120453690D02*
X139182438Y-120548928D01*
X139182438Y-120548928D02*
X139230057Y-120596547D01*
X139230057Y-120596547D02*
X139372914Y-120691785D01*
X139372914Y-120691785D02*
X139563390Y-120739404D01*
X139563390Y-120739404D02*
X139944342Y-120739404D01*
X139944342Y-120739404D02*
X140039580Y-120691785D01*
X140039580Y-120691785D02*
X140087200Y-120644166D01*
X140087200Y-120644166D02*
X140134819Y-120548928D01*
X140134819Y-120548928D02*
X140134819Y-120358452D01*
X140134819Y-120358452D02*
X140087200Y-120263214D01*
X140087200Y-120263214D02*
X140039580Y-120215595D01*
X140039580Y-120215595D02*
X139944342Y-120167976D01*
X139944342Y-120167976D02*
X139706247Y-120167976D01*
X139706247Y-120167976D02*
X139611009Y-120215595D01*
X139611009Y-120215595D02*
X139563390Y-120263214D01*
X139563390Y-120263214D02*
X139515771Y-120358452D01*
X139515771Y-120358452D02*
X139515771Y-120548928D01*
X139515771Y-120548928D02*
X139563390Y-120644166D01*
X139563390Y-120644166D02*
X139611009Y-120691785D01*
X139611009Y-120691785D02*
X139706247Y-120739404D01*
X92927200Y-121767023D02*
X92974819Y-121624166D01*
X92974819Y-121624166D02*
X92974819Y-121386071D01*
X92974819Y-121386071D02*
X92927200Y-121290833D01*
X92927200Y-121290833D02*
X92879580Y-121243214D01*
X92879580Y-121243214D02*
X92784342Y-121195595D01*
X92784342Y-121195595D02*
X92689104Y-121195595D01*
X92689104Y-121195595D02*
X92593866Y-121243214D01*
X92593866Y-121243214D02*
X92546247Y-121290833D01*
X92546247Y-121290833D02*
X92498628Y-121386071D01*
X92498628Y-121386071D02*
X92451009Y-121576547D01*
X92451009Y-121576547D02*
X92403390Y-121671785D01*
X92403390Y-121671785D02*
X92355771Y-121719404D01*
X92355771Y-121719404D02*
X92260533Y-121767023D01*
X92260533Y-121767023D02*
X92165295Y-121767023D01*
X92165295Y-121767023D02*
X92070057Y-121719404D01*
X92070057Y-121719404D02*
X92022438Y-121671785D01*
X92022438Y-121671785D02*
X91974819Y-121576547D01*
X91974819Y-121576547D02*
X91974819Y-121338452D01*
X91974819Y-121338452D02*
X92022438Y-121195595D01*
X91974819Y-120862261D02*
X92974819Y-120624166D01*
X92974819Y-120624166D02*
X92260533Y-120433690D01*
X92260533Y-120433690D02*
X92974819Y-120243214D01*
X92974819Y-120243214D02*
X91974819Y-120005119D01*
X92974819Y-119100357D02*
X92974819Y-119671785D01*
X92974819Y-119386071D02*
X91974819Y-119386071D01*
X91974819Y-119386071D02*
X92117676Y-119481309D01*
X92117676Y-119481309D02*
X92212914Y-119576547D01*
X92212914Y-119576547D02*
X92260533Y-119671785D01*
X91974819Y-118767023D02*
X91974819Y-118100357D01*
X91974819Y-118100357D02*
X92974819Y-118528928D01*
X67727200Y-112467023D02*
X67774819Y-112324166D01*
X67774819Y-112324166D02*
X67774819Y-112086071D01*
X67774819Y-112086071D02*
X67727200Y-111990833D01*
X67727200Y-111990833D02*
X67679580Y-111943214D01*
X67679580Y-111943214D02*
X67584342Y-111895595D01*
X67584342Y-111895595D02*
X67489104Y-111895595D01*
X67489104Y-111895595D02*
X67393866Y-111943214D01*
X67393866Y-111943214D02*
X67346247Y-111990833D01*
X67346247Y-111990833D02*
X67298628Y-112086071D01*
X67298628Y-112086071D02*
X67251009Y-112276547D01*
X67251009Y-112276547D02*
X67203390Y-112371785D01*
X67203390Y-112371785D02*
X67155771Y-112419404D01*
X67155771Y-112419404D02*
X67060533Y-112467023D01*
X67060533Y-112467023D02*
X66965295Y-112467023D01*
X66965295Y-112467023D02*
X66870057Y-112419404D01*
X66870057Y-112419404D02*
X66822438Y-112371785D01*
X66822438Y-112371785D02*
X66774819Y-112276547D01*
X66774819Y-112276547D02*
X66774819Y-112038452D01*
X66774819Y-112038452D02*
X66822438Y-111895595D01*
X66774819Y-111562261D02*
X67774819Y-111324166D01*
X67774819Y-111324166D02*
X67060533Y-111133690D01*
X67060533Y-111133690D02*
X67774819Y-110943214D01*
X67774819Y-110943214D02*
X66774819Y-110705119D01*
X67774819Y-109800357D02*
X67774819Y-110371785D01*
X67774819Y-110086071D02*
X66774819Y-110086071D01*
X66774819Y-110086071D02*
X66917676Y-110181309D01*
X66917676Y-110181309D02*
X67012914Y-110276547D01*
X67012914Y-110276547D02*
X67060533Y-110371785D01*
X66774819Y-109181309D02*
X66774819Y-109086071D01*
X66774819Y-109086071D02*
X66822438Y-108990833D01*
X66822438Y-108990833D02*
X66870057Y-108943214D01*
X66870057Y-108943214D02*
X66965295Y-108895595D01*
X66965295Y-108895595D02*
X67155771Y-108847976D01*
X67155771Y-108847976D02*
X67393866Y-108847976D01*
X67393866Y-108847976D02*
X67584342Y-108895595D01*
X67584342Y-108895595D02*
X67679580Y-108943214D01*
X67679580Y-108943214D02*
X67727200Y-108990833D01*
X67727200Y-108990833D02*
X67774819Y-109086071D01*
X67774819Y-109086071D02*
X67774819Y-109181309D01*
X67774819Y-109181309D02*
X67727200Y-109276547D01*
X67727200Y-109276547D02*
X67679580Y-109324166D01*
X67679580Y-109324166D02*
X67584342Y-109371785D01*
X67584342Y-109371785D02*
X67393866Y-109419404D01*
X67393866Y-109419404D02*
X67155771Y-109419404D01*
X67155771Y-109419404D02*
X66965295Y-109371785D01*
X66965295Y-109371785D02*
X66870057Y-109324166D01*
X66870057Y-109324166D02*
X66822438Y-109276547D01*
X66822438Y-109276547D02*
X66774819Y-109181309D01*
X67727200Y-93390832D02*
X67774819Y-93247975D01*
X67774819Y-93247975D02*
X67774819Y-93009880D01*
X67774819Y-93009880D02*
X67727200Y-92914642D01*
X67727200Y-92914642D02*
X67679580Y-92867023D01*
X67679580Y-92867023D02*
X67584342Y-92819404D01*
X67584342Y-92819404D02*
X67489104Y-92819404D01*
X67489104Y-92819404D02*
X67393866Y-92867023D01*
X67393866Y-92867023D02*
X67346247Y-92914642D01*
X67346247Y-92914642D02*
X67298628Y-93009880D01*
X67298628Y-93009880D02*
X67251009Y-93200356D01*
X67251009Y-93200356D02*
X67203390Y-93295594D01*
X67203390Y-93295594D02*
X67155771Y-93343213D01*
X67155771Y-93343213D02*
X67060533Y-93390832D01*
X67060533Y-93390832D02*
X66965295Y-93390832D01*
X66965295Y-93390832D02*
X66870057Y-93343213D01*
X66870057Y-93343213D02*
X66822438Y-93295594D01*
X66822438Y-93295594D02*
X66774819Y-93200356D01*
X66774819Y-93200356D02*
X66774819Y-92962261D01*
X66774819Y-92962261D02*
X66822438Y-92819404D01*
X66774819Y-92486070D02*
X67774819Y-92247975D01*
X67774819Y-92247975D02*
X67060533Y-92057499D01*
X67060533Y-92057499D02*
X67774819Y-91867023D01*
X67774819Y-91867023D02*
X66774819Y-91628928D01*
X66870057Y-91295594D02*
X66822438Y-91247975D01*
X66822438Y-91247975D02*
X66774819Y-91152737D01*
X66774819Y-91152737D02*
X66774819Y-90914642D01*
X66774819Y-90914642D02*
X66822438Y-90819404D01*
X66822438Y-90819404D02*
X66870057Y-90771785D01*
X66870057Y-90771785D02*
X66965295Y-90724166D01*
X66965295Y-90724166D02*
X67060533Y-90724166D01*
X67060533Y-90724166D02*
X67203390Y-90771785D01*
X67203390Y-90771785D02*
X67774819Y-91343213D01*
X67774819Y-91343213D02*
X67774819Y-90724166D01*
X128074819Y-210214404D02*
X128884342Y-210214404D01*
X128884342Y-210214404D02*
X128979580Y-210166785D01*
X128979580Y-210166785D02*
X129027200Y-210119166D01*
X129027200Y-210119166D02*
X129074819Y-210023928D01*
X129074819Y-210023928D02*
X129074819Y-209833452D01*
X129074819Y-209833452D02*
X129027200Y-209738214D01*
X129027200Y-209738214D02*
X128979580Y-209690595D01*
X128979580Y-209690595D02*
X128884342Y-209642976D01*
X128884342Y-209642976D02*
X128074819Y-209642976D01*
X128170057Y-209214404D02*
X128122438Y-209166785D01*
X128122438Y-209166785D02*
X128074819Y-209071547D01*
X128074819Y-209071547D02*
X128074819Y-208833452D01*
X128074819Y-208833452D02*
X128122438Y-208738214D01*
X128122438Y-208738214D02*
X128170057Y-208690595D01*
X128170057Y-208690595D02*
X128265295Y-208642976D01*
X128265295Y-208642976D02*
X128360533Y-208642976D01*
X128360533Y-208642976D02*
X128503390Y-208690595D01*
X128503390Y-208690595D02*
X129074819Y-209262023D01*
X129074819Y-209262023D02*
X129074819Y-208642976D01*
X143014819Y-210264404D02*
X143824342Y-210264404D01*
X143824342Y-210264404D02*
X143919580Y-210216785D01*
X143919580Y-210216785D02*
X143967200Y-210169166D01*
X143967200Y-210169166D02*
X144014819Y-210073928D01*
X144014819Y-210073928D02*
X144014819Y-209883452D01*
X144014819Y-209883452D02*
X143967200Y-209788214D01*
X143967200Y-209788214D02*
X143919580Y-209740595D01*
X143919580Y-209740595D02*
X143824342Y-209692976D01*
X143824342Y-209692976D02*
X143014819Y-209692976D01*
X143014819Y-209312023D02*
X143014819Y-208692976D01*
X143014819Y-208692976D02*
X143395771Y-209026309D01*
X143395771Y-209026309D02*
X143395771Y-208883452D01*
X143395771Y-208883452D02*
X143443390Y-208788214D01*
X143443390Y-208788214D02*
X143491009Y-208740595D01*
X143491009Y-208740595D02*
X143586247Y-208692976D01*
X143586247Y-208692976D02*
X143824342Y-208692976D01*
X143824342Y-208692976D02*
X143919580Y-208740595D01*
X143919580Y-208740595D02*
X143967200Y-208788214D01*
X143967200Y-208788214D02*
X144014819Y-208883452D01*
X144014819Y-208883452D02*
X144014819Y-209169166D01*
X144014819Y-209169166D02*
X143967200Y-209264404D01*
X143967200Y-209264404D02*
X143919580Y-209312023D01*
X230714819Y-176545594D02*
X229714819Y-176545594D01*
X230714819Y-175974166D02*
X230143390Y-176402737D01*
X229714819Y-175974166D02*
X230286247Y-176545594D01*
X230714819Y-175021785D02*
X230714819Y-175593213D01*
X230714819Y-175307499D02*
X229714819Y-175307499D01*
X229714819Y-175307499D02*
X229857676Y-175402737D01*
X229857676Y-175402737D02*
X229952914Y-175497975D01*
X229952914Y-175497975D02*
X230000533Y-175593213D01*
X135421905Y-224922319D02*
X135421905Y-223922319D01*
X135421905Y-223922319D02*
X135660000Y-223922319D01*
X135660000Y-223922319D02*
X135802857Y-223969938D01*
X135802857Y-223969938D02*
X135898095Y-224065176D01*
X135898095Y-224065176D02*
X135945714Y-224160414D01*
X135945714Y-224160414D02*
X135993333Y-224350890D01*
X135993333Y-224350890D02*
X135993333Y-224493747D01*
X135993333Y-224493747D02*
X135945714Y-224684223D01*
X135945714Y-224684223D02*
X135898095Y-224779461D01*
X135898095Y-224779461D02*
X135802857Y-224874700D01*
X135802857Y-224874700D02*
X135660000Y-224922319D01*
X135660000Y-224922319D02*
X135421905Y-224922319D01*
X136898095Y-223922319D02*
X136421905Y-223922319D01*
X136421905Y-223922319D02*
X136374286Y-224398509D01*
X136374286Y-224398509D02*
X136421905Y-224350890D01*
X136421905Y-224350890D02*
X136517143Y-224303271D01*
X136517143Y-224303271D02*
X136755238Y-224303271D01*
X136755238Y-224303271D02*
X136850476Y-224350890D01*
X136850476Y-224350890D02*
X136898095Y-224398509D01*
X136898095Y-224398509D02*
X136945714Y-224493747D01*
X136945714Y-224493747D02*
X136945714Y-224731842D01*
X136945714Y-224731842D02*
X136898095Y-224827080D01*
X136898095Y-224827080D02*
X136850476Y-224874700D01*
X136850476Y-224874700D02*
X136755238Y-224922319D01*
X136755238Y-224922319D02*
X136517143Y-224922319D01*
X136517143Y-224922319D02*
X136421905Y-224874700D01*
X136421905Y-224874700D02*
X136374286Y-224827080D01*
X178256666Y-224092319D02*
X178256666Y-224806604D01*
X178256666Y-224806604D02*
X178209047Y-224949461D01*
X178209047Y-224949461D02*
X178113809Y-225044700D01*
X178113809Y-225044700D02*
X177970952Y-225092319D01*
X177970952Y-225092319D02*
X177875714Y-225092319D01*
X178875714Y-224520890D02*
X178780476Y-224473271D01*
X178780476Y-224473271D02*
X178732857Y-224425652D01*
X178732857Y-224425652D02*
X178685238Y-224330414D01*
X178685238Y-224330414D02*
X178685238Y-224282795D01*
X178685238Y-224282795D02*
X178732857Y-224187557D01*
X178732857Y-224187557D02*
X178780476Y-224139938D01*
X178780476Y-224139938D02*
X178875714Y-224092319D01*
X178875714Y-224092319D02*
X179066190Y-224092319D01*
X179066190Y-224092319D02*
X179161428Y-224139938D01*
X179161428Y-224139938D02*
X179209047Y-224187557D01*
X179209047Y-224187557D02*
X179256666Y-224282795D01*
X179256666Y-224282795D02*
X179256666Y-224330414D01*
X179256666Y-224330414D02*
X179209047Y-224425652D01*
X179209047Y-224425652D02*
X179161428Y-224473271D01*
X179161428Y-224473271D02*
X179066190Y-224520890D01*
X179066190Y-224520890D02*
X178875714Y-224520890D01*
X178875714Y-224520890D02*
X178780476Y-224568509D01*
X178780476Y-224568509D02*
X178732857Y-224616128D01*
X178732857Y-224616128D02*
X178685238Y-224711366D01*
X178685238Y-224711366D02*
X178685238Y-224901842D01*
X178685238Y-224901842D02*
X178732857Y-224997080D01*
X178732857Y-224997080D02*
X178780476Y-225044700D01*
X178780476Y-225044700D02*
X178875714Y-225092319D01*
X178875714Y-225092319D02*
X179066190Y-225092319D01*
X179066190Y-225092319D02*
X179161428Y-225044700D01*
X179161428Y-225044700D02*
X179209047Y-224997080D01*
X179209047Y-224997080D02*
X179256666Y-224901842D01*
X179256666Y-224901842D02*
X179256666Y-224711366D01*
X179256666Y-224711366D02*
X179209047Y-224616128D01*
X179209047Y-224616128D02*
X179161428Y-224568509D01*
X179161428Y-224568509D02*
X179066190Y-224520890D01*
X78897142Y-208542080D02*
X78849523Y-208589700D01*
X78849523Y-208589700D02*
X78706666Y-208637319D01*
X78706666Y-208637319D02*
X78611428Y-208637319D01*
X78611428Y-208637319D02*
X78468571Y-208589700D01*
X78468571Y-208589700D02*
X78373333Y-208494461D01*
X78373333Y-208494461D02*
X78325714Y-208399223D01*
X78325714Y-208399223D02*
X78278095Y-208208747D01*
X78278095Y-208208747D02*
X78278095Y-208065890D01*
X78278095Y-208065890D02*
X78325714Y-207875414D01*
X78325714Y-207875414D02*
X78373333Y-207780176D01*
X78373333Y-207780176D02*
X78468571Y-207684938D01*
X78468571Y-207684938D02*
X78611428Y-207637319D01*
X78611428Y-207637319D02*
X78706666Y-207637319D01*
X78706666Y-207637319D02*
X78849523Y-207684938D01*
X78849523Y-207684938D02*
X78897142Y-207732557D01*
X79849523Y-208637319D02*
X79278095Y-208637319D01*
X79563809Y-208637319D02*
X79563809Y-207637319D01*
X79563809Y-207637319D02*
X79468571Y-207780176D01*
X79468571Y-207780176D02*
X79373333Y-207875414D01*
X79373333Y-207875414D02*
X79278095Y-207923033D01*
X80325714Y-208637319D02*
X80516190Y-208637319D01*
X80516190Y-208637319D02*
X80611428Y-208589700D01*
X80611428Y-208589700D02*
X80659047Y-208542080D01*
X80659047Y-208542080D02*
X80754285Y-208399223D01*
X80754285Y-208399223D02*
X80801904Y-208208747D01*
X80801904Y-208208747D02*
X80801904Y-207827795D01*
X80801904Y-207827795D02*
X80754285Y-207732557D01*
X80754285Y-207732557D02*
X80706666Y-207684938D01*
X80706666Y-207684938D02*
X80611428Y-207637319D01*
X80611428Y-207637319D02*
X80420952Y-207637319D01*
X80420952Y-207637319D02*
X80325714Y-207684938D01*
X80325714Y-207684938D02*
X80278095Y-207732557D01*
X80278095Y-207732557D02*
X80230476Y-207827795D01*
X80230476Y-207827795D02*
X80230476Y-208065890D01*
X80230476Y-208065890D02*
X80278095Y-208161128D01*
X80278095Y-208161128D02*
X80325714Y-208208747D01*
X80325714Y-208208747D02*
X80420952Y-208256366D01*
X80420952Y-208256366D02*
X80611428Y-208256366D01*
X80611428Y-208256366D02*
X80706666Y-208208747D01*
X80706666Y-208208747D02*
X80754285Y-208161128D01*
X80754285Y-208161128D02*
X80801904Y-208065890D01*
X107829580Y-60260357D02*
X107877200Y-60307976D01*
X107877200Y-60307976D02*
X107924819Y-60450833D01*
X107924819Y-60450833D02*
X107924819Y-60546071D01*
X107924819Y-60546071D02*
X107877200Y-60688928D01*
X107877200Y-60688928D02*
X107781961Y-60784166D01*
X107781961Y-60784166D02*
X107686723Y-60831785D01*
X107686723Y-60831785D02*
X107496247Y-60879404D01*
X107496247Y-60879404D02*
X107353390Y-60879404D01*
X107353390Y-60879404D02*
X107162914Y-60831785D01*
X107162914Y-60831785D02*
X107067676Y-60784166D01*
X107067676Y-60784166D02*
X106972438Y-60688928D01*
X106972438Y-60688928D02*
X106924819Y-60546071D01*
X106924819Y-60546071D02*
X106924819Y-60450833D01*
X106924819Y-60450833D02*
X106972438Y-60307976D01*
X106972438Y-60307976D02*
X107020057Y-60260357D01*
X107924819Y-59307976D02*
X107924819Y-59879404D01*
X107924819Y-59593690D02*
X106924819Y-59593690D01*
X106924819Y-59593690D02*
X107067676Y-59688928D01*
X107067676Y-59688928D02*
X107162914Y-59784166D01*
X107162914Y-59784166D02*
X107210533Y-59879404D01*
X107258152Y-58450833D02*
X107924819Y-58450833D01*
X106877200Y-58688928D02*
X107591485Y-58927023D01*
X107591485Y-58927023D02*
X107591485Y-58307976D01*
X148169580Y-128450357D02*
X148217200Y-128497976D01*
X148217200Y-128497976D02*
X148264819Y-128640833D01*
X148264819Y-128640833D02*
X148264819Y-128736071D01*
X148264819Y-128736071D02*
X148217200Y-128878928D01*
X148217200Y-128878928D02*
X148121961Y-128974166D01*
X148121961Y-128974166D02*
X148026723Y-129021785D01*
X148026723Y-129021785D02*
X147836247Y-129069404D01*
X147836247Y-129069404D02*
X147693390Y-129069404D01*
X147693390Y-129069404D02*
X147502914Y-129021785D01*
X147502914Y-129021785D02*
X147407676Y-128974166D01*
X147407676Y-128974166D02*
X147312438Y-128878928D01*
X147312438Y-128878928D02*
X147264819Y-128736071D01*
X147264819Y-128736071D02*
X147264819Y-128640833D01*
X147264819Y-128640833D02*
X147312438Y-128497976D01*
X147312438Y-128497976D02*
X147360057Y-128450357D01*
X148264819Y-127497976D02*
X148264819Y-128069404D01*
X148264819Y-127783690D02*
X147264819Y-127783690D01*
X147264819Y-127783690D02*
X147407676Y-127878928D01*
X147407676Y-127878928D02*
X147502914Y-127974166D01*
X147502914Y-127974166D02*
X147550533Y-128069404D01*
X147264819Y-126878928D02*
X147264819Y-126783690D01*
X147264819Y-126783690D02*
X147312438Y-126688452D01*
X147312438Y-126688452D02*
X147360057Y-126640833D01*
X147360057Y-126640833D02*
X147455295Y-126593214D01*
X147455295Y-126593214D02*
X147645771Y-126545595D01*
X147645771Y-126545595D02*
X147883866Y-126545595D01*
X147883866Y-126545595D02*
X148074342Y-126593214D01*
X148074342Y-126593214D02*
X148169580Y-126640833D01*
X148169580Y-126640833D02*
X148217200Y-126688452D01*
X148217200Y-126688452D02*
X148264819Y-126783690D01*
X148264819Y-126783690D02*
X148264819Y-126878928D01*
X148264819Y-126878928D02*
X148217200Y-126974166D01*
X148217200Y-126974166D02*
X148169580Y-127021785D01*
X148169580Y-127021785D02*
X148074342Y-127069404D01*
X148074342Y-127069404D02*
X147883866Y-127117023D01*
X147883866Y-127117023D02*
X147645771Y-127117023D01*
X147645771Y-127117023D02*
X147455295Y-127069404D01*
X147455295Y-127069404D02*
X147360057Y-127021785D01*
X147360057Y-127021785D02*
X147312438Y-126974166D01*
X147312438Y-126974166D02*
X147264819Y-126878928D01*
X92927200Y-112467023D02*
X92974819Y-112324166D01*
X92974819Y-112324166D02*
X92974819Y-112086071D01*
X92974819Y-112086071D02*
X92927200Y-111990833D01*
X92927200Y-111990833D02*
X92879580Y-111943214D01*
X92879580Y-111943214D02*
X92784342Y-111895595D01*
X92784342Y-111895595D02*
X92689104Y-111895595D01*
X92689104Y-111895595D02*
X92593866Y-111943214D01*
X92593866Y-111943214D02*
X92546247Y-111990833D01*
X92546247Y-111990833D02*
X92498628Y-112086071D01*
X92498628Y-112086071D02*
X92451009Y-112276547D01*
X92451009Y-112276547D02*
X92403390Y-112371785D01*
X92403390Y-112371785D02*
X92355771Y-112419404D01*
X92355771Y-112419404D02*
X92260533Y-112467023D01*
X92260533Y-112467023D02*
X92165295Y-112467023D01*
X92165295Y-112467023D02*
X92070057Y-112419404D01*
X92070057Y-112419404D02*
X92022438Y-112371785D01*
X92022438Y-112371785D02*
X91974819Y-112276547D01*
X91974819Y-112276547D02*
X91974819Y-112038452D01*
X91974819Y-112038452D02*
X92022438Y-111895595D01*
X91974819Y-111562261D02*
X92974819Y-111324166D01*
X92974819Y-111324166D02*
X92260533Y-111133690D01*
X92260533Y-111133690D02*
X92974819Y-110943214D01*
X92974819Y-110943214D02*
X91974819Y-110705119D01*
X92974819Y-109800357D02*
X92974819Y-110371785D01*
X92974819Y-110086071D02*
X91974819Y-110086071D01*
X91974819Y-110086071D02*
X92117676Y-110181309D01*
X92117676Y-110181309D02*
X92212914Y-110276547D01*
X92212914Y-110276547D02*
X92260533Y-110371785D01*
X91974819Y-109467023D02*
X91974819Y-108847976D01*
X91974819Y-108847976D02*
X92355771Y-109181309D01*
X92355771Y-109181309D02*
X92355771Y-109038452D01*
X92355771Y-109038452D02*
X92403390Y-108943214D01*
X92403390Y-108943214D02*
X92451009Y-108895595D01*
X92451009Y-108895595D02*
X92546247Y-108847976D01*
X92546247Y-108847976D02*
X92784342Y-108847976D01*
X92784342Y-108847976D02*
X92879580Y-108895595D01*
X92879580Y-108895595D02*
X92927200Y-108943214D01*
X92927200Y-108943214D02*
X92974819Y-109038452D01*
X92974819Y-109038452D02*
X92974819Y-109324166D01*
X92974819Y-109324166D02*
X92927200Y-109419404D01*
X92927200Y-109419404D02*
X92879580Y-109467023D01*
X67727200Y-102690832D02*
X67774819Y-102547975D01*
X67774819Y-102547975D02*
X67774819Y-102309880D01*
X67774819Y-102309880D02*
X67727200Y-102214642D01*
X67727200Y-102214642D02*
X67679580Y-102167023D01*
X67679580Y-102167023D02*
X67584342Y-102119404D01*
X67584342Y-102119404D02*
X67489104Y-102119404D01*
X67489104Y-102119404D02*
X67393866Y-102167023D01*
X67393866Y-102167023D02*
X67346247Y-102214642D01*
X67346247Y-102214642D02*
X67298628Y-102309880D01*
X67298628Y-102309880D02*
X67251009Y-102500356D01*
X67251009Y-102500356D02*
X67203390Y-102595594D01*
X67203390Y-102595594D02*
X67155771Y-102643213D01*
X67155771Y-102643213D02*
X67060533Y-102690832D01*
X67060533Y-102690832D02*
X66965295Y-102690832D01*
X66965295Y-102690832D02*
X66870057Y-102643213D01*
X66870057Y-102643213D02*
X66822438Y-102595594D01*
X66822438Y-102595594D02*
X66774819Y-102500356D01*
X66774819Y-102500356D02*
X66774819Y-102262261D01*
X66774819Y-102262261D02*
X66822438Y-102119404D01*
X66774819Y-101786070D02*
X67774819Y-101547975D01*
X67774819Y-101547975D02*
X67060533Y-101357499D01*
X67060533Y-101357499D02*
X67774819Y-101167023D01*
X67774819Y-101167023D02*
X66774819Y-100928928D01*
X66774819Y-100119404D02*
X66774819Y-100309880D01*
X66774819Y-100309880D02*
X66822438Y-100405118D01*
X66822438Y-100405118D02*
X66870057Y-100452737D01*
X66870057Y-100452737D02*
X67012914Y-100547975D01*
X67012914Y-100547975D02*
X67203390Y-100595594D01*
X67203390Y-100595594D02*
X67584342Y-100595594D01*
X67584342Y-100595594D02*
X67679580Y-100547975D01*
X67679580Y-100547975D02*
X67727200Y-100500356D01*
X67727200Y-100500356D02*
X67774819Y-100405118D01*
X67774819Y-100405118D02*
X67774819Y-100214642D01*
X67774819Y-100214642D02*
X67727200Y-100119404D01*
X67727200Y-100119404D02*
X67679580Y-100071785D01*
X67679580Y-100071785D02*
X67584342Y-100024166D01*
X67584342Y-100024166D02*
X67346247Y-100024166D01*
X67346247Y-100024166D02*
X67251009Y-100071785D01*
X67251009Y-100071785D02*
X67203390Y-100119404D01*
X67203390Y-100119404D02*
X67155771Y-100214642D01*
X67155771Y-100214642D02*
X67155771Y-100405118D01*
X67155771Y-100405118D02*
X67203390Y-100500356D01*
X67203390Y-100500356D02*
X67251009Y-100547975D01*
X67251009Y-100547975D02*
X67346247Y-100595594D01*
X178664819Y-201061785D02*
X177664819Y-201061785D01*
X177664819Y-201061785D02*
X177664819Y-200823690D01*
X177664819Y-200823690D02*
X177712438Y-200680833D01*
X177712438Y-200680833D02*
X177807676Y-200585595D01*
X177807676Y-200585595D02*
X177902914Y-200537976D01*
X177902914Y-200537976D02*
X178093390Y-200490357D01*
X178093390Y-200490357D02*
X178236247Y-200490357D01*
X178236247Y-200490357D02*
X178426723Y-200537976D01*
X178426723Y-200537976D02*
X178521961Y-200585595D01*
X178521961Y-200585595D02*
X178617200Y-200680833D01*
X178617200Y-200680833D02*
X178664819Y-200823690D01*
X178664819Y-200823690D02*
X178664819Y-201061785D01*
X178664819Y-199537976D02*
X178664819Y-200109404D01*
X178664819Y-199823690D02*
X177664819Y-199823690D01*
X177664819Y-199823690D02*
X177807676Y-199918928D01*
X177807676Y-199918928D02*
X177902914Y-200014166D01*
X177902914Y-200014166D02*
X177950533Y-200109404D01*
X177760057Y-199157023D02*
X177712438Y-199109404D01*
X177712438Y-199109404D02*
X177664819Y-199014166D01*
X177664819Y-199014166D02*
X177664819Y-198776071D01*
X177664819Y-198776071D02*
X177712438Y-198680833D01*
X177712438Y-198680833D02*
X177760057Y-198633214D01*
X177760057Y-198633214D02*
X177855295Y-198585595D01*
X177855295Y-198585595D02*
X177950533Y-198585595D01*
X177950533Y-198585595D02*
X178093390Y-198633214D01*
X178093390Y-198633214D02*
X178664819Y-199204642D01*
X178664819Y-199204642D02*
X178664819Y-198585595D01*
X178744819Y-196319404D02*
X177744819Y-196319404D01*
X178744819Y-195747976D02*
X178173390Y-196176547D01*
X177744819Y-195747976D02*
X178316247Y-196319404D01*
X84527200Y-121767023D02*
X84574819Y-121624166D01*
X84574819Y-121624166D02*
X84574819Y-121386071D01*
X84574819Y-121386071D02*
X84527200Y-121290833D01*
X84527200Y-121290833D02*
X84479580Y-121243214D01*
X84479580Y-121243214D02*
X84384342Y-121195595D01*
X84384342Y-121195595D02*
X84289104Y-121195595D01*
X84289104Y-121195595D02*
X84193866Y-121243214D01*
X84193866Y-121243214D02*
X84146247Y-121290833D01*
X84146247Y-121290833D02*
X84098628Y-121386071D01*
X84098628Y-121386071D02*
X84051009Y-121576547D01*
X84051009Y-121576547D02*
X84003390Y-121671785D01*
X84003390Y-121671785D02*
X83955771Y-121719404D01*
X83955771Y-121719404D02*
X83860533Y-121767023D01*
X83860533Y-121767023D02*
X83765295Y-121767023D01*
X83765295Y-121767023D02*
X83670057Y-121719404D01*
X83670057Y-121719404D02*
X83622438Y-121671785D01*
X83622438Y-121671785D02*
X83574819Y-121576547D01*
X83574819Y-121576547D02*
X83574819Y-121338452D01*
X83574819Y-121338452D02*
X83622438Y-121195595D01*
X83574819Y-120862261D02*
X84574819Y-120624166D01*
X84574819Y-120624166D02*
X83860533Y-120433690D01*
X83860533Y-120433690D02*
X84574819Y-120243214D01*
X84574819Y-120243214D02*
X83574819Y-120005119D01*
X84574819Y-119100357D02*
X84574819Y-119671785D01*
X84574819Y-119386071D02*
X83574819Y-119386071D01*
X83574819Y-119386071D02*
X83717676Y-119481309D01*
X83717676Y-119481309D02*
X83812914Y-119576547D01*
X83812914Y-119576547D02*
X83860533Y-119671785D01*
X83574819Y-118243214D02*
X83574819Y-118433690D01*
X83574819Y-118433690D02*
X83622438Y-118528928D01*
X83622438Y-118528928D02*
X83670057Y-118576547D01*
X83670057Y-118576547D02*
X83812914Y-118671785D01*
X83812914Y-118671785D02*
X84003390Y-118719404D01*
X84003390Y-118719404D02*
X84384342Y-118719404D01*
X84384342Y-118719404D02*
X84479580Y-118671785D01*
X84479580Y-118671785D02*
X84527200Y-118624166D01*
X84527200Y-118624166D02*
X84574819Y-118528928D01*
X84574819Y-118528928D02*
X84574819Y-118338452D01*
X84574819Y-118338452D02*
X84527200Y-118243214D01*
X84527200Y-118243214D02*
X84479580Y-118195595D01*
X84479580Y-118195595D02*
X84384342Y-118147976D01*
X84384342Y-118147976D02*
X84146247Y-118147976D01*
X84146247Y-118147976D02*
X84051009Y-118195595D01*
X84051009Y-118195595D02*
X84003390Y-118243214D01*
X84003390Y-118243214D02*
X83955771Y-118338452D01*
X83955771Y-118338452D02*
X83955771Y-118528928D01*
X83955771Y-118528928D02*
X84003390Y-118624166D01*
X84003390Y-118624166D02*
X84051009Y-118671785D01*
X84051009Y-118671785D02*
X84146247Y-118719404D01*
X201310057Y-178262738D02*
X201262438Y-178357976D01*
X201262438Y-178357976D02*
X201167200Y-178453214D01*
X201167200Y-178453214D02*
X201024342Y-178596071D01*
X201024342Y-178596071D02*
X200976723Y-178691309D01*
X200976723Y-178691309D02*
X200976723Y-178786547D01*
X201214819Y-178738928D02*
X201167200Y-178834166D01*
X201167200Y-178834166D02*
X201071961Y-178929404D01*
X201071961Y-178929404D02*
X200881485Y-178977023D01*
X200881485Y-178977023D02*
X200548152Y-178977023D01*
X200548152Y-178977023D02*
X200357676Y-178929404D01*
X200357676Y-178929404D02*
X200262438Y-178834166D01*
X200262438Y-178834166D02*
X200214819Y-178738928D01*
X200214819Y-178738928D02*
X200214819Y-178548452D01*
X200214819Y-178548452D02*
X200262438Y-178453214D01*
X200262438Y-178453214D02*
X200357676Y-178357976D01*
X200357676Y-178357976D02*
X200548152Y-178310357D01*
X200548152Y-178310357D02*
X200881485Y-178310357D01*
X200881485Y-178310357D02*
X201071961Y-178357976D01*
X201071961Y-178357976D02*
X201167200Y-178453214D01*
X201167200Y-178453214D02*
X201214819Y-178548452D01*
X201214819Y-178548452D02*
X201214819Y-178738928D01*
X201214819Y-177357976D02*
X201214819Y-177929404D01*
X201214819Y-177643690D02*
X200214819Y-177643690D01*
X200214819Y-177643690D02*
X200357676Y-177738928D01*
X200357676Y-177738928D02*
X200452914Y-177834166D01*
X200452914Y-177834166D02*
X200500533Y-177929404D01*
X148464819Y-200355594D02*
X147464819Y-200355594D01*
X147464819Y-200355594D02*
X147464819Y-200117499D01*
X147464819Y-200117499D02*
X147512438Y-199974642D01*
X147512438Y-199974642D02*
X147607676Y-199879404D01*
X147607676Y-199879404D02*
X147702914Y-199831785D01*
X147702914Y-199831785D02*
X147893390Y-199784166D01*
X147893390Y-199784166D02*
X148036247Y-199784166D01*
X148036247Y-199784166D02*
X148226723Y-199831785D01*
X148226723Y-199831785D02*
X148321961Y-199879404D01*
X148321961Y-199879404D02*
X148417200Y-199974642D01*
X148417200Y-199974642D02*
X148464819Y-200117499D01*
X148464819Y-200117499D02*
X148464819Y-200355594D01*
X147893390Y-199212737D02*
X147845771Y-199307975D01*
X147845771Y-199307975D02*
X147798152Y-199355594D01*
X147798152Y-199355594D02*
X147702914Y-199403213D01*
X147702914Y-199403213D02*
X147655295Y-199403213D01*
X147655295Y-199403213D02*
X147560057Y-199355594D01*
X147560057Y-199355594D02*
X147512438Y-199307975D01*
X147512438Y-199307975D02*
X147464819Y-199212737D01*
X147464819Y-199212737D02*
X147464819Y-199022261D01*
X147464819Y-199022261D02*
X147512438Y-198927023D01*
X147512438Y-198927023D02*
X147560057Y-198879404D01*
X147560057Y-198879404D02*
X147655295Y-198831785D01*
X147655295Y-198831785D02*
X147702914Y-198831785D01*
X147702914Y-198831785D02*
X147798152Y-198879404D01*
X147798152Y-198879404D02*
X147845771Y-198927023D01*
X147845771Y-198927023D02*
X147893390Y-199022261D01*
X147893390Y-199022261D02*
X147893390Y-199212737D01*
X147893390Y-199212737D02*
X147941009Y-199307975D01*
X147941009Y-199307975D02*
X147988628Y-199355594D01*
X147988628Y-199355594D02*
X148083866Y-199403213D01*
X148083866Y-199403213D02*
X148274342Y-199403213D01*
X148274342Y-199403213D02*
X148369580Y-199355594D01*
X148369580Y-199355594D02*
X148417200Y-199307975D01*
X148417200Y-199307975D02*
X148464819Y-199212737D01*
X148464819Y-199212737D02*
X148464819Y-199022261D01*
X148464819Y-199022261D02*
X148417200Y-198927023D01*
X148417200Y-198927023D02*
X148369580Y-198879404D01*
X148369580Y-198879404D02*
X148274342Y-198831785D01*
X148274342Y-198831785D02*
X148083866Y-198831785D01*
X148083866Y-198831785D02*
X147988628Y-198879404D01*
X147988628Y-198879404D02*
X147941009Y-198927023D01*
X147941009Y-198927023D02*
X147893390Y-199022261D01*
X148444819Y-196069404D02*
X147444819Y-196069404D01*
X148444819Y-195497976D02*
X147873390Y-195926547D01*
X147444819Y-195497976D02*
X148016247Y-196069404D01*
X76127200Y-93390832D02*
X76174819Y-93247975D01*
X76174819Y-93247975D02*
X76174819Y-93009880D01*
X76174819Y-93009880D02*
X76127200Y-92914642D01*
X76127200Y-92914642D02*
X76079580Y-92867023D01*
X76079580Y-92867023D02*
X75984342Y-92819404D01*
X75984342Y-92819404D02*
X75889104Y-92819404D01*
X75889104Y-92819404D02*
X75793866Y-92867023D01*
X75793866Y-92867023D02*
X75746247Y-92914642D01*
X75746247Y-92914642D02*
X75698628Y-93009880D01*
X75698628Y-93009880D02*
X75651009Y-93200356D01*
X75651009Y-93200356D02*
X75603390Y-93295594D01*
X75603390Y-93295594D02*
X75555771Y-93343213D01*
X75555771Y-93343213D02*
X75460533Y-93390832D01*
X75460533Y-93390832D02*
X75365295Y-93390832D01*
X75365295Y-93390832D02*
X75270057Y-93343213D01*
X75270057Y-93343213D02*
X75222438Y-93295594D01*
X75222438Y-93295594D02*
X75174819Y-93200356D01*
X75174819Y-93200356D02*
X75174819Y-92962261D01*
X75174819Y-92962261D02*
X75222438Y-92819404D01*
X75174819Y-92486070D02*
X76174819Y-92247975D01*
X76174819Y-92247975D02*
X75460533Y-92057499D01*
X75460533Y-92057499D02*
X76174819Y-91867023D01*
X76174819Y-91867023D02*
X75174819Y-91628928D01*
X75174819Y-91343213D02*
X75174819Y-90724166D01*
X75174819Y-90724166D02*
X75555771Y-91057499D01*
X75555771Y-91057499D02*
X75555771Y-90914642D01*
X75555771Y-90914642D02*
X75603390Y-90819404D01*
X75603390Y-90819404D02*
X75651009Y-90771785D01*
X75651009Y-90771785D02*
X75746247Y-90724166D01*
X75746247Y-90724166D02*
X75984342Y-90724166D01*
X75984342Y-90724166D02*
X76079580Y-90771785D01*
X76079580Y-90771785D02*
X76127200Y-90819404D01*
X76127200Y-90819404D02*
X76174819Y-90914642D01*
X76174819Y-90914642D02*
X76174819Y-91200356D01*
X76174819Y-91200356D02*
X76127200Y-91295594D01*
X76127200Y-91295594D02*
X76079580Y-91343213D01*
X74164819Y-184304404D02*
X74974342Y-184304404D01*
X74974342Y-184304404D02*
X75069580Y-184256785D01*
X75069580Y-184256785D02*
X75117200Y-184209166D01*
X75117200Y-184209166D02*
X75164819Y-184113928D01*
X75164819Y-184113928D02*
X75164819Y-183923452D01*
X75164819Y-183923452D02*
X75117200Y-183828214D01*
X75117200Y-183828214D02*
X75069580Y-183780595D01*
X75069580Y-183780595D02*
X74974342Y-183732976D01*
X74974342Y-183732976D02*
X74164819Y-183732976D01*
X74164819Y-183352023D02*
X74164819Y-182685357D01*
X74164819Y-182685357D02*
X75164819Y-183113928D01*
X83447142Y-176317319D02*
X83113809Y-175841128D01*
X82875714Y-176317319D02*
X82875714Y-175317319D01*
X82875714Y-175317319D02*
X83256666Y-175317319D01*
X83256666Y-175317319D02*
X83351904Y-175364938D01*
X83351904Y-175364938D02*
X83399523Y-175412557D01*
X83399523Y-175412557D02*
X83447142Y-175507795D01*
X83447142Y-175507795D02*
X83447142Y-175650652D01*
X83447142Y-175650652D02*
X83399523Y-175745890D01*
X83399523Y-175745890D02*
X83351904Y-175793509D01*
X83351904Y-175793509D02*
X83256666Y-175841128D01*
X83256666Y-175841128D02*
X82875714Y-175841128D01*
X83828095Y-175412557D02*
X83875714Y-175364938D01*
X83875714Y-175364938D02*
X83970952Y-175317319D01*
X83970952Y-175317319D02*
X84209047Y-175317319D01*
X84209047Y-175317319D02*
X84304285Y-175364938D01*
X84304285Y-175364938D02*
X84351904Y-175412557D01*
X84351904Y-175412557D02*
X84399523Y-175507795D01*
X84399523Y-175507795D02*
X84399523Y-175603033D01*
X84399523Y-175603033D02*
X84351904Y-175745890D01*
X84351904Y-175745890D02*
X83780476Y-176317319D01*
X83780476Y-176317319D02*
X84399523Y-176317319D01*
X84780476Y-175412557D02*
X84828095Y-175364938D01*
X84828095Y-175364938D02*
X84923333Y-175317319D01*
X84923333Y-175317319D02*
X85161428Y-175317319D01*
X85161428Y-175317319D02*
X85256666Y-175364938D01*
X85256666Y-175364938D02*
X85304285Y-175412557D01*
X85304285Y-175412557D02*
X85351904Y-175507795D01*
X85351904Y-175507795D02*
X85351904Y-175603033D01*
X85351904Y-175603033D02*
X85304285Y-175745890D01*
X85304285Y-175745890D02*
X84732857Y-176317319D01*
X84732857Y-176317319D02*
X85351904Y-176317319D01*
D11*
%TO.C,R14*%
X164080000Y-196680436D02*
X164080000Y-198134564D01*
X165900000Y-196680436D02*
X165900000Y-198134564D01*
%TO.C,R21*%
X152740000Y-103907500D02*
X152740000Y-104237500D01*
X152740000Y-106647500D02*
X152740000Y-106317500D01*
X159280000Y-103907500D02*
X152740000Y-103907500D01*
X159280000Y-104237500D02*
X159280000Y-103907500D01*
X159280000Y-106317500D02*
X159280000Y-106647500D01*
X159280000Y-106647500D02*
X152740000Y-106647500D01*
%TO.C,U8*%
X96550000Y-180957500D02*
X96550000Y-182607500D01*
X96550000Y-184607500D02*
X96550000Y-186257500D01*
X96550000Y-186257500D02*
X106830000Y-186257500D01*
X106830000Y-180957500D02*
X96550000Y-180957500D01*
X106830000Y-186257500D02*
X106830000Y-180957500D01*
X96550000Y-182607500D02*
G75*
G02*
X96550000Y-184607500I0J-1000000D01*
G01*
%TO.C,D1*%
X205660000Y-167997500D02*
X205660000Y-168647500D01*
X205660000Y-173537500D02*
X205660000Y-172887500D01*
X206780000Y-169247500D02*
X204540000Y-169247500D01*
X206780000Y-169367500D02*
X204540000Y-169367500D01*
X206780000Y-169487500D02*
X204540000Y-169487500D01*
X206780000Y-168647500D02*
X204540000Y-168647500D01*
X204540000Y-172887500D01*
X206780000Y-172887500D01*
X206780000Y-168647500D01*
%TO.C,R4*%
X193500000Y-140997500D02*
X200040000Y-140997500D01*
X193500000Y-141327500D02*
X193500000Y-140997500D01*
X193500000Y-143407500D02*
X193500000Y-143737500D01*
X193500000Y-143737500D02*
X200040000Y-143737500D01*
X200040000Y-140997500D02*
X200040000Y-141327500D01*
X200040000Y-143737500D02*
X200040000Y-143407500D01*
%TO.C,SW15*%
X76750000Y-116747500D02*
X76750000Y-123167500D01*
X76750000Y-123167500D02*
X77030000Y-123167500D01*
X77160000Y-116747500D02*
X76750000Y-116747500D01*
X78760000Y-123167500D02*
X81160000Y-123167500D01*
X81160000Y-116747500D02*
X78760000Y-116747500D01*
X82760000Y-123167500D02*
X83170000Y-123167500D01*
X83170000Y-116747500D02*
X82760000Y-116747500D01*
X83170000Y-123167500D02*
X83170000Y-116747500D01*
%TO.C,R24*%
X99272936Y-188982500D02*
X99727064Y-188982500D01*
X99272936Y-190452500D02*
X99727064Y-190452500D01*
%TO.C,R5*%
X193080000Y-125887500D02*
X199620000Y-125887500D01*
X193080000Y-126217500D02*
X193080000Y-125887500D01*
X193080000Y-128297500D02*
X193080000Y-128627500D01*
X193080000Y-128627500D02*
X199620000Y-128627500D01*
X199620000Y-125887500D02*
X199620000Y-126217500D01*
X199620000Y-128627500D02*
X199620000Y-128297500D01*
%TO.C,R3*%
X193480000Y-157097500D02*
X200020000Y-157097500D01*
X193480000Y-157427500D02*
X193480000Y-157097500D01*
X193480000Y-159507500D02*
X193480000Y-159837500D01*
X193480000Y-159837500D02*
X200020000Y-159837500D01*
X200020000Y-157097500D02*
X200020000Y-157427500D01*
X200020000Y-159837500D02*
X200020000Y-159507500D01*
%TO.C,K3*%
X209510000Y-132007500D02*
X209510000Y-138607500D01*
X209510000Y-132007500D02*
X229310000Y-132007500D01*
X209510000Y-141007500D02*
X209510000Y-147607500D01*
X213560000Y-139857500D02*
X212760000Y-139857500D01*
X213560000Y-139857500D02*
X213560000Y-143457500D01*
X214460000Y-145857500D02*
X216960000Y-145857500D01*
X214960000Y-138057500D02*
X218960000Y-138057500D01*
X214960000Y-141657500D02*
X214960000Y-138057500D01*
X216960000Y-133857500D02*
X214460000Y-133857500D01*
X216960000Y-133857500D02*
X216960000Y-138057500D01*
X216960000Y-141657500D02*
X216960000Y-145857500D01*
X218960000Y-138057500D02*
X218960000Y-141657500D01*
X218960000Y-141657500D02*
X214960000Y-138057500D01*
X218960000Y-141657500D02*
X214960000Y-141657500D01*
X220360000Y-139857500D02*
X220360000Y-143457500D01*
X220360000Y-139857500D02*
X221860000Y-139857500D01*
X220360000Y-143457500D02*
X213560000Y-143457500D01*
X221860000Y-139857500D02*
X226460000Y-137357500D01*
X225060000Y-135607500D02*
X225060000Y-138107500D01*
X225060000Y-144007500D02*
X225060000Y-141557500D01*
X229310000Y-132007500D02*
X229310000Y-147607500D01*
X229310000Y-147607500D02*
X209510000Y-147607500D01*
%TO.C,R17*%
X179780000Y-196880436D02*
X179780000Y-198334564D01*
X181600000Y-196880436D02*
X181600000Y-198334564D01*
%TO.C,J7*%
X158170000Y-225510000D02*
X168410000Y-225510000D01*
X158170000Y-228530000D02*
X168410000Y-228530000D01*
X158170000Y-233430000D02*
X168410000Y-233430000D01*
X158170000Y-234930000D02*
X168410000Y-234930000D01*
X158170000Y-235550000D02*
X158170000Y-225510000D01*
X160490000Y-235550000D02*
X158170000Y-235550000D01*
X168410000Y-225510000D02*
X168410000Y-235550000D01*
X168410000Y-235550000D02*
X161090000Y-235550000D01*
X161230000Y-236160000D02*
X160350000Y-236160000D01*
X160790000Y-235550000D01*
X161230000Y-236160000D01*
G36*
X161230000Y-236160000D02*
G01*
X160350000Y-236160000D01*
X160790000Y-235550000D01*
X161230000Y-236160000D01*
G37*
%TO.C,SW8*%
X85150000Y-98147500D02*
X85150000Y-104567500D01*
X85150000Y-104567500D02*
X85430000Y-104567500D01*
X85560000Y-98147500D02*
X85150000Y-98147500D01*
X87160000Y-104567500D02*
X89560000Y-104567500D01*
X89560000Y-98147500D02*
X87160000Y-98147500D01*
X91160000Y-104567500D02*
X91570000Y-104567500D01*
X91570000Y-98147500D02*
X91160000Y-98147500D01*
X91570000Y-104567500D02*
X91570000Y-98147500D01*
%TO.C,R11*%
X149180000Y-196580436D02*
X149180000Y-198034564D01*
X151000000Y-196580436D02*
X151000000Y-198034564D01*
%TO.C,Y1*%
X147460000Y-155647500D02*
X152460000Y-155647500D01*
X152460000Y-160867500D02*
X147460000Y-160867500D01*
X147460000Y-160867500D02*
G75*
G02*
X147460000Y-155647500I0J2610000D01*
G01*
X152460000Y-155647500D02*
G75*
G02*
X152460000Y-160867500I0J-2610000D01*
G01*
%TO.C,J14*%
X134825000Y-115822500D02*
X136205000Y-115822500D01*
X134825000Y-117202500D02*
X134825000Y-115822500D01*
X134825000Y-118472500D02*
X134825000Y-123662500D01*
X134825000Y-118472500D02*
X137585000Y-118472500D01*
X134825000Y-123662500D02*
X137585000Y-123662500D01*
X137585000Y-118472500D02*
X137585000Y-123662500D01*
%TO.C,R19*%
X156365000Y-126232500D02*
X156365000Y-126562500D01*
X156365000Y-128972500D02*
X156365000Y-128642500D01*
X162905000Y-126232500D02*
X156365000Y-126232500D01*
X162905000Y-126562500D02*
X162905000Y-126232500D01*
X162905000Y-128642500D02*
X162905000Y-128972500D01*
X162905000Y-128972500D02*
X156365000Y-128972500D01*
%TO.C,D4*%
X205860000Y-119697500D02*
X205860000Y-120347500D01*
X205860000Y-125237500D02*
X205860000Y-124587500D01*
X206980000Y-120947500D02*
X204740000Y-120947500D01*
X206980000Y-121067500D02*
X204740000Y-121067500D01*
X206980000Y-121187500D02*
X204740000Y-121187500D01*
X206980000Y-120347500D02*
X204740000Y-120347500D01*
X204740000Y-124587500D01*
X206980000Y-124587500D01*
X206980000Y-120347500D01*
%TO.C,R1*%
X132425000Y-148130436D02*
X132425000Y-148584564D01*
X133895000Y-148130436D02*
X133895000Y-148584564D01*
%TO.C,J15*%
X166620000Y-106647500D02*
X175740000Y-106647500D01*
X166620000Y-124687500D02*
X166620000Y-106647500D01*
X167930000Y-107947500D02*
X174430000Y-107947500D01*
X167930000Y-123387500D02*
X167930000Y-107947500D01*
X174430000Y-107947500D02*
X174430000Y-113617500D01*
X174430000Y-113617500D02*
X175740000Y-113617500D01*
X174430000Y-117717500D02*
X174430000Y-123387500D01*
X174430000Y-123387500D02*
X167930000Y-123387500D01*
X175740000Y-106647500D02*
X175740000Y-124687500D01*
X175740000Y-117717500D02*
X174430000Y-117717500D01*
X175740000Y-124687500D02*
X166620000Y-124687500D01*
X176130000Y-119477500D02*
X177130000Y-119977500D01*
X177130000Y-118977500D02*
X176130000Y-119477500D01*
X177130000Y-119977500D02*
X177130000Y-118977500D01*
%TO.C,D7*%
X152650000Y-220427500D02*
X152650000Y-220271500D01*
X152650000Y-222743500D02*
X152650000Y-222587500D01*
X149418563Y-220427500D02*
G75*
G02*
X152650000Y-220271984I1671437J-1080000D01*
G01*
X150049039Y-220427500D02*
G75*
G02*
X152130961Y-220427500I1040961J-1080000D01*
G01*
X152130961Y-222587500D02*
G75*
G02*
X150049039Y-222587500I-1040961J1080000D01*
G01*
X152650000Y-222743016D02*
G75*
G02*
X149418563Y-222587500I-1560000J1235516D01*
G01*
%TO.C,C15*%
X101410000Y-81840500D02*
X101410000Y-81274500D01*
X101450000Y-82074500D02*
X101450000Y-81040500D01*
X101490000Y-82234500D02*
X101490000Y-80880500D01*
X101530000Y-82362500D02*
X101530000Y-80752500D01*
X101570000Y-82471500D02*
X101570000Y-80643500D01*
X101610000Y-82568500D02*
X101610000Y-80546500D01*
X101650000Y-82655500D02*
X101650000Y-80459500D01*
X101690000Y-82734500D02*
X101690000Y-80380500D01*
X101730000Y-80517500D02*
X101730000Y-80306500D01*
X101730000Y-82808500D02*
X101730000Y-82597500D01*
X101770000Y-80517500D02*
X101770000Y-80238500D01*
X101770000Y-82876500D02*
X101770000Y-82597500D01*
X101810000Y-80517500D02*
X101810000Y-80174500D01*
X101810000Y-82940500D02*
X101810000Y-82597500D01*
X101850000Y-80517500D02*
X101850000Y-80114500D01*
X101850000Y-83000500D02*
X101850000Y-82597500D01*
X101890000Y-80517500D02*
X101890000Y-80058500D01*
X101890000Y-83056500D02*
X101890000Y-82597500D01*
X101930000Y-80517500D02*
X101930000Y-80004500D01*
X101930000Y-83110500D02*
X101930000Y-82597500D01*
X101970000Y-80517500D02*
X101970000Y-79953500D01*
X101970000Y-83161500D02*
X101970000Y-82597500D01*
X102010000Y-80517500D02*
X102010000Y-79905500D01*
X102010000Y-83209500D02*
X102010000Y-82597500D01*
X102050000Y-80517500D02*
X102050000Y-79858500D01*
X102050000Y-83256500D02*
X102050000Y-82597500D01*
X102090000Y-80517500D02*
X102090000Y-79814500D01*
X102090000Y-83300500D02*
X102090000Y-82597500D01*
X102130000Y-80517500D02*
X102130000Y-79772500D01*
X102130000Y-83342500D02*
X102130000Y-82597500D01*
X102170000Y-80517500D02*
X102170000Y-79732500D01*
X102170000Y-83382500D02*
X102170000Y-82597500D01*
X102210000Y-80517500D02*
X102210000Y-79693500D01*
X102210000Y-83421500D02*
X102210000Y-82597500D01*
X102250000Y-80517500D02*
X102250000Y-79656500D01*
X102250000Y-83458500D02*
X102250000Y-82597500D01*
X102290000Y-80517500D02*
X102290000Y-79621500D01*
X102290000Y-83493500D02*
X102290000Y-82597500D01*
X102330000Y-80517500D02*
X102330000Y-79587500D01*
X102330000Y-83527500D02*
X102330000Y-82597500D01*
X102370000Y-80517500D02*
X102370000Y-79554500D01*
X102370000Y-83560500D02*
X102370000Y-82597500D01*
X102410000Y-80517500D02*
X102410000Y-79522500D01*
X102410000Y-83592500D02*
X102410000Y-82597500D01*
X102450000Y-80517500D02*
X102450000Y-79492500D01*
X102450000Y-83622500D02*
X102450000Y-82597500D01*
X102490000Y-80517500D02*
X102490000Y-79463500D01*
X102490000Y-83651500D02*
X102490000Y-82597500D01*
X102530000Y-80517500D02*
X102530000Y-79435500D01*
X102530000Y-83679500D02*
X102530000Y-82597500D01*
X102570000Y-80517500D02*
X102570000Y-79408500D01*
X102570000Y-83706500D02*
X102570000Y-82597500D01*
X102610000Y-80517500D02*
X102610000Y-79382500D01*
X102610000Y-83732500D02*
X102610000Y-82597500D01*
X102650000Y-80517500D02*
X102650000Y-79358500D01*
X102650000Y-83756500D02*
X102650000Y-82597500D01*
X102690000Y-80517500D02*
X102690000Y-79334500D01*
X102690000Y-83780500D02*
X102690000Y-82597500D01*
X102730000Y-80517500D02*
X102730000Y-79311500D01*
X102730000Y-83803500D02*
X102730000Y-82597500D01*
X102770000Y-80517500D02*
X102770000Y-79289500D01*
X102770000Y-83825500D02*
X102770000Y-82597500D01*
X102810000Y-80517500D02*
X102810000Y-79268500D01*
X102810000Y-83846500D02*
X102810000Y-82597500D01*
X102850000Y-80517500D02*
X102850000Y-79248500D01*
X102850000Y-83866500D02*
X102850000Y-82597500D01*
X102890000Y-80517500D02*
X102890000Y-79228500D01*
X102890000Y-83886500D02*
X102890000Y-82597500D01*
X102930000Y-80517500D02*
X102930000Y-79210500D01*
X102930000Y-83904500D02*
X102930000Y-82597500D01*
X102970000Y-80517500D02*
X102970000Y-79192500D01*
X102970000Y-83922500D02*
X102970000Y-82597500D01*
X103010000Y-80517500D02*
X103010000Y-79175500D01*
X103010000Y-83939500D02*
X103010000Y-82597500D01*
X103050000Y-80517500D02*
X103050000Y-79159500D01*
X103050000Y-83955500D02*
X103050000Y-82597500D01*
X103090000Y-80517500D02*
X103090000Y-79144500D01*
X103090000Y-83970500D02*
X103090000Y-82597500D01*
X103130000Y-80517500D02*
X103130000Y-79129500D01*
X103130000Y-83985500D02*
X103130000Y-82597500D01*
X103170000Y-80517500D02*
X103170000Y-79115500D01*
X103170000Y-83999500D02*
X103170000Y-82597500D01*
X103210000Y-80517500D02*
X103210000Y-79102500D01*
X103210000Y-84012500D02*
X103210000Y-82597500D01*
X103250000Y-80517500D02*
X103250000Y-79090500D01*
X103250000Y-84024500D02*
X103250000Y-82597500D01*
X103290000Y-80517500D02*
X103290000Y-79078500D01*
X103290000Y-84036500D02*
X103290000Y-82597500D01*
X103330000Y-80517500D02*
X103330000Y-79067500D01*
X103330000Y-84047500D02*
X103330000Y-82597500D01*
X103370000Y-80517500D02*
X103370000Y-79056500D01*
X103370000Y-84058500D02*
X103370000Y-82597500D01*
X103410000Y-80517500D02*
X103410000Y-79047500D01*
X103410000Y-84067500D02*
X103410000Y-82597500D01*
X103450000Y-80517500D02*
X103450000Y-79038500D01*
X103450000Y-84076500D02*
X103450000Y-82597500D01*
X103490000Y-80517500D02*
X103490000Y-79029500D01*
X103490000Y-84085500D02*
X103490000Y-82597500D01*
X103530000Y-80517500D02*
X103530000Y-79021500D01*
X103530000Y-84093500D02*
X103530000Y-82597500D01*
X103570000Y-80517500D02*
X103570000Y-79014500D01*
X103570000Y-84100500D02*
X103570000Y-82597500D01*
X103610000Y-80517500D02*
X103610000Y-79008500D01*
X103610000Y-84106500D02*
X103610000Y-82597500D01*
X103650000Y-80517500D02*
X103650000Y-79002500D01*
X103650000Y-84112500D02*
X103650000Y-82597500D01*
X103690000Y-80517500D02*
X103690000Y-78997500D01*
X103690000Y-84117500D02*
X103690000Y-82597500D01*
X103730000Y-80517500D02*
X103730000Y-78992500D01*
X103730000Y-84122500D02*
X103730000Y-82597500D01*
X103770000Y-80517500D02*
X103770000Y-78988500D01*
X103770000Y-84126500D02*
X103770000Y-82597500D01*
X103810000Y-84129500D02*
X103810000Y-78985500D01*
X103850000Y-84132500D02*
X103850000Y-78982500D01*
X103890000Y-84134500D02*
X103890000Y-78980500D01*
X103930000Y-84136500D02*
X103930000Y-78978500D01*
X103970000Y-84137500D02*
X103970000Y-78977500D01*
X104010000Y-84137500D02*
X104010000Y-78977500D01*
X106564775Y-83282500D02*
X106564775Y-82782500D01*
X106814775Y-83032500D02*
X106314775Y-83032500D01*
X106630000Y-81557500D02*
G75*
G02*
X101390000Y-81557500I-2620000J0D01*
G01*
X101390000Y-81557500D02*
G75*
G02*
X106630000Y-81557500I2620000J0D01*
G01*
%TO.C,Q2*%
X206160000Y-160257500D02*
X202560000Y-160257500D01*
X204360000Y-164707500D02*
G75*
G02*
X202521522Y-160269022I0J2600000D01*
G01*
X206198478Y-160269022D02*
G75*
G02*
X204360000Y-164707501I-1838478J-1838478D01*
G01*
%TO.C,J13*%
X131125000Y-115822500D02*
X132505000Y-115822500D01*
X131125000Y-117202500D02*
X131125000Y-115822500D01*
X131125000Y-118472500D02*
X131125000Y-123662500D01*
X131125000Y-118472500D02*
X133885000Y-118472500D01*
X131125000Y-123662500D02*
X133885000Y-123662500D01*
X133885000Y-118472500D02*
X133885000Y-123662500D01*
%TO.C,SW7*%
X76750000Y-98147500D02*
X76750000Y-104567500D01*
X76750000Y-104567500D02*
X77030000Y-104567500D01*
X77160000Y-98147500D02*
X76750000Y-98147500D01*
X78760000Y-104567500D02*
X81160000Y-104567500D01*
X81160000Y-98147500D02*
X78760000Y-98147500D01*
X82760000Y-104567500D02*
X83170000Y-104567500D01*
X83170000Y-98147500D02*
X82760000Y-98147500D01*
X83170000Y-104567500D02*
X83170000Y-98147500D01*
%TO.C,D6*%
X130990000Y-196877500D02*
X130990000Y-197527500D01*
X130990000Y-202417500D02*
X130990000Y-201767500D01*
X132110000Y-198127500D02*
X129870000Y-198127500D01*
X132110000Y-198247500D02*
X129870000Y-198247500D01*
X132110000Y-198367500D02*
X129870000Y-198367500D01*
X132110000Y-197527500D02*
X129870000Y-197527500D01*
X129870000Y-201767500D01*
X132110000Y-201767500D01*
X132110000Y-197527500D01*
%TO.C,RV2*%
X118705000Y-104697500D02*
X123755000Y-104697500D01*
X118705000Y-114447500D02*
X118705000Y-104697500D01*
X123755000Y-104697500D02*
X123755000Y-114447500D01*
X123755000Y-114447500D02*
X118705000Y-114447500D01*
%TO.C,RV4*%
X132885000Y-104667500D02*
X137935000Y-104667500D01*
X132885000Y-114417500D02*
X132885000Y-104667500D01*
X137935000Y-104667500D02*
X137935000Y-114417500D01*
X137935000Y-114417500D02*
X132885000Y-114417500D01*
%TO.C,D11*%
X182850000Y-220577500D02*
X182850000Y-220421500D01*
X182850000Y-222893500D02*
X182850000Y-222737500D01*
X179618563Y-220577500D02*
G75*
G02*
X182850000Y-220421984I1671437J-1080000D01*
G01*
X180249039Y-220577500D02*
G75*
G02*
X182330961Y-220577500I1040961J-1080000D01*
G01*
X182330961Y-222737500D02*
G75*
G02*
X180249039Y-222737500I-1040961J1080000D01*
G01*
X182850000Y-222893016D02*
G75*
G02*
X179618563Y-222737500I-1560000J1235516D01*
G01*
%TO.C,C11*%
X148921252Y-104342500D02*
X148398748Y-104342500D01*
X148921252Y-105812500D02*
X148398748Y-105812500D01*
%TO.C,C13*%
X99445000Y-80286248D02*
X99445000Y-80808752D01*
X100915000Y-80286248D02*
X100915000Y-80808752D01*
%TO.C,RV5*%
X112640000Y-58822500D02*
X117690000Y-58822500D01*
X112640000Y-68572500D02*
X112640000Y-58822500D01*
X117690000Y-58822500D02*
X117690000Y-68572500D01*
X117690000Y-68572500D02*
X112640000Y-68572500D01*
%TO.C,C17*%
X110580000Y-186288752D02*
X110580000Y-185766248D01*
X112050000Y-186288752D02*
X112050000Y-185766248D01*
%TO.C,U1*%
X145120000Y-139337500D02*
X145120000Y-140037500D01*
X145120000Y-153557500D02*
X145120000Y-152857500D01*
X145820000Y-139337500D02*
X145120000Y-139337500D01*
X145820000Y-153557500D02*
X145120000Y-153557500D01*
X158640000Y-139337500D02*
X159340000Y-139337500D01*
X158640000Y-153557500D02*
X159340000Y-153557500D01*
X159340000Y-139337500D02*
X159340000Y-140037500D01*
X159340000Y-153557500D02*
X159340000Y-152857500D01*
X144530000Y-140037500D02*
X144190000Y-139567500D01*
X144870000Y-139567500D01*
X144530000Y-140037500D01*
G36*
X144530000Y-140037500D02*
G01*
X144190000Y-139567500D01*
X144870000Y-139567500D01*
X144530000Y-140037500D01*
G37*
%TO.C,D10*%
X160790000Y-196877500D02*
X160790000Y-197527500D01*
X160790000Y-202417500D02*
X160790000Y-201767500D01*
X161910000Y-198127500D02*
X159670000Y-198127500D01*
X161910000Y-198247500D02*
X159670000Y-198247500D01*
X161910000Y-198367500D02*
X159670000Y-198367500D01*
X161910000Y-197527500D02*
X159670000Y-197527500D01*
X159670000Y-201767500D01*
X161910000Y-201767500D01*
X161910000Y-197527500D01*
%TO.C,J2*%
X231340000Y-148537500D02*
X241380000Y-148537500D01*
X231340000Y-163777500D02*
X231340000Y-148537500D01*
X234360000Y-163777500D02*
X234360000Y-148537500D01*
X239260000Y-163777500D02*
X239260000Y-148537500D01*
X240760000Y-163777500D02*
X240760000Y-148537500D01*
X241380000Y-148537500D02*
X241380000Y-160857500D01*
X241380000Y-161457500D02*
X241380000Y-163777500D01*
X241380000Y-163777500D02*
X231340000Y-163777500D01*
X241990000Y-161597500D02*
X241380000Y-161157500D01*
X241990000Y-160717500D01*
X241990000Y-161597500D01*
G36*
X241990000Y-161597500D02*
G01*
X241380000Y-161157500D01*
X241990000Y-160717500D01*
X241990000Y-161597500D01*
G37*
%TO.C,RV3*%
X125885000Y-104697500D02*
X130935000Y-104697500D01*
X125885000Y-114447500D02*
X125885000Y-104697500D01*
X130935000Y-104697500D02*
X130935000Y-114447500D01*
X130935000Y-114447500D02*
X125885000Y-114447500D01*
%TO.C,C3*%
X134625000Y-148096248D02*
X134625000Y-148618752D01*
X136095000Y-148096248D02*
X136095000Y-148618752D01*
%TO.C,J5*%
X128370000Y-225537500D02*
X138610000Y-225537500D01*
X128370000Y-228557500D02*
X138610000Y-228557500D01*
X128370000Y-233457500D02*
X138610000Y-233457500D01*
X128370000Y-234957500D02*
X138610000Y-234957500D01*
X128370000Y-235577500D02*
X128370000Y-225537500D01*
X130690000Y-235577500D02*
X128370000Y-235577500D01*
X138610000Y-225537500D02*
X138610000Y-235577500D01*
X138610000Y-235577500D02*
X131290000Y-235577500D01*
X131430000Y-236187500D02*
X130550000Y-236187500D01*
X130990000Y-235577500D01*
X131430000Y-236187500D01*
G36*
X131430000Y-236187500D02*
G01*
X130550000Y-236187500D01*
X130990000Y-235577500D01*
X131430000Y-236187500D01*
G37*
%TO.C,J12*%
X127445000Y-115832500D02*
X128825000Y-115832500D01*
X127445000Y-117212500D02*
X127445000Y-115832500D01*
X127445000Y-118482500D02*
X127445000Y-123672500D01*
X127445000Y-118482500D02*
X130205000Y-118482500D01*
X127445000Y-123672500D02*
X130205000Y-123672500D01*
X130205000Y-118482500D02*
X130205000Y-123672500D01*
%TO.C,J1*%
X231340000Y-164937500D02*
X241380000Y-164937500D01*
X231340000Y-180177500D02*
X231340000Y-164937500D01*
X234360000Y-180177500D02*
X234360000Y-164937500D01*
X239260000Y-180177500D02*
X239260000Y-164937500D01*
X240760000Y-180177500D02*
X240760000Y-164937500D01*
X241380000Y-164937500D02*
X241380000Y-177257500D01*
X241380000Y-177857500D02*
X241380000Y-180177500D01*
X241380000Y-180177500D02*
X231340000Y-180177500D01*
X241990000Y-177997500D02*
X241380000Y-177557500D01*
X241990000Y-177117500D01*
X241990000Y-177997500D01*
G36*
X241990000Y-177997500D02*
G01*
X241380000Y-177557500D01*
X241990000Y-177117500D01*
X241990000Y-177997500D01*
G37*
%TO.C,U10*%
X118320000Y-58760000D02*
X118320000Y-103040000D01*
X118320000Y-103040000D02*
X240600000Y-103040000D01*
D10*
X126483000Y-66353000D02*
X126483000Y-99881000D01*
X127245000Y-65591000D02*
X127245000Y-66353000D01*
X127245000Y-66353000D02*
X126483000Y-66353000D01*
X127245000Y-99881000D02*
X126483000Y-99881000D01*
X127245000Y-100643000D02*
X127245000Y-99881000D01*
X127245000Y-100643000D02*
X231385000Y-100643000D01*
X128261000Y-66861000D02*
X128515000Y-67115000D01*
X128261000Y-99373000D02*
X128515000Y-99627000D01*
X128515000Y-66607000D02*
X128261000Y-66861000D01*
X128515000Y-67115000D02*
X230115000Y-67115000D01*
X128515000Y-99119000D02*
X128261000Y-99373000D01*
X128515000Y-99627000D02*
X230115000Y-99627000D01*
X129785000Y-71941000D02*
X130547000Y-71179000D01*
X129785000Y-94293000D02*
X129785000Y-71941000D01*
X130547000Y-71179000D02*
X228083000Y-71179000D01*
X130547000Y-95055000D02*
X129785000Y-94293000D01*
D11*
X195460000Y-58400000D02*
X197460000Y-58400000D01*
D10*
X228083000Y-71179000D02*
X228845000Y-71941000D01*
X228083000Y-95055000D02*
X130547000Y-95055000D01*
X228845000Y-71941000D02*
X228845000Y-94293000D01*
X228845000Y-94293000D02*
X228083000Y-95055000D01*
X230115000Y-66607000D02*
X128515000Y-66607000D01*
X230115000Y-66607000D02*
X230369000Y-66861000D01*
X230115000Y-99119000D02*
X128515000Y-99119000D01*
X230115000Y-99627000D02*
X230369000Y-99373000D01*
X230369000Y-66861000D02*
X230115000Y-67115000D01*
X230369000Y-99373000D02*
X230115000Y-99119000D01*
X231385000Y-65591000D02*
X127245000Y-65591000D01*
X231385000Y-65591000D02*
X231385000Y-66353000D01*
X231385000Y-66353000D02*
X232147000Y-66353000D01*
X231385000Y-99881000D02*
X231385000Y-100643000D01*
X232147000Y-99881000D02*
X231385000Y-99881000D01*
X232147000Y-99881000D02*
X232147000Y-66353000D01*
D11*
X240600000Y-58760000D02*
X118320000Y-58760000D01*
X240600000Y-58760000D02*
X240600000Y-103040000D01*
%TO.C,SW4*%
X85150000Y-88847500D02*
X85150000Y-95267500D01*
X85150000Y-95267500D02*
X85430000Y-95267500D01*
X85560000Y-88847500D02*
X85150000Y-88847500D01*
X87160000Y-95267500D02*
X89560000Y-95267500D01*
X89560000Y-88847500D02*
X87160000Y-88847500D01*
X91160000Y-95267500D02*
X91570000Y-95267500D01*
X91570000Y-88847500D02*
X91160000Y-88847500D01*
X91570000Y-95267500D02*
X91570000Y-88847500D01*
%TO.C,J4*%
X231340000Y-115637500D02*
X241380000Y-115637500D01*
X231340000Y-130877500D02*
X231340000Y-115637500D01*
X234360000Y-130877500D02*
X234360000Y-115637500D01*
X239260000Y-130877500D02*
X239260000Y-115637500D01*
X240760000Y-130877500D02*
X240760000Y-115637500D01*
X241380000Y-115637500D02*
X241380000Y-127957500D01*
X241380000Y-128557500D02*
X241380000Y-130877500D01*
X241380000Y-130877500D02*
X231340000Y-130877500D01*
X241990000Y-128697500D02*
X241380000Y-128257500D01*
X241990000Y-127817500D01*
X241990000Y-128697500D01*
G36*
X241990000Y-128697500D02*
G01*
X241380000Y-128257500D01*
X241990000Y-127817500D01*
X241990000Y-128697500D01*
G37*
%TO.C,R8*%
X134380000Y-196630436D02*
X134380000Y-198084564D01*
X136200000Y-196630436D02*
X136200000Y-198084564D01*
%TO.C,K2*%
X209510000Y-148507500D02*
X209510000Y-155107500D01*
X209510000Y-148507500D02*
X229310000Y-148507500D01*
X209510000Y-157507500D02*
X209510000Y-164107500D01*
X213560000Y-156357500D02*
X212760000Y-156357500D01*
X213560000Y-156357500D02*
X213560000Y-159957500D01*
X214460000Y-162357500D02*
X216960000Y-162357500D01*
X214960000Y-154557500D02*
X218960000Y-154557500D01*
X214960000Y-158157500D02*
X214960000Y-154557500D01*
X216960000Y-150357500D02*
X214460000Y-150357500D01*
X216960000Y-150357500D02*
X216960000Y-154557500D01*
X216960000Y-158157500D02*
X216960000Y-162357500D01*
X218960000Y-154557500D02*
X218960000Y-158157500D01*
X218960000Y-158157500D02*
X214960000Y-154557500D01*
X218960000Y-158157500D02*
X214960000Y-158157500D01*
X220360000Y-156357500D02*
X220360000Y-159957500D01*
X220360000Y-156357500D02*
X221860000Y-156357500D01*
X220360000Y-159957500D02*
X213560000Y-159957500D01*
X221860000Y-156357500D02*
X226460000Y-153857500D01*
X225060000Y-152107500D02*
X225060000Y-154607500D01*
X225060000Y-160507500D02*
X225060000Y-158057500D01*
X229310000Y-148507500D02*
X229310000Y-164107500D01*
X229310000Y-164107500D02*
X209510000Y-164107500D01*
%TO.C,J11*%
X79825000Y-223307500D02*
X79825000Y-212807500D01*
X80885000Y-211747500D02*
X109735000Y-211747500D01*
X88342798Y-220895756D02*
X87443530Y-215795756D01*
X89078311Y-213847500D02*
X101541689Y-213847500D01*
X89520000Y-210853162D02*
X90020000Y-210853162D01*
X89770000Y-211286175D02*
X89520000Y-210853162D01*
X90020000Y-210853162D02*
X89770000Y-211286175D01*
X100642421Y-222267500D02*
X89977579Y-222267500D01*
X103176470Y-215795756D02*
X102277202Y-220895756D01*
X109735000Y-224367500D02*
X80885000Y-224367500D01*
X110795000Y-212807500D02*
X110795000Y-223307500D01*
X79825000Y-212807500D02*
G75*
G02*
X80885000Y-211747500I1060001J-1D01*
G01*
X80885000Y-224367500D02*
G75*
G02*
X79825000Y-223307500I1J1060001D01*
G01*
X87443530Y-215795756D02*
G75*
G02*
X89078311Y-213847500I1634781J288256D01*
G01*
X89977579Y-222267500D02*
G75*
G02*
X88342798Y-220895756I-1J1659999D01*
G01*
X101541689Y-213847500D02*
G75*
G02*
X103176481Y-215795758I11J-1660000D01*
G01*
X102277202Y-220895756D02*
G75*
G02*
X100642421Y-222267501I-1634782J288256D01*
G01*
X109735000Y-211747500D02*
G75*
G02*
X110795000Y-212807500I0J-1060000D01*
G01*
X110795000Y-223307500D02*
G75*
G02*
X109735000Y-224367500I-1060000J0D01*
G01*
%TO.C,SW5*%
X93550000Y-88847500D02*
X93550000Y-95267500D01*
X93550000Y-95267500D02*
X93830000Y-95267500D01*
X93960000Y-88847500D02*
X93550000Y-88847500D01*
X95560000Y-95267500D02*
X97960000Y-95267500D01*
X97960000Y-88847500D02*
X95560000Y-88847500D01*
X99560000Y-95267500D02*
X99970000Y-95267500D01*
X99970000Y-88847500D02*
X99560000Y-88847500D01*
X99970000Y-95267500D02*
X99970000Y-88847500D01*
%TO.C,U4*%
X159420000Y-206802500D02*
X159420000Y-208452500D01*
X159420000Y-210452500D02*
X159420000Y-212102500D01*
X159420000Y-212102500D02*
X167160000Y-212102500D01*
X167160000Y-206802500D02*
X159420000Y-206802500D01*
X167160000Y-212102500D02*
X167160000Y-206802500D01*
X159420000Y-208452500D02*
G75*
G02*
X159420000Y-210452500I0J-1000000D01*
G01*
%TO.C,D2*%
X205760000Y-152197500D02*
X205760000Y-152847500D01*
X205760000Y-157737500D02*
X205760000Y-157087500D01*
X206880000Y-153447500D02*
X204640000Y-153447500D01*
X206880000Y-153567500D02*
X204640000Y-153567500D01*
X206880000Y-153687500D02*
X204640000Y-153687500D01*
X206880000Y-152847500D02*
X204640000Y-152847500D01*
X204640000Y-157087500D01*
X206880000Y-157087500D01*
X206880000Y-152847500D01*
%TO.C,SW14*%
X68350000Y-116747500D02*
X68350000Y-123167500D01*
X68350000Y-123167500D02*
X68630000Y-123167500D01*
X68760000Y-116747500D02*
X68350000Y-116747500D01*
X70360000Y-123167500D02*
X72760000Y-123167500D01*
X72760000Y-116747500D02*
X70360000Y-116747500D01*
X74360000Y-123167500D02*
X74770000Y-123167500D01*
X74770000Y-116747500D02*
X74360000Y-116747500D01*
X74770000Y-123167500D02*
X74770000Y-116747500D01*
%TO.C,J9*%
X119270000Y-155667500D02*
X139850000Y-155667500D01*
X119270000Y-164787500D02*
X119270000Y-155667500D01*
X120570000Y-156977500D02*
X127510000Y-156977500D01*
X120570000Y-163477500D02*
X120570000Y-156977500D01*
X127510000Y-156977500D02*
X127510000Y-155667500D01*
X131610000Y-155667500D02*
X131610000Y-156977500D01*
X131610000Y-156977500D02*
X138550000Y-156977500D01*
X134140000Y-154277500D02*
X134640000Y-155277500D01*
X134640000Y-155277500D02*
X135140000Y-154277500D01*
X135140000Y-154277500D02*
X134140000Y-154277500D01*
X138550000Y-156977500D02*
X138550000Y-163477500D01*
X138550000Y-163477500D02*
X120570000Y-163477500D01*
X139850000Y-155667500D02*
X139850000Y-164787500D01*
X139850000Y-164787500D02*
X119270000Y-164787500D01*
%TO.C,J10*%
X123735000Y-115832500D02*
X125115000Y-115832500D01*
X123735000Y-117212500D02*
X123735000Y-115832500D01*
X123735000Y-118482500D02*
X123735000Y-123672500D01*
X123735000Y-118482500D02*
X126495000Y-118482500D01*
X123735000Y-123672500D02*
X126495000Y-123672500D01*
X126495000Y-118482500D02*
X126495000Y-123672500D01*
%TO.C,R26*%
X82562936Y-188727500D02*
X83017064Y-188727500D01*
X82562936Y-190197500D02*
X83017064Y-190197500D01*
%TO.C,SW1*%
X124150000Y-145247500D02*
X124150000Y-145657500D01*
X124150000Y-147257500D02*
X124150000Y-149657500D01*
X124150000Y-151257500D02*
X124150000Y-151667500D01*
X124150000Y-151667500D02*
X130570000Y-151667500D01*
X130570000Y-145247500D02*
X124150000Y-145247500D01*
X130570000Y-145657500D02*
X130570000Y-145247500D01*
X130570000Y-149657500D02*
X130570000Y-147257500D01*
X130570000Y-151667500D02*
X130570000Y-151387500D01*
%TO.C,PS1*%
X112222500Y-177080000D02*
X112222500Y-178280000D01*
X112422500Y-177280000D02*
X112422500Y-189050000D01*
X113422500Y-177080000D02*
X112222500Y-177080000D01*
X118762500Y-177280000D02*
X112422500Y-177280000D01*
X118762500Y-177280000D02*
X118762500Y-189050000D01*
X118762500Y-189050000D02*
X112422500Y-189050000D01*
%TO.C,SW9*%
X93550000Y-98147500D02*
X93550000Y-104567500D01*
X93550000Y-104567500D02*
X93830000Y-104567500D01*
X93960000Y-98147500D02*
X93550000Y-98147500D01*
X95560000Y-104567500D02*
X97960000Y-104567500D01*
X97960000Y-98147500D02*
X95560000Y-98147500D01*
X99560000Y-104567500D02*
X99970000Y-104567500D01*
X99970000Y-98147500D02*
X99560000Y-98147500D01*
X99970000Y-104567500D02*
X99970000Y-98147500D01*
%TO.C,C12*%
X99345000Y-60336248D02*
X99345000Y-60858752D01*
X100815000Y-60336248D02*
X100815000Y-60858752D01*
%TO.C,U5*%
X174760000Y-207017500D02*
X174760000Y-208667500D01*
X174760000Y-210667500D02*
X174760000Y-212317500D01*
X174760000Y-212317500D02*
X182500000Y-212317500D01*
X182500000Y-207017500D02*
X174760000Y-207017500D01*
X182500000Y-212317500D02*
X182500000Y-207017500D01*
X174760000Y-208667500D02*
G75*
G02*
X174760000Y-210667500I0J-1000000D01*
G01*
%TO.C,R2*%
X193200000Y-172897500D02*
X199740000Y-172897500D01*
X193200000Y-173227500D02*
X193200000Y-172897500D01*
X193200000Y-175307500D02*
X193200000Y-175637500D01*
X193200000Y-175637500D02*
X199740000Y-175637500D01*
X199740000Y-172897500D02*
X199740000Y-173227500D01*
X199740000Y-175637500D02*
X199740000Y-175307500D01*
%TO.C,RV1*%
X110690000Y-104692500D02*
X115740000Y-104692500D01*
X110690000Y-114442500D02*
X110690000Y-104692500D01*
X115740000Y-104692500D02*
X115740000Y-114442500D01*
X115740000Y-114442500D02*
X110690000Y-114442500D01*
%TO.C,D3*%
X205860000Y-136197500D02*
X205860000Y-136847500D01*
X205860000Y-141737500D02*
X205860000Y-141087500D01*
X206980000Y-137447500D02*
X204740000Y-137447500D01*
X206980000Y-137567500D02*
X204740000Y-137567500D01*
X206980000Y-137687500D02*
X204740000Y-137687500D01*
X206980000Y-136847500D02*
X204740000Y-136847500D01*
X204740000Y-141087500D01*
X206980000Y-141087500D01*
X206980000Y-136847500D01*
%TO.C,K4*%
X209510000Y-115507500D02*
X209510000Y-122107500D01*
X209510000Y-115507500D02*
X229310000Y-115507500D01*
X209510000Y-124507500D02*
X209510000Y-131107500D01*
X213560000Y-123357500D02*
X212760000Y-123357500D01*
X213560000Y-123357500D02*
X213560000Y-126957500D01*
X214460000Y-129357500D02*
X216960000Y-129357500D01*
X214960000Y-121557500D02*
X218960000Y-121557500D01*
X214960000Y-125157500D02*
X214960000Y-121557500D01*
X216960000Y-117357500D02*
X214460000Y-117357500D01*
X216960000Y-117357500D02*
X216960000Y-121557500D01*
X216960000Y-125157500D02*
X216960000Y-129357500D01*
X218960000Y-121557500D02*
X218960000Y-125157500D01*
X218960000Y-125157500D02*
X214960000Y-121557500D01*
X218960000Y-125157500D02*
X214960000Y-125157500D01*
X220360000Y-123357500D02*
X220360000Y-126957500D01*
X220360000Y-123357500D02*
X221860000Y-123357500D01*
X220360000Y-126957500D02*
X213560000Y-126957500D01*
X221860000Y-123357500D02*
X226460000Y-120857500D01*
X225060000Y-119107500D02*
X225060000Y-121607500D01*
X225060000Y-127507500D02*
X225060000Y-125057500D01*
X229310000Y-115507500D02*
X229310000Y-131107500D01*
X229310000Y-131107500D02*
X209510000Y-131107500D01*
%TO.C,C16*%
X110560000Y-181218752D02*
X110560000Y-180696248D01*
X112030000Y-181218752D02*
X112030000Y-180696248D01*
%TO.C,J16*%
X98010000Y-62857500D02*
X108050000Y-62857500D01*
X98010000Y-65217500D02*
X98010000Y-62857500D01*
X98010000Y-78337500D02*
X98010000Y-65817500D01*
X98630000Y-62857500D02*
X98630000Y-78337500D01*
X100130000Y-62857500D02*
X100130000Y-78337500D01*
X105030000Y-62857500D02*
X105030000Y-78337500D01*
X108050000Y-62857500D02*
X108050000Y-78337500D01*
X108050000Y-78337500D02*
X98010000Y-78337500D01*
X98010000Y-65517500D02*
X97400000Y-65957500D01*
X97400000Y-65077500D01*
X98010000Y-65517500D01*
G36*
X98010000Y-65517500D02*
G01*
X97400000Y-65957500D01*
X97400000Y-65077500D01*
X98010000Y-65517500D01*
G37*
%TO.C,SW11*%
X76750000Y-107447500D02*
X76750000Y-113867500D01*
X76750000Y-113867500D02*
X77030000Y-113867500D01*
X77160000Y-107447500D02*
X76750000Y-107447500D01*
X78760000Y-113867500D02*
X81160000Y-113867500D01*
X81160000Y-107447500D02*
X78760000Y-107447500D01*
X82760000Y-113867500D02*
X83170000Y-113867500D01*
X83170000Y-107447500D02*
X82760000Y-107447500D01*
X83170000Y-113867500D02*
X83170000Y-107447500D01*
%TO.C,R25*%
X101810436Y-176932500D02*
X102264564Y-176932500D01*
X101810436Y-178402500D02*
X102264564Y-178402500D01*
%TO.C,Q4*%
X206160000Y-127757500D02*
X202560000Y-127757500D01*
X204360000Y-132207500D02*
G75*
G02*
X202521522Y-127769022I0J2600000D01*
G01*
X206198478Y-127769022D02*
G75*
G02*
X204360000Y-132207501I-1838478J-1838478D01*
G01*
%TO.C,R20*%
X152720000Y-108317500D02*
X152720000Y-108647500D01*
X152720000Y-111057500D02*
X152720000Y-110727500D01*
X159260000Y-108317500D02*
X152720000Y-108317500D01*
X159260000Y-108647500D02*
X159260000Y-108317500D01*
X159260000Y-110727500D02*
X159260000Y-111057500D01*
X159260000Y-111057500D02*
X152720000Y-111057500D01*
%TO.C,R18*%
X147630000Y-130597500D02*
X147630000Y-130927500D01*
X147630000Y-133337500D02*
X147630000Y-133007500D01*
X154170000Y-130597500D02*
X147630000Y-130597500D01*
X154170000Y-130927500D02*
X154170000Y-130597500D01*
X154170000Y-133007500D02*
X154170000Y-133337500D01*
X154170000Y-133337500D02*
X147630000Y-133337500D01*
%TO.C,Q3*%
X206190000Y-144157500D02*
X202590000Y-144157500D01*
X204390000Y-148607500D02*
G75*
G02*
X202551522Y-144169022I0J2600000D01*
G01*
X206228478Y-144169022D02*
G75*
G02*
X204390000Y-148607501I-1838478J-1838478D01*
G01*
%TO.C,SW12*%
X85150000Y-107447500D02*
X85150000Y-113867500D01*
X85150000Y-113867500D02*
X85430000Y-113867500D01*
X85560000Y-107447500D02*
X85150000Y-107447500D01*
X87160000Y-113867500D02*
X89560000Y-113867500D01*
X89560000Y-107447500D02*
X87160000Y-107447500D01*
X91160000Y-113867500D02*
X91570000Y-113867500D01*
X91570000Y-107447500D02*
X91160000Y-107447500D01*
X91570000Y-113867500D02*
X91570000Y-107447500D01*
%TO.C,D9*%
X167550000Y-220477500D02*
X167550000Y-220321500D01*
X167550000Y-222793500D02*
X167550000Y-222637500D01*
X164318563Y-220477500D02*
G75*
G02*
X167550000Y-220321984I1671437J-1080000D01*
G01*
X164949039Y-220477500D02*
G75*
G02*
X167030961Y-220477500I1040961J-1080000D01*
G01*
X167030961Y-222637500D02*
G75*
G02*
X164949039Y-222637500I-1040961J1080000D01*
G01*
X167550000Y-222793016D02*
G75*
G02*
X164318563Y-222637500I-1560000J1235516D01*
G01*
%TO.C,J3*%
X231340000Y-132137500D02*
X241380000Y-132137500D01*
X231340000Y-147377500D02*
X231340000Y-132137500D01*
X234360000Y-147377500D02*
X234360000Y-132137500D01*
X239260000Y-147377500D02*
X239260000Y-132137500D01*
X240760000Y-147377500D02*
X240760000Y-132137500D01*
X241380000Y-132137500D02*
X241380000Y-144457500D01*
X241380000Y-145057500D02*
X241380000Y-147377500D01*
X241380000Y-147377500D02*
X231340000Y-147377500D01*
X241990000Y-145197500D02*
X241380000Y-144757500D01*
X241990000Y-144317500D01*
X241990000Y-145197500D01*
G36*
X241990000Y-145197500D02*
G01*
X241380000Y-144757500D01*
X241990000Y-144317500D01*
X241990000Y-145197500D01*
G37*
%TO.C,J6*%
X143270000Y-225510000D02*
X153510000Y-225510000D01*
X143270000Y-228530000D02*
X153510000Y-228530000D01*
X143270000Y-233430000D02*
X153510000Y-233430000D01*
X143270000Y-234930000D02*
X153510000Y-234930000D01*
X143270000Y-235550000D02*
X143270000Y-225510000D01*
X145590000Y-235550000D02*
X143270000Y-235550000D01*
X153510000Y-225510000D02*
X153510000Y-235550000D01*
X153510000Y-235550000D02*
X146190000Y-235550000D01*
X146330000Y-236160000D02*
X145450000Y-236160000D01*
X145890000Y-235550000D01*
X146330000Y-236160000D01*
G36*
X146330000Y-236160000D02*
G01*
X145450000Y-236160000D01*
X145890000Y-235550000D01*
X146330000Y-236160000D01*
G37*
%TO.C,U9*%
X75630000Y-199352500D02*
X75630000Y-201002500D01*
X75630000Y-203002500D02*
X75630000Y-204652500D01*
X75630000Y-204652500D02*
X96070000Y-204652500D01*
X96070000Y-199352500D02*
X75630000Y-199352500D01*
X96070000Y-204652500D02*
X96070000Y-199352500D01*
X75630000Y-201002500D02*
G75*
G02*
X75630000Y-203002500I0J-1000000D01*
G01*
%TO.C,U6*%
X140680000Y-118327500D02*
X140680000Y-119977500D01*
X140680000Y-121977500D02*
X140680000Y-123627500D01*
X140680000Y-123627500D02*
X158580000Y-123627500D01*
X158580000Y-118327500D02*
X140680000Y-118327500D01*
X158580000Y-123627500D02*
X158580000Y-118327500D01*
X140680000Y-119977500D02*
G75*
G02*
X140680000Y-121977500I0J-1000000D01*
G01*
%TO.C,SW17*%
X93550000Y-116747500D02*
X93550000Y-123167500D01*
X93550000Y-123167500D02*
X93830000Y-123167500D01*
X93960000Y-116747500D02*
X93550000Y-116747500D01*
X95560000Y-123167500D02*
X97960000Y-123167500D01*
X97960000Y-116747500D02*
X95560000Y-116747500D01*
X99560000Y-123167500D02*
X99970000Y-123167500D01*
X99970000Y-116747500D02*
X99560000Y-116747500D01*
X99970000Y-123167500D02*
X99970000Y-116747500D01*
%TO.C,SW10*%
X68350000Y-107447500D02*
X68350000Y-113867500D01*
X68350000Y-113867500D02*
X68630000Y-113867500D01*
X68760000Y-107447500D02*
X68350000Y-107447500D01*
X70360000Y-113867500D02*
X72760000Y-113867500D01*
X72760000Y-107447500D02*
X70360000Y-107447500D01*
X74360000Y-113867500D02*
X74770000Y-113867500D01*
X74770000Y-107447500D02*
X74360000Y-107447500D01*
X74770000Y-113867500D02*
X74770000Y-107447500D01*
%TO.C,SW2*%
X68350000Y-88847500D02*
X68350000Y-95267500D01*
X68350000Y-95267500D02*
X68630000Y-95267500D01*
X68760000Y-88847500D02*
X68350000Y-88847500D01*
X70360000Y-95267500D02*
X72760000Y-95267500D01*
X72760000Y-88847500D02*
X70360000Y-88847500D01*
X74360000Y-95267500D02*
X74770000Y-95267500D01*
X74770000Y-88847500D02*
X74360000Y-88847500D01*
X74770000Y-95267500D02*
X74770000Y-88847500D01*
%TO.C,U2*%
X129620000Y-206802500D02*
X129620000Y-208452500D01*
X129620000Y-210452500D02*
X129620000Y-212102500D01*
X129620000Y-212102500D02*
X137360000Y-212102500D01*
X137360000Y-206802500D02*
X129620000Y-206802500D01*
X137360000Y-212102500D02*
X137360000Y-206802500D01*
X129620000Y-208452500D02*
G75*
G02*
X129620000Y-210452500I0J-1000000D01*
G01*
%TO.C,U3*%
X144560000Y-206852500D02*
X144560000Y-208502500D01*
X144560000Y-210502500D02*
X144560000Y-212152500D01*
X144560000Y-212152500D02*
X152300000Y-212152500D01*
X152300000Y-206852500D02*
X144560000Y-206852500D01*
X152300000Y-212152500D02*
X152300000Y-206852500D01*
X144560000Y-208502500D02*
G75*
G02*
X144560000Y-210502500I0J-1000000D01*
G01*
%TO.C,K1*%
X209560000Y-164757500D02*
X209560000Y-171357500D01*
X209560000Y-164757500D02*
X229360000Y-164757500D01*
X209560000Y-173757500D02*
X209560000Y-180357500D01*
X213610000Y-172607500D02*
X212810000Y-172607500D01*
X213610000Y-172607500D02*
X213610000Y-176207500D01*
X214510000Y-178607500D02*
X217010000Y-178607500D01*
X215010000Y-170807500D02*
X219010000Y-170807500D01*
X215010000Y-174407500D02*
X215010000Y-170807500D01*
X217010000Y-166607500D02*
X214510000Y-166607500D01*
X217010000Y-166607500D02*
X217010000Y-170807500D01*
X217010000Y-174407500D02*
X217010000Y-178607500D01*
X219010000Y-170807500D02*
X219010000Y-174407500D01*
X219010000Y-174407500D02*
X215010000Y-170807500D01*
X219010000Y-174407500D02*
X215010000Y-174407500D01*
X220410000Y-172607500D02*
X220410000Y-176207500D01*
X220410000Y-172607500D02*
X221910000Y-172607500D01*
X220410000Y-176207500D02*
X213610000Y-176207500D01*
X221910000Y-172607500D02*
X226510000Y-170107500D01*
X225110000Y-168357500D02*
X225110000Y-170857500D01*
X225110000Y-176757500D02*
X225110000Y-174307500D01*
X229360000Y-164757500D02*
X229360000Y-180357500D01*
X229360000Y-180357500D02*
X209560000Y-180357500D01*
%TO.C,D5*%
X137720000Y-220427500D02*
X137720000Y-220271500D01*
X137720000Y-222743500D02*
X137720000Y-222587500D01*
X134488563Y-220427500D02*
G75*
G02*
X137720000Y-220271984I1671437J-1080000D01*
G01*
X135119039Y-220427500D02*
G75*
G02*
X137200961Y-220427500I1040961J-1080000D01*
G01*
X137200961Y-222587500D02*
G75*
G02*
X135119039Y-222587500I-1040961J1080000D01*
G01*
X137720000Y-222743016D02*
G75*
G02*
X134488563Y-222587500I-1560000J1235516D01*
G01*
%TO.C,J8*%
X173470000Y-225637500D02*
X183710000Y-225637500D01*
X173470000Y-228657500D02*
X183710000Y-228657500D01*
X173470000Y-233557500D02*
X183710000Y-233557500D01*
X173470000Y-235057500D02*
X183710000Y-235057500D01*
X173470000Y-235677500D02*
X173470000Y-225637500D01*
X175790000Y-235677500D02*
X173470000Y-235677500D01*
X183710000Y-225637500D02*
X183710000Y-235677500D01*
X183710000Y-235677500D02*
X176390000Y-235677500D01*
X176530000Y-236287500D02*
X175650000Y-236287500D01*
X176090000Y-235677500D01*
X176530000Y-236287500D01*
G36*
X176530000Y-236287500D02*
G01*
X175650000Y-236287500D01*
X176090000Y-235677500D01*
X176530000Y-236287500D01*
G37*
%TO.C,C19*%
X79278748Y-209127500D02*
X79801252Y-209127500D01*
X79278748Y-210597500D02*
X79801252Y-210597500D01*
%TO.C,C14*%
X101170112Y-58192500D02*
X101670112Y-58192500D01*
X101420112Y-57942500D02*
X101420112Y-58442500D01*
X103974887Y-57087500D02*
X103974887Y-62247500D01*
X104014887Y-57087500D02*
X104014887Y-62247500D01*
X104054887Y-57088500D02*
X104054887Y-62246500D01*
X104094887Y-57090500D02*
X104094887Y-62244500D01*
X104134887Y-57092500D02*
X104134887Y-62242500D01*
X104174887Y-57095500D02*
X104174887Y-62239500D01*
X104214887Y-57098500D02*
X104214887Y-58627500D01*
X104214887Y-60707500D02*
X104214887Y-62236500D01*
X104254887Y-57102500D02*
X104254887Y-58627500D01*
X104254887Y-60707500D02*
X104254887Y-62232500D01*
X104294887Y-57107500D02*
X104294887Y-58627500D01*
X104294887Y-60707500D02*
X104294887Y-62227500D01*
X104334887Y-57112500D02*
X104334887Y-58627500D01*
X104334887Y-60707500D02*
X104334887Y-62222500D01*
X104374887Y-57118500D02*
X104374887Y-58627500D01*
X104374887Y-60707500D02*
X104374887Y-62216500D01*
X104414887Y-57124500D02*
X104414887Y-58627500D01*
X104414887Y-60707500D02*
X104414887Y-62210500D01*
X104454887Y-57131500D02*
X104454887Y-58627500D01*
X104454887Y-60707500D02*
X104454887Y-62203500D01*
X104494887Y-57139500D02*
X104494887Y-58627500D01*
X104494887Y-60707500D02*
X104494887Y-62195500D01*
X104534887Y-57148500D02*
X104534887Y-58627500D01*
X104534887Y-60707500D02*
X104534887Y-62186500D01*
X104574887Y-57157500D02*
X104574887Y-58627500D01*
X104574887Y-60707500D02*
X104574887Y-62177500D01*
X104614887Y-57166500D02*
X104614887Y-58627500D01*
X104614887Y-60707500D02*
X104614887Y-62168500D01*
X104654887Y-57177500D02*
X104654887Y-58627500D01*
X104654887Y-60707500D02*
X104654887Y-62157500D01*
X104694887Y-57188500D02*
X104694887Y-58627500D01*
X104694887Y-60707500D02*
X104694887Y-62146500D01*
X104734887Y-57200500D02*
X104734887Y-58627500D01*
X104734887Y-60707500D02*
X104734887Y-62134500D01*
X104774887Y-57212500D02*
X104774887Y-58627500D01*
X104774887Y-60707500D02*
X104774887Y-62122500D01*
X104814887Y-57225500D02*
X104814887Y-58627500D01*
X104814887Y-60707500D02*
X104814887Y-62109500D01*
X104854887Y-57239500D02*
X104854887Y-58627500D01*
X104854887Y-60707500D02*
X104854887Y-62095500D01*
X104894887Y-57254500D02*
X104894887Y-58627500D01*
X104894887Y-60707500D02*
X104894887Y-62080500D01*
X104934887Y-57269500D02*
X104934887Y-58627500D01*
X104934887Y-60707500D02*
X104934887Y-62065500D01*
X104974887Y-57285500D02*
X104974887Y-58627500D01*
X104974887Y-60707500D02*
X104974887Y-62049500D01*
X105014887Y-57302500D02*
X105014887Y-58627500D01*
X105014887Y-60707500D02*
X105014887Y-62032500D01*
X105054887Y-57320500D02*
X105054887Y-58627500D01*
X105054887Y-60707500D02*
X105054887Y-62014500D01*
X105094887Y-57338500D02*
X105094887Y-58627500D01*
X105094887Y-60707500D02*
X105094887Y-61996500D01*
X105134887Y-57358500D02*
X105134887Y-58627500D01*
X105134887Y-60707500D02*
X105134887Y-61976500D01*
X105174887Y-57378500D02*
X105174887Y-58627500D01*
X105174887Y-60707500D02*
X105174887Y-61956500D01*
X105214887Y-57399500D02*
X105214887Y-58627500D01*
X105214887Y-60707500D02*
X105214887Y-61935500D01*
X105254887Y-57421500D02*
X105254887Y-58627500D01*
X105254887Y-60707500D02*
X105254887Y-61913500D01*
X105294887Y-57444500D02*
X105294887Y-58627500D01*
X105294887Y-60707500D02*
X105294887Y-61890500D01*
X105334887Y-57468500D02*
X105334887Y-58627500D01*
X105334887Y-60707500D02*
X105334887Y-61866500D01*
X105374887Y-57492500D02*
X105374887Y-58627500D01*
X105374887Y-60707500D02*
X105374887Y-61842500D01*
X105414887Y-57518500D02*
X105414887Y-58627500D01*
X105414887Y-60707500D02*
X105414887Y-61816500D01*
X105454887Y-57545500D02*
X105454887Y-58627500D01*
X105454887Y-60707500D02*
X105454887Y-61789500D01*
X105494887Y-57573500D02*
X105494887Y-58627500D01*
X105494887Y-60707500D02*
X105494887Y-61761500D01*
X105534887Y-57602500D02*
X105534887Y-58627500D01*
X105534887Y-60707500D02*
X105534887Y-61732500D01*
X105574887Y-57632500D02*
X105574887Y-58627500D01*
X105574887Y-60707500D02*
X105574887Y-61702500D01*
X105614887Y-57664500D02*
X105614887Y-58627500D01*
X105614887Y-60707500D02*
X105614887Y-61670500D01*
X105654887Y-57697500D02*
X105654887Y-58627500D01*
X105654887Y-60707500D02*
X105654887Y-61637500D01*
X105694887Y-57731500D02*
X105694887Y-58627500D01*
X105694887Y-60707500D02*
X105694887Y-61603500D01*
X105734887Y-57766500D02*
X105734887Y-58627500D01*
X105734887Y-60707500D02*
X105734887Y-61568500D01*
X105774887Y-57803500D02*
X105774887Y-58627500D01*
X105774887Y-60707500D02*
X105774887Y-61531500D01*
X105814887Y-57842500D02*
X105814887Y-58627500D01*
X105814887Y-60707500D02*
X105814887Y-61492500D01*
X105854887Y-57882500D02*
X105854887Y-58627500D01*
X105854887Y-60707500D02*
X105854887Y-61452500D01*
X105894887Y-57924500D02*
X105894887Y-58627500D01*
X105894887Y-60707500D02*
X105894887Y-61410500D01*
X105934887Y-57968500D02*
X105934887Y-58627500D01*
X105934887Y-60707500D02*
X105934887Y-61366500D01*
X105974887Y-58015500D02*
X105974887Y-58627500D01*
X105974887Y-60707500D02*
X105974887Y-61319500D01*
X106014887Y-58063500D02*
X106014887Y-58627500D01*
X106014887Y-60707500D02*
X106014887Y-61271500D01*
X106054887Y-58114500D02*
X106054887Y-58627500D01*
X106054887Y-60707500D02*
X106054887Y-61220500D01*
X106094887Y-58168500D02*
X106094887Y-58627500D01*
X106094887Y-60707500D02*
X106094887Y-61166500D01*
X106134887Y-58224500D02*
X106134887Y-58627500D01*
X106134887Y-60707500D02*
X106134887Y-61110500D01*
X106174887Y-58284500D02*
X106174887Y-58627500D01*
X106174887Y-60707500D02*
X106174887Y-61050500D01*
X106214887Y-58348500D02*
X106214887Y-58627500D01*
X106214887Y-60707500D02*
X106214887Y-60986500D01*
X106254887Y-58416500D02*
X106254887Y-58627500D01*
X106254887Y-60707500D02*
X106254887Y-60918500D01*
X106294887Y-58490500D02*
X106294887Y-60844500D01*
X106334887Y-58569500D02*
X106334887Y-60765500D01*
X106374887Y-58656500D02*
X106374887Y-60678500D01*
X106414887Y-58753500D02*
X106414887Y-60581500D01*
X106454887Y-58862500D02*
X106454887Y-60472500D01*
X106494887Y-58990500D02*
X106494887Y-60344500D01*
X106534887Y-59150500D02*
X106534887Y-60184500D01*
X106574887Y-59384500D02*
X106574887Y-59950500D01*
X106594887Y-59667500D02*
G75*
G02*
X101354887Y-59667500I-2620000J0D01*
G01*
X101354887Y-59667500D02*
G75*
G02*
X106594887Y-59667500I2620000J0D01*
G01*
%TO.C,C10*%
X148875000Y-127466248D02*
X148875000Y-127988752D01*
X150345000Y-127466248D02*
X150345000Y-127988752D01*
%TO.C,SW13*%
X93550000Y-107447500D02*
X93550000Y-113867500D01*
X93550000Y-113867500D02*
X93830000Y-113867500D01*
X93960000Y-107447500D02*
X93550000Y-107447500D01*
X95560000Y-113867500D02*
X97960000Y-113867500D01*
X97960000Y-107447500D02*
X95560000Y-107447500D01*
X99560000Y-113867500D02*
X99970000Y-113867500D01*
X99970000Y-107447500D02*
X99560000Y-107447500D01*
X99970000Y-113867500D02*
X99970000Y-107447500D01*
%TO.C,SW6*%
X68350000Y-98147500D02*
X68350000Y-104567500D01*
X68350000Y-104567500D02*
X68630000Y-104567500D01*
X68760000Y-98147500D02*
X68350000Y-98147500D01*
X70360000Y-104567500D02*
X72760000Y-104567500D01*
X72760000Y-98147500D02*
X70360000Y-98147500D01*
X74360000Y-104567500D02*
X74770000Y-104567500D01*
X74770000Y-98147500D02*
X74360000Y-98147500D01*
X74770000Y-104567500D02*
X74770000Y-98147500D01*
%TO.C,D12*%
X176090000Y-197077500D02*
X176090000Y-197727500D01*
X176090000Y-202617500D02*
X176090000Y-201967500D01*
X177210000Y-198327500D02*
X174970000Y-198327500D01*
X177210000Y-198447500D02*
X174970000Y-198447500D01*
X177210000Y-198567500D02*
X174970000Y-198567500D01*
X177210000Y-197727500D02*
X174970000Y-197727500D01*
X174970000Y-201967500D01*
X177210000Y-201967500D01*
X177210000Y-197727500D01*
%TO.C,SW16*%
X85150000Y-116747500D02*
X85150000Y-123167500D01*
X85150000Y-123167500D02*
X85430000Y-123167500D01*
X85560000Y-116747500D02*
X85150000Y-116747500D01*
X87160000Y-123167500D02*
X89560000Y-123167500D01*
X89560000Y-116747500D02*
X87160000Y-116747500D01*
X91160000Y-123167500D02*
X91570000Y-123167500D01*
X91570000Y-116747500D02*
X91160000Y-116747500D01*
X91570000Y-123167500D02*
X91570000Y-116747500D01*
%TO.C,Q1*%
X205960000Y-176017500D02*
X202360000Y-176017500D01*
X204160000Y-180467500D02*
G75*
G02*
X202321522Y-176029022I0J2600000D01*
G01*
X205998478Y-176029022D02*
G75*
G02*
X204160000Y-180467501I-1838478J-1838478D01*
G01*
%TO.C,D8*%
X145890000Y-196847500D02*
X145890000Y-197497500D01*
X145890000Y-202387500D02*
X145890000Y-201737500D01*
X147010000Y-198097500D02*
X144770000Y-198097500D01*
X147010000Y-198217500D02*
X144770000Y-198217500D01*
X147010000Y-198337500D02*
X144770000Y-198337500D01*
X147010000Y-197497500D02*
X144770000Y-197497500D01*
X144770000Y-201737500D01*
X147010000Y-201737500D01*
X147010000Y-197497500D01*
%TO.C,SW3*%
X76750000Y-88847500D02*
X76750000Y-95267500D01*
X76750000Y-95267500D02*
X77030000Y-95267500D01*
X77160000Y-88847500D02*
X76750000Y-88847500D01*
X78760000Y-95267500D02*
X81160000Y-95267500D01*
X81160000Y-88847500D02*
X78760000Y-88847500D01*
X82760000Y-95267500D02*
X83170000Y-95267500D01*
X83170000Y-88847500D02*
X82760000Y-88847500D01*
X83170000Y-95267500D02*
X83170000Y-88847500D01*
%TO.C,U7*%
X76710000Y-180902500D02*
X76710000Y-186202500D01*
X76710000Y-186202500D02*
X86990000Y-186202500D01*
X86990000Y-180902500D02*
X76710000Y-180902500D01*
X86990000Y-182552500D02*
X86990000Y-180902500D01*
X86990000Y-186202500D02*
X86990000Y-184552500D01*
X86990000Y-184552500D02*
G75*
G02*
X86990000Y-182552500I0J1000000D01*
G01*
%TO.C,R22*%
X84317064Y-176877500D02*
X83862936Y-176877500D01*
X84317064Y-178347500D02*
X83862936Y-178347500D01*
%TD*%
M02*
