%TF.GenerationSoftware,KiCad,Pcbnew,9.0.4*%
%TF.CreationDate,2026-06-06T14:19:33-03:00*%
%TF.ProjectId,av3,6176332e-6b69-4636-9164-5f7063625858,rev?*%
%TF.SameCoordinates,Original*%
%TF.FileFunction,Legend,Bot*%
%TF.FilePolarity,Positive*%
%FSLAX46Y46*%
G04 Gerber Fmt 4.6, Leading zero omitted, Abs format (unit mm)*
G04 Created by KiCad (PCBNEW 9.0.4) date 2026-06-06 14:19:33*
%MOMM*%
%LPD*%
G01*
G04 APERTURE LIST*
%ADD10C,0.150000*%
%ADD11C,0.120000*%
G04 APERTURE END LIST*
D10*
X146814819Y-221290833D02*
X146338628Y-220957500D01*
X146814819Y-220719405D02*
X145814819Y-220719405D01*
X145814819Y-220719405D02*
X145814819Y-221100357D01*
X145814819Y-221100357D02*
X145862438Y-221195595D01*
X145862438Y-221195595D02*
X145910057Y-221243214D01*
X145910057Y-221243214D02*
X146005295Y-221290833D01*
X146005295Y-221290833D02*
X146148152Y-221290833D01*
X146148152Y-221290833D02*
X146243390Y-221243214D01*
X146243390Y-221243214D02*
X146291009Y-221195595D01*
X146291009Y-221195595D02*
X146338628Y-221100357D01*
X146338628Y-221100357D02*
X146338628Y-220719405D01*
X146814819Y-221767024D02*
X146814819Y-221957500D01*
X146814819Y-221957500D02*
X146767200Y-222052738D01*
X146767200Y-222052738D02*
X146719580Y-222100357D01*
X146719580Y-222100357D02*
X146576723Y-222195595D01*
X146576723Y-222195595D02*
X146386247Y-222243214D01*
X146386247Y-222243214D02*
X146005295Y-222243214D01*
X146005295Y-222243214D02*
X145910057Y-222195595D01*
X145910057Y-222195595D02*
X145862438Y-222147976D01*
X145862438Y-222147976D02*
X145814819Y-222052738D01*
X145814819Y-222052738D02*
X145814819Y-221862262D01*
X145814819Y-221862262D02*
X145862438Y-221767024D01*
X145862438Y-221767024D02*
X145910057Y-221719405D01*
X145910057Y-221719405D02*
X146005295Y-221671786D01*
X146005295Y-221671786D02*
X146243390Y-221671786D01*
X146243390Y-221671786D02*
X146338628Y-221719405D01*
X146338628Y-221719405D02*
X146386247Y-221767024D01*
X146386247Y-221767024D02*
X146433866Y-221862262D01*
X146433866Y-221862262D02*
X146433866Y-222052738D01*
X146433866Y-222052738D02*
X146386247Y-222147976D01*
X146386247Y-222147976D02*
X146338628Y-222195595D01*
X146338628Y-222195595D02*
X146243390Y-222243214D01*
X159244819Y-216114642D02*
X158768628Y-215781309D01*
X159244819Y-215543214D02*
X158244819Y-215543214D01*
X158244819Y-215543214D02*
X158244819Y-215924166D01*
X158244819Y-215924166D02*
X158292438Y-216019404D01*
X158292438Y-216019404D02*
X158340057Y-216067023D01*
X158340057Y-216067023D02*
X158435295Y-216114642D01*
X158435295Y-216114642D02*
X158578152Y-216114642D01*
X158578152Y-216114642D02*
X158673390Y-216067023D01*
X158673390Y-216067023D02*
X158721009Y-216019404D01*
X158721009Y-216019404D02*
X158768628Y-215924166D01*
X158768628Y-215924166D02*
X158768628Y-215543214D01*
X159244819Y-217067023D02*
X159244819Y-216495595D01*
X159244819Y-216781309D02*
X158244819Y-216781309D01*
X158244819Y-216781309D02*
X158387676Y-216686071D01*
X158387676Y-216686071D02*
X158482914Y-216590833D01*
X158482914Y-216590833D02*
X158530533Y-216495595D01*
X158244819Y-217400357D02*
X158244819Y-218019404D01*
X158244819Y-218019404D02*
X158625771Y-217686071D01*
X158625771Y-217686071D02*
X158625771Y-217828928D01*
X158625771Y-217828928D02*
X158673390Y-217924166D01*
X158673390Y-217924166D02*
X158721009Y-217971785D01*
X158721009Y-217971785D02*
X158816247Y-218019404D01*
X158816247Y-218019404D02*
X159054342Y-218019404D01*
X159054342Y-218019404D02*
X159149580Y-217971785D01*
X159149580Y-217971785D02*
X159197200Y-217924166D01*
X159197200Y-217924166D02*
X159244819Y-217828928D01*
X159244819Y-217828928D02*
X159244819Y-217543214D01*
X159244819Y-217543214D02*
X159197200Y-217447976D01*
X159197200Y-217447976D02*
X159149580Y-217400357D01*
X92249580Y-179144642D02*
X92297200Y-179097023D01*
X92297200Y-179097023D02*
X92344819Y-178954166D01*
X92344819Y-178954166D02*
X92344819Y-178858928D01*
X92344819Y-178858928D02*
X92297200Y-178716071D01*
X92297200Y-178716071D02*
X92201961Y-178620833D01*
X92201961Y-178620833D02*
X92106723Y-178573214D01*
X92106723Y-178573214D02*
X91916247Y-178525595D01*
X91916247Y-178525595D02*
X91773390Y-178525595D01*
X91773390Y-178525595D02*
X91582914Y-178573214D01*
X91582914Y-178573214D02*
X91487676Y-178620833D01*
X91487676Y-178620833D02*
X91392438Y-178716071D01*
X91392438Y-178716071D02*
X91344819Y-178858928D01*
X91344819Y-178858928D02*
X91344819Y-178954166D01*
X91344819Y-178954166D02*
X91392438Y-179097023D01*
X91392438Y-179097023D02*
X91440057Y-179144642D01*
X91440057Y-179525595D02*
X91392438Y-179573214D01*
X91392438Y-179573214D02*
X91344819Y-179668452D01*
X91344819Y-179668452D02*
X91344819Y-179906547D01*
X91344819Y-179906547D02*
X91392438Y-180001785D01*
X91392438Y-180001785D02*
X91440057Y-180049404D01*
X91440057Y-180049404D02*
X91535295Y-180097023D01*
X91535295Y-180097023D02*
X91630533Y-180097023D01*
X91630533Y-180097023D02*
X91773390Y-180049404D01*
X91773390Y-180049404D02*
X92344819Y-179477976D01*
X92344819Y-179477976D02*
X92344819Y-180097023D01*
X91344819Y-180430357D02*
X91344819Y-181049404D01*
X91344819Y-181049404D02*
X91725771Y-180716071D01*
X91725771Y-180716071D02*
X91725771Y-180858928D01*
X91725771Y-180858928D02*
X91773390Y-180954166D01*
X91773390Y-180954166D02*
X91821009Y-181001785D01*
X91821009Y-181001785D02*
X91916247Y-181049404D01*
X91916247Y-181049404D02*
X92154342Y-181049404D01*
X92154342Y-181049404D02*
X92249580Y-181001785D01*
X92249580Y-181001785D02*
X92297200Y-180954166D01*
X92297200Y-180954166D02*
X92344819Y-180858928D01*
X92344819Y-180858928D02*
X92344819Y-180573214D01*
X92344819Y-180573214D02*
X92297200Y-180477976D01*
X92297200Y-180477976D02*
X92249580Y-180430357D01*
X154499580Y-160290833D02*
X154547200Y-160243214D01*
X154547200Y-160243214D02*
X154594819Y-160100357D01*
X154594819Y-160100357D02*
X154594819Y-160005119D01*
X154594819Y-160005119D02*
X154547200Y-159862262D01*
X154547200Y-159862262D02*
X154451961Y-159767024D01*
X154451961Y-159767024D02*
X154356723Y-159719405D01*
X154356723Y-159719405D02*
X154166247Y-159671786D01*
X154166247Y-159671786D02*
X154023390Y-159671786D01*
X154023390Y-159671786D02*
X153832914Y-159719405D01*
X153832914Y-159719405D02*
X153737676Y-159767024D01*
X153737676Y-159767024D02*
X153642438Y-159862262D01*
X153642438Y-159862262D02*
X153594819Y-160005119D01*
X153594819Y-160005119D02*
X153594819Y-160100357D01*
X153594819Y-160100357D02*
X153642438Y-160243214D01*
X153642438Y-160243214D02*
X153690057Y-160290833D01*
X153928152Y-161147976D02*
X154594819Y-161147976D01*
X153547200Y-160909881D02*
X154261485Y-160671786D01*
X154261485Y-160671786D02*
X154261485Y-161290833D01*
X144244819Y-216214642D02*
X143768628Y-215881309D01*
X144244819Y-215643214D02*
X143244819Y-215643214D01*
X143244819Y-215643214D02*
X143244819Y-216024166D01*
X143244819Y-216024166D02*
X143292438Y-216119404D01*
X143292438Y-216119404D02*
X143340057Y-216167023D01*
X143340057Y-216167023D02*
X143435295Y-216214642D01*
X143435295Y-216214642D02*
X143578152Y-216214642D01*
X143578152Y-216214642D02*
X143673390Y-216167023D01*
X143673390Y-216167023D02*
X143721009Y-216119404D01*
X143721009Y-216119404D02*
X143768628Y-216024166D01*
X143768628Y-216024166D02*
X143768628Y-215643214D01*
X144244819Y-217167023D02*
X144244819Y-216595595D01*
X144244819Y-216881309D02*
X143244819Y-216881309D01*
X143244819Y-216881309D02*
X143387676Y-216786071D01*
X143387676Y-216786071D02*
X143482914Y-216690833D01*
X143482914Y-216690833D02*
X143530533Y-216595595D01*
X143244819Y-217786071D02*
X143244819Y-217881309D01*
X143244819Y-217881309D02*
X143292438Y-217976547D01*
X143292438Y-217976547D02*
X143340057Y-218024166D01*
X143340057Y-218024166D02*
X143435295Y-218071785D01*
X143435295Y-218071785D02*
X143625771Y-218119404D01*
X143625771Y-218119404D02*
X143863866Y-218119404D01*
X143863866Y-218119404D02*
X144054342Y-218071785D01*
X144054342Y-218071785D02*
X144149580Y-218024166D01*
X144149580Y-218024166D02*
X144197200Y-217976547D01*
X144197200Y-217976547D02*
X144244819Y-217881309D01*
X144244819Y-217881309D02*
X144244819Y-217786071D01*
X144244819Y-217786071D02*
X144197200Y-217690833D01*
X144197200Y-217690833D02*
X144149580Y-217643214D01*
X144149580Y-217643214D02*
X144054342Y-217595595D01*
X144054342Y-217595595D02*
X143863866Y-217547976D01*
X143863866Y-217547976D02*
X143625771Y-217547976D01*
X143625771Y-217547976D02*
X143435295Y-217595595D01*
X143435295Y-217595595D02*
X143340057Y-217643214D01*
X143340057Y-217643214D02*
X143292438Y-217690833D01*
X143292438Y-217690833D02*
X143244819Y-217786071D01*
X78532857Y-194647080D02*
X78580476Y-194694700D01*
X78580476Y-194694700D02*
X78723333Y-194742319D01*
X78723333Y-194742319D02*
X78818571Y-194742319D01*
X78818571Y-194742319D02*
X78961428Y-194694700D01*
X78961428Y-194694700D02*
X79056666Y-194599461D01*
X79056666Y-194599461D02*
X79104285Y-194504223D01*
X79104285Y-194504223D02*
X79151904Y-194313747D01*
X79151904Y-194313747D02*
X79151904Y-194170890D01*
X79151904Y-194170890D02*
X79104285Y-193980414D01*
X79104285Y-193980414D02*
X79056666Y-193885176D01*
X79056666Y-193885176D02*
X78961428Y-193789938D01*
X78961428Y-193789938D02*
X78818571Y-193742319D01*
X78818571Y-193742319D02*
X78723333Y-193742319D01*
X78723333Y-193742319D02*
X78580476Y-193789938D01*
X78580476Y-193789938D02*
X78532857Y-193837557D01*
X78151904Y-193837557D02*
X78104285Y-193789938D01*
X78104285Y-193789938D02*
X78009047Y-193742319D01*
X78009047Y-193742319D02*
X77770952Y-193742319D01*
X77770952Y-193742319D02*
X77675714Y-193789938D01*
X77675714Y-193789938D02*
X77628095Y-193837557D01*
X77628095Y-193837557D02*
X77580476Y-193932795D01*
X77580476Y-193932795D02*
X77580476Y-194028033D01*
X77580476Y-194028033D02*
X77628095Y-194170890D01*
X77628095Y-194170890D02*
X78199523Y-194742319D01*
X78199523Y-194742319D02*
X77580476Y-194742319D01*
X76723333Y-194075652D02*
X76723333Y-194742319D01*
X76961428Y-193694700D02*
X77199523Y-194408985D01*
X77199523Y-194408985D02*
X76580476Y-194408985D01*
X86457857Y-210222080D02*
X86505476Y-210269700D01*
X86505476Y-210269700D02*
X86648333Y-210317319D01*
X86648333Y-210317319D02*
X86743571Y-210317319D01*
X86743571Y-210317319D02*
X86886428Y-210269700D01*
X86886428Y-210269700D02*
X86981666Y-210174461D01*
X86981666Y-210174461D02*
X87029285Y-210079223D01*
X87029285Y-210079223D02*
X87076904Y-209888747D01*
X87076904Y-209888747D02*
X87076904Y-209745890D01*
X87076904Y-209745890D02*
X87029285Y-209555414D01*
X87029285Y-209555414D02*
X86981666Y-209460176D01*
X86981666Y-209460176D02*
X86886428Y-209364938D01*
X86886428Y-209364938D02*
X86743571Y-209317319D01*
X86743571Y-209317319D02*
X86648333Y-209317319D01*
X86648333Y-209317319D02*
X86505476Y-209364938D01*
X86505476Y-209364938D02*
X86457857Y-209412557D01*
X85505476Y-210317319D02*
X86076904Y-210317319D01*
X85791190Y-210317319D02*
X85791190Y-209317319D01*
X85791190Y-209317319D02*
X85886428Y-209460176D01*
X85886428Y-209460176D02*
X85981666Y-209555414D01*
X85981666Y-209555414D02*
X86076904Y-209603033D01*
X84934047Y-209745890D02*
X85029285Y-209698271D01*
X85029285Y-209698271D02*
X85076904Y-209650652D01*
X85076904Y-209650652D02*
X85124523Y-209555414D01*
X85124523Y-209555414D02*
X85124523Y-209507795D01*
X85124523Y-209507795D02*
X85076904Y-209412557D01*
X85076904Y-209412557D02*
X85029285Y-209364938D01*
X85029285Y-209364938D02*
X84934047Y-209317319D01*
X84934047Y-209317319D02*
X84743571Y-209317319D01*
X84743571Y-209317319D02*
X84648333Y-209364938D01*
X84648333Y-209364938D02*
X84600714Y-209412557D01*
X84600714Y-209412557D02*
X84553095Y-209507795D01*
X84553095Y-209507795D02*
X84553095Y-209555414D01*
X84553095Y-209555414D02*
X84600714Y-209650652D01*
X84600714Y-209650652D02*
X84648333Y-209698271D01*
X84648333Y-209698271D02*
X84743571Y-209745890D01*
X84743571Y-209745890D02*
X84934047Y-209745890D01*
X84934047Y-209745890D02*
X85029285Y-209793509D01*
X85029285Y-209793509D02*
X85076904Y-209841128D01*
X85076904Y-209841128D02*
X85124523Y-209936366D01*
X85124523Y-209936366D02*
X85124523Y-210126842D01*
X85124523Y-210126842D02*
X85076904Y-210222080D01*
X85076904Y-210222080D02*
X85029285Y-210269700D01*
X85029285Y-210269700D02*
X84934047Y-210317319D01*
X84934047Y-210317319D02*
X84743571Y-210317319D01*
X84743571Y-210317319D02*
X84648333Y-210269700D01*
X84648333Y-210269700D02*
X84600714Y-210222080D01*
X84600714Y-210222080D02*
X84553095Y-210126842D01*
X84553095Y-210126842D02*
X84553095Y-209936366D01*
X84553095Y-209936366D02*
X84600714Y-209841128D01*
X84600714Y-209841128D02*
X84648333Y-209793509D01*
X84648333Y-209793509D02*
X84743571Y-209745890D01*
X144119580Y-113410833D02*
X144167200Y-113363214D01*
X144167200Y-113363214D02*
X144214819Y-113220357D01*
X144214819Y-113220357D02*
X144214819Y-113125119D01*
X144214819Y-113125119D02*
X144167200Y-112982262D01*
X144167200Y-112982262D02*
X144071961Y-112887024D01*
X144071961Y-112887024D02*
X143976723Y-112839405D01*
X143976723Y-112839405D02*
X143786247Y-112791786D01*
X143786247Y-112791786D02*
X143643390Y-112791786D01*
X143643390Y-112791786D02*
X143452914Y-112839405D01*
X143452914Y-112839405D02*
X143357676Y-112887024D01*
X143357676Y-112887024D02*
X143262438Y-112982262D01*
X143262438Y-112982262D02*
X143214819Y-113125119D01*
X143214819Y-113125119D02*
X143214819Y-113220357D01*
X143214819Y-113220357D02*
X143262438Y-113363214D01*
X143262438Y-113363214D02*
X143310057Y-113410833D01*
X144214819Y-113887024D02*
X144214819Y-114077500D01*
X144214819Y-114077500D02*
X144167200Y-114172738D01*
X144167200Y-114172738D02*
X144119580Y-114220357D01*
X144119580Y-114220357D02*
X143976723Y-114315595D01*
X143976723Y-114315595D02*
X143786247Y-114363214D01*
X143786247Y-114363214D02*
X143405295Y-114363214D01*
X143405295Y-114363214D02*
X143310057Y-114315595D01*
X143310057Y-114315595D02*
X143262438Y-114267976D01*
X143262438Y-114267976D02*
X143214819Y-114172738D01*
X143214819Y-114172738D02*
X143214819Y-113982262D01*
X143214819Y-113982262D02*
X143262438Y-113887024D01*
X143262438Y-113887024D02*
X143310057Y-113839405D01*
X143310057Y-113839405D02*
X143405295Y-113791786D01*
X143405295Y-113791786D02*
X143643390Y-113791786D01*
X143643390Y-113791786D02*
X143738628Y-113839405D01*
X143738628Y-113839405D02*
X143786247Y-113887024D01*
X143786247Y-113887024D02*
X143833866Y-113982262D01*
X143833866Y-113982262D02*
X143833866Y-114172738D01*
X143833866Y-114172738D02*
X143786247Y-114267976D01*
X143786247Y-114267976D02*
X143738628Y-114315595D01*
X143738628Y-114315595D02*
X143643390Y-114363214D01*
X174544819Y-216414642D02*
X174068628Y-216081309D01*
X174544819Y-215843214D02*
X173544819Y-215843214D01*
X173544819Y-215843214D02*
X173544819Y-216224166D01*
X173544819Y-216224166D02*
X173592438Y-216319404D01*
X173592438Y-216319404D02*
X173640057Y-216367023D01*
X173640057Y-216367023D02*
X173735295Y-216414642D01*
X173735295Y-216414642D02*
X173878152Y-216414642D01*
X173878152Y-216414642D02*
X173973390Y-216367023D01*
X173973390Y-216367023D02*
X174021009Y-216319404D01*
X174021009Y-216319404D02*
X174068628Y-216224166D01*
X174068628Y-216224166D02*
X174068628Y-215843214D01*
X174544819Y-217367023D02*
X174544819Y-216795595D01*
X174544819Y-217081309D02*
X173544819Y-217081309D01*
X173544819Y-217081309D02*
X173687676Y-216986071D01*
X173687676Y-216986071D02*
X173782914Y-216890833D01*
X173782914Y-216890833D02*
X173830533Y-216795595D01*
X173544819Y-218224166D02*
X173544819Y-218033690D01*
X173544819Y-218033690D02*
X173592438Y-217938452D01*
X173592438Y-217938452D02*
X173640057Y-217890833D01*
X173640057Y-217890833D02*
X173782914Y-217795595D01*
X173782914Y-217795595D02*
X173973390Y-217747976D01*
X173973390Y-217747976D02*
X174354342Y-217747976D01*
X174354342Y-217747976D02*
X174449580Y-217795595D01*
X174449580Y-217795595D02*
X174497200Y-217843214D01*
X174497200Y-217843214D02*
X174544819Y-217938452D01*
X174544819Y-217938452D02*
X174544819Y-218128928D01*
X174544819Y-218128928D02*
X174497200Y-218224166D01*
X174497200Y-218224166D02*
X174449580Y-218271785D01*
X174449580Y-218271785D02*
X174354342Y-218319404D01*
X174354342Y-218319404D02*
X174116247Y-218319404D01*
X174116247Y-218319404D02*
X174021009Y-218271785D01*
X174021009Y-218271785D02*
X173973390Y-218224166D01*
X173973390Y-218224166D02*
X173925771Y-218128928D01*
X173925771Y-218128928D02*
X173925771Y-217938452D01*
X173925771Y-217938452D02*
X173973390Y-217843214D01*
X173973390Y-217843214D02*
X174021009Y-217795595D01*
X174021009Y-217795595D02*
X174116247Y-217747976D01*
X161714819Y-220414642D02*
X161238628Y-220081309D01*
X161714819Y-219843214D02*
X160714819Y-219843214D01*
X160714819Y-219843214D02*
X160714819Y-220224166D01*
X160714819Y-220224166D02*
X160762438Y-220319404D01*
X160762438Y-220319404D02*
X160810057Y-220367023D01*
X160810057Y-220367023D02*
X160905295Y-220414642D01*
X160905295Y-220414642D02*
X161048152Y-220414642D01*
X161048152Y-220414642D02*
X161143390Y-220367023D01*
X161143390Y-220367023D02*
X161191009Y-220319404D01*
X161191009Y-220319404D02*
X161238628Y-220224166D01*
X161238628Y-220224166D02*
X161238628Y-219843214D01*
X161714819Y-221367023D02*
X161714819Y-220795595D01*
X161714819Y-221081309D02*
X160714819Y-221081309D01*
X160714819Y-221081309D02*
X160857676Y-220986071D01*
X160857676Y-220986071D02*
X160952914Y-220890833D01*
X160952914Y-220890833D02*
X161000533Y-220795595D01*
X160810057Y-221747976D02*
X160762438Y-221795595D01*
X160762438Y-221795595D02*
X160714819Y-221890833D01*
X160714819Y-221890833D02*
X160714819Y-222128928D01*
X160714819Y-222128928D02*
X160762438Y-222224166D01*
X160762438Y-222224166D02*
X160810057Y-222271785D01*
X160810057Y-222271785D02*
X160905295Y-222319404D01*
X160905295Y-222319404D02*
X161000533Y-222319404D01*
X161000533Y-222319404D02*
X161143390Y-222271785D01*
X161143390Y-222271785D02*
X161714819Y-221700357D01*
X161714819Y-221700357D02*
X161714819Y-222319404D01*
X151039580Y-113370833D02*
X151087200Y-113323214D01*
X151087200Y-113323214D02*
X151134819Y-113180357D01*
X151134819Y-113180357D02*
X151134819Y-113085119D01*
X151134819Y-113085119D02*
X151087200Y-112942262D01*
X151087200Y-112942262D02*
X150991961Y-112847024D01*
X150991961Y-112847024D02*
X150896723Y-112799405D01*
X150896723Y-112799405D02*
X150706247Y-112751786D01*
X150706247Y-112751786D02*
X150563390Y-112751786D01*
X150563390Y-112751786D02*
X150372914Y-112799405D01*
X150372914Y-112799405D02*
X150277676Y-112847024D01*
X150277676Y-112847024D02*
X150182438Y-112942262D01*
X150182438Y-112942262D02*
X150134819Y-113085119D01*
X150134819Y-113085119D02*
X150134819Y-113180357D01*
X150134819Y-113180357D02*
X150182438Y-113323214D01*
X150182438Y-113323214D02*
X150230057Y-113370833D01*
X150563390Y-113942262D02*
X150515771Y-113847024D01*
X150515771Y-113847024D02*
X150468152Y-113799405D01*
X150468152Y-113799405D02*
X150372914Y-113751786D01*
X150372914Y-113751786D02*
X150325295Y-113751786D01*
X150325295Y-113751786D02*
X150230057Y-113799405D01*
X150230057Y-113799405D02*
X150182438Y-113847024D01*
X150182438Y-113847024D02*
X150134819Y-113942262D01*
X150134819Y-113942262D02*
X150134819Y-114132738D01*
X150134819Y-114132738D02*
X150182438Y-114227976D01*
X150182438Y-114227976D02*
X150230057Y-114275595D01*
X150230057Y-114275595D02*
X150325295Y-114323214D01*
X150325295Y-114323214D02*
X150372914Y-114323214D01*
X150372914Y-114323214D02*
X150468152Y-114275595D01*
X150468152Y-114275595D02*
X150515771Y-114227976D01*
X150515771Y-114227976D02*
X150563390Y-114132738D01*
X150563390Y-114132738D02*
X150563390Y-113942262D01*
X150563390Y-113942262D02*
X150611009Y-113847024D01*
X150611009Y-113847024D02*
X150658628Y-113799405D01*
X150658628Y-113799405D02*
X150753866Y-113751786D01*
X150753866Y-113751786D02*
X150944342Y-113751786D01*
X150944342Y-113751786D02*
X151039580Y-113799405D01*
X151039580Y-113799405D02*
X151087200Y-113847024D01*
X151087200Y-113847024D02*
X151134819Y-113942262D01*
X151134819Y-113942262D02*
X151134819Y-114132738D01*
X151134819Y-114132738D02*
X151087200Y-114227976D01*
X151087200Y-114227976D02*
X151039580Y-114275595D01*
X151039580Y-114275595D02*
X150944342Y-114323214D01*
X150944342Y-114323214D02*
X150753866Y-114323214D01*
X150753866Y-114323214D02*
X150658628Y-114275595D01*
X150658628Y-114275595D02*
X150611009Y-114227976D01*
X150611009Y-114227976D02*
X150563390Y-114132738D01*
X131944819Y-221590833D02*
X131468628Y-221257500D01*
X131944819Y-221019405D02*
X130944819Y-221019405D01*
X130944819Y-221019405D02*
X130944819Y-221400357D01*
X130944819Y-221400357D02*
X130992438Y-221495595D01*
X130992438Y-221495595D02*
X131040057Y-221543214D01*
X131040057Y-221543214D02*
X131135295Y-221590833D01*
X131135295Y-221590833D02*
X131278152Y-221590833D01*
X131278152Y-221590833D02*
X131373390Y-221543214D01*
X131373390Y-221543214D02*
X131421009Y-221495595D01*
X131421009Y-221495595D02*
X131468628Y-221400357D01*
X131468628Y-221400357D02*
X131468628Y-221019405D01*
X130944819Y-221924167D02*
X130944819Y-222590833D01*
X130944819Y-222590833D02*
X131944819Y-222162262D01*
X177014819Y-220714642D02*
X176538628Y-220381309D01*
X177014819Y-220143214D02*
X176014819Y-220143214D01*
X176014819Y-220143214D02*
X176014819Y-220524166D01*
X176014819Y-220524166D02*
X176062438Y-220619404D01*
X176062438Y-220619404D02*
X176110057Y-220667023D01*
X176110057Y-220667023D02*
X176205295Y-220714642D01*
X176205295Y-220714642D02*
X176348152Y-220714642D01*
X176348152Y-220714642D02*
X176443390Y-220667023D01*
X176443390Y-220667023D02*
X176491009Y-220619404D01*
X176491009Y-220619404D02*
X176538628Y-220524166D01*
X176538628Y-220524166D02*
X176538628Y-220143214D01*
X177014819Y-221667023D02*
X177014819Y-221095595D01*
X177014819Y-221381309D02*
X176014819Y-221381309D01*
X176014819Y-221381309D02*
X176157676Y-221286071D01*
X176157676Y-221286071D02*
X176252914Y-221190833D01*
X176252914Y-221190833D02*
X176300533Y-221095595D01*
X176014819Y-222571785D02*
X176014819Y-222095595D01*
X176014819Y-222095595D02*
X176491009Y-222047976D01*
X176491009Y-222047976D02*
X176443390Y-222095595D01*
X176443390Y-222095595D02*
X176395771Y-222190833D01*
X176395771Y-222190833D02*
X176395771Y-222428928D01*
X176395771Y-222428928D02*
X176443390Y-222524166D01*
X176443390Y-222524166D02*
X176491009Y-222571785D01*
X176491009Y-222571785D02*
X176586247Y-222619404D01*
X176586247Y-222619404D02*
X176824342Y-222619404D01*
X176824342Y-222619404D02*
X176919580Y-222571785D01*
X176919580Y-222571785D02*
X176967200Y-222524166D01*
X176967200Y-222524166D02*
X177014819Y-222428928D01*
X177014819Y-222428928D02*
X177014819Y-222190833D01*
X177014819Y-222190833D02*
X176967200Y-222095595D01*
X176967200Y-222095595D02*
X176919580Y-222047976D01*
X91257857Y-210177080D02*
X91305476Y-210224700D01*
X91305476Y-210224700D02*
X91448333Y-210272319D01*
X91448333Y-210272319D02*
X91543571Y-210272319D01*
X91543571Y-210272319D02*
X91686428Y-210224700D01*
X91686428Y-210224700D02*
X91781666Y-210129461D01*
X91781666Y-210129461D02*
X91829285Y-210034223D01*
X91829285Y-210034223D02*
X91876904Y-209843747D01*
X91876904Y-209843747D02*
X91876904Y-209700890D01*
X91876904Y-209700890D02*
X91829285Y-209510414D01*
X91829285Y-209510414D02*
X91781666Y-209415176D01*
X91781666Y-209415176D02*
X91686428Y-209319938D01*
X91686428Y-209319938D02*
X91543571Y-209272319D01*
X91543571Y-209272319D02*
X91448333Y-209272319D01*
X91448333Y-209272319D02*
X91305476Y-209319938D01*
X91305476Y-209319938D02*
X91257857Y-209367557D01*
X90876904Y-209367557D02*
X90829285Y-209319938D01*
X90829285Y-209319938D02*
X90734047Y-209272319D01*
X90734047Y-209272319D02*
X90495952Y-209272319D01*
X90495952Y-209272319D02*
X90400714Y-209319938D01*
X90400714Y-209319938D02*
X90353095Y-209367557D01*
X90353095Y-209367557D02*
X90305476Y-209462795D01*
X90305476Y-209462795D02*
X90305476Y-209558033D01*
X90305476Y-209558033D02*
X90353095Y-209700890D01*
X90353095Y-209700890D02*
X90924523Y-210272319D01*
X90924523Y-210272319D02*
X90305476Y-210272319D01*
X89353095Y-210272319D02*
X89924523Y-210272319D01*
X89638809Y-210272319D02*
X89638809Y-209272319D01*
X89638809Y-209272319D02*
X89734047Y-209415176D01*
X89734047Y-209415176D02*
X89829285Y-209510414D01*
X89829285Y-209510414D02*
X89924523Y-209558033D01*
X144019580Y-128010833D02*
X144067200Y-127963214D01*
X144067200Y-127963214D02*
X144114819Y-127820357D01*
X144114819Y-127820357D02*
X144114819Y-127725119D01*
X144114819Y-127725119D02*
X144067200Y-127582262D01*
X144067200Y-127582262D02*
X143971961Y-127487024D01*
X143971961Y-127487024D02*
X143876723Y-127439405D01*
X143876723Y-127439405D02*
X143686247Y-127391786D01*
X143686247Y-127391786D02*
X143543390Y-127391786D01*
X143543390Y-127391786D02*
X143352914Y-127439405D01*
X143352914Y-127439405D02*
X143257676Y-127487024D01*
X143257676Y-127487024D02*
X143162438Y-127582262D01*
X143162438Y-127582262D02*
X143114819Y-127725119D01*
X143114819Y-127725119D02*
X143114819Y-127820357D01*
X143114819Y-127820357D02*
X143162438Y-127963214D01*
X143162438Y-127963214D02*
X143210057Y-128010833D01*
X143114819Y-128867976D02*
X143114819Y-128677500D01*
X143114819Y-128677500D02*
X143162438Y-128582262D01*
X143162438Y-128582262D02*
X143210057Y-128534643D01*
X143210057Y-128534643D02*
X143352914Y-128439405D01*
X143352914Y-128439405D02*
X143543390Y-128391786D01*
X143543390Y-128391786D02*
X143924342Y-128391786D01*
X143924342Y-128391786D02*
X144019580Y-128439405D01*
X144019580Y-128439405D02*
X144067200Y-128487024D01*
X144067200Y-128487024D02*
X144114819Y-128582262D01*
X144114819Y-128582262D02*
X144114819Y-128772738D01*
X144114819Y-128772738D02*
X144067200Y-128867976D01*
X144067200Y-128867976D02*
X144019580Y-128915595D01*
X144019580Y-128915595D02*
X143924342Y-128963214D01*
X143924342Y-128963214D02*
X143686247Y-128963214D01*
X143686247Y-128963214D02*
X143591009Y-128915595D01*
X143591009Y-128915595D02*
X143543390Y-128867976D01*
X143543390Y-128867976D02*
X143495771Y-128772738D01*
X143495771Y-128772738D02*
X143495771Y-128582262D01*
X143495771Y-128582262D02*
X143543390Y-128487024D01*
X143543390Y-128487024D02*
X143591009Y-128439405D01*
X143591009Y-128439405D02*
X143686247Y-128391786D01*
X149549580Y-160290833D02*
X149597200Y-160243214D01*
X149597200Y-160243214D02*
X149644819Y-160100357D01*
X149644819Y-160100357D02*
X149644819Y-160005119D01*
X149644819Y-160005119D02*
X149597200Y-159862262D01*
X149597200Y-159862262D02*
X149501961Y-159767024D01*
X149501961Y-159767024D02*
X149406723Y-159719405D01*
X149406723Y-159719405D02*
X149216247Y-159671786D01*
X149216247Y-159671786D02*
X149073390Y-159671786D01*
X149073390Y-159671786D02*
X148882914Y-159719405D01*
X148882914Y-159719405D02*
X148787676Y-159767024D01*
X148787676Y-159767024D02*
X148692438Y-159862262D01*
X148692438Y-159862262D02*
X148644819Y-160005119D01*
X148644819Y-160005119D02*
X148644819Y-160100357D01*
X148644819Y-160100357D02*
X148692438Y-160243214D01*
X148692438Y-160243214D02*
X148740057Y-160290833D01*
X148644819Y-161195595D02*
X148644819Y-160719405D01*
X148644819Y-160719405D02*
X149121009Y-160671786D01*
X149121009Y-160671786D02*
X149073390Y-160719405D01*
X149073390Y-160719405D02*
X149025771Y-160814643D01*
X149025771Y-160814643D02*
X149025771Y-161052738D01*
X149025771Y-161052738D02*
X149073390Y-161147976D01*
X149073390Y-161147976D02*
X149121009Y-161195595D01*
X149121009Y-161195595D02*
X149216247Y-161243214D01*
X149216247Y-161243214D02*
X149454342Y-161243214D01*
X149454342Y-161243214D02*
X149549580Y-161195595D01*
X149549580Y-161195595D02*
X149597200Y-161147976D01*
X149597200Y-161147976D02*
X149644819Y-161052738D01*
X149644819Y-161052738D02*
X149644819Y-160814643D01*
X149644819Y-160814643D02*
X149597200Y-160719405D01*
X149597200Y-160719405D02*
X149549580Y-160671786D01*
X81599580Y-208069642D02*
X81647200Y-208022023D01*
X81647200Y-208022023D02*
X81694819Y-207879166D01*
X81694819Y-207879166D02*
X81694819Y-207783928D01*
X81694819Y-207783928D02*
X81647200Y-207641071D01*
X81647200Y-207641071D02*
X81551961Y-207545833D01*
X81551961Y-207545833D02*
X81456723Y-207498214D01*
X81456723Y-207498214D02*
X81266247Y-207450595D01*
X81266247Y-207450595D02*
X81123390Y-207450595D01*
X81123390Y-207450595D02*
X80932914Y-207498214D01*
X80932914Y-207498214D02*
X80837676Y-207545833D01*
X80837676Y-207545833D02*
X80742438Y-207641071D01*
X80742438Y-207641071D02*
X80694819Y-207783928D01*
X80694819Y-207783928D02*
X80694819Y-207879166D01*
X80694819Y-207879166D02*
X80742438Y-208022023D01*
X80742438Y-208022023D02*
X80790057Y-208069642D01*
X80790057Y-208450595D02*
X80742438Y-208498214D01*
X80742438Y-208498214D02*
X80694819Y-208593452D01*
X80694819Y-208593452D02*
X80694819Y-208831547D01*
X80694819Y-208831547D02*
X80742438Y-208926785D01*
X80742438Y-208926785D02*
X80790057Y-208974404D01*
X80790057Y-208974404D02*
X80885295Y-209022023D01*
X80885295Y-209022023D02*
X80980533Y-209022023D01*
X80980533Y-209022023D02*
X81123390Y-208974404D01*
X81123390Y-208974404D02*
X81694819Y-208402976D01*
X81694819Y-208402976D02*
X81694819Y-209022023D01*
X80694819Y-209641071D02*
X80694819Y-209736309D01*
X80694819Y-209736309D02*
X80742438Y-209831547D01*
X80742438Y-209831547D02*
X80790057Y-209879166D01*
X80790057Y-209879166D02*
X80885295Y-209926785D01*
X80885295Y-209926785D02*
X81075771Y-209974404D01*
X81075771Y-209974404D02*
X81313866Y-209974404D01*
X81313866Y-209974404D02*
X81504342Y-209926785D01*
X81504342Y-209926785D02*
X81599580Y-209879166D01*
X81599580Y-209879166D02*
X81647200Y-209831547D01*
X81647200Y-209831547D02*
X81694819Y-209736309D01*
X81694819Y-209736309D02*
X81694819Y-209641071D01*
X81694819Y-209641071D02*
X81647200Y-209545833D01*
X81647200Y-209545833D02*
X81599580Y-209498214D01*
X81599580Y-209498214D02*
X81504342Y-209450595D01*
X81504342Y-209450595D02*
X81313866Y-209402976D01*
X81313866Y-209402976D02*
X81075771Y-209402976D01*
X81075771Y-209402976D02*
X80885295Y-209450595D01*
X80885295Y-209450595D02*
X80790057Y-209498214D01*
X80790057Y-209498214D02*
X80742438Y-209545833D01*
X80742438Y-209545833D02*
X80694819Y-209641071D01*
X129344819Y-216690833D02*
X128868628Y-216357500D01*
X129344819Y-216119405D02*
X128344819Y-216119405D01*
X128344819Y-216119405D02*
X128344819Y-216500357D01*
X128344819Y-216500357D02*
X128392438Y-216595595D01*
X128392438Y-216595595D02*
X128440057Y-216643214D01*
X128440057Y-216643214D02*
X128535295Y-216690833D01*
X128535295Y-216690833D02*
X128678152Y-216690833D01*
X128678152Y-216690833D02*
X128773390Y-216643214D01*
X128773390Y-216643214D02*
X128821009Y-216595595D01*
X128821009Y-216595595D02*
X128868628Y-216500357D01*
X128868628Y-216500357D02*
X128868628Y-216119405D01*
X128344819Y-217547976D02*
X128344819Y-217357500D01*
X128344819Y-217357500D02*
X128392438Y-217262262D01*
X128392438Y-217262262D02*
X128440057Y-217214643D01*
X128440057Y-217214643D02*
X128582914Y-217119405D01*
X128582914Y-217119405D02*
X128773390Y-217071786D01*
X128773390Y-217071786D02*
X129154342Y-217071786D01*
X129154342Y-217071786D02*
X129249580Y-217119405D01*
X129249580Y-217119405D02*
X129297200Y-217167024D01*
X129297200Y-217167024D02*
X129344819Y-217262262D01*
X129344819Y-217262262D02*
X129344819Y-217452738D01*
X129344819Y-217452738D02*
X129297200Y-217547976D01*
X129297200Y-217547976D02*
X129249580Y-217595595D01*
X129249580Y-217595595D02*
X129154342Y-217643214D01*
X129154342Y-217643214D02*
X128916247Y-217643214D01*
X128916247Y-217643214D02*
X128821009Y-217595595D01*
X128821009Y-217595595D02*
X128773390Y-217547976D01*
X128773390Y-217547976D02*
X128725771Y-217452738D01*
X128725771Y-217452738D02*
X128725771Y-217262262D01*
X128725771Y-217262262D02*
X128773390Y-217167024D01*
X128773390Y-217167024D02*
X128821009Y-217119405D01*
X128821009Y-217119405D02*
X128916247Y-217071786D01*
X91949580Y-186749642D02*
X91997200Y-186702023D01*
X91997200Y-186702023D02*
X92044819Y-186559166D01*
X92044819Y-186559166D02*
X92044819Y-186463928D01*
X92044819Y-186463928D02*
X91997200Y-186321071D01*
X91997200Y-186321071D02*
X91901961Y-186225833D01*
X91901961Y-186225833D02*
X91806723Y-186178214D01*
X91806723Y-186178214D02*
X91616247Y-186130595D01*
X91616247Y-186130595D02*
X91473390Y-186130595D01*
X91473390Y-186130595D02*
X91282914Y-186178214D01*
X91282914Y-186178214D02*
X91187676Y-186225833D01*
X91187676Y-186225833D02*
X91092438Y-186321071D01*
X91092438Y-186321071D02*
X91044819Y-186463928D01*
X91044819Y-186463928D02*
X91044819Y-186559166D01*
X91044819Y-186559166D02*
X91092438Y-186702023D01*
X91092438Y-186702023D02*
X91140057Y-186749642D01*
X91140057Y-187130595D02*
X91092438Y-187178214D01*
X91092438Y-187178214D02*
X91044819Y-187273452D01*
X91044819Y-187273452D02*
X91044819Y-187511547D01*
X91044819Y-187511547D02*
X91092438Y-187606785D01*
X91092438Y-187606785D02*
X91140057Y-187654404D01*
X91140057Y-187654404D02*
X91235295Y-187702023D01*
X91235295Y-187702023D02*
X91330533Y-187702023D01*
X91330533Y-187702023D02*
X91473390Y-187654404D01*
X91473390Y-187654404D02*
X92044819Y-187082976D01*
X92044819Y-187082976D02*
X92044819Y-187702023D01*
X91140057Y-188082976D02*
X91092438Y-188130595D01*
X91092438Y-188130595D02*
X91044819Y-188225833D01*
X91044819Y-188225833D02*
X91044819Y-188463928D01*
X91044819Y-188463928D02*
X91092438Y-188559166D01*
X91092438Y-188559166D02*
X91140057Y-188606785D01*
X91140057Y-188606785D02*
X91235295Y-188654404D01*
X91235295Y-188654404D02*
X91330533Y-188654404D01*
X91330533Y-188654404D02*
X91473390Y-188606785D01*
X91473390Y-188606785D02*
X92044819Y-188035357D01*
X92044819Y-188035357D02*
X92044819Y-188654404D01*
X153576666Y-149307080D02*
X153624285Y-149354700D01*
X153624285Y-149354700D02*
X153767142Y-149402319D01*
X153767142Y-149402319D02*
X153862380Y-149402319D01*
X153862380Y-149402319D02*
X154005237Y-149354700D01*
X154005237Y-149354700D02*
X154100475Y-149259461D01*
X154100475Y-149259461D02*
X154148094Y-149164223D01*
X154148094Y-149164223D02*
X154195713Y-148973747D01*
X154195713Y-148973747D02*
X154195713Y-148830890D01*
X154195713Y-148830890D02*
X154148094Y-148640414D01*
X154148094Y-148640414D02*
X154100475Y-148545176D01*
X154100475Y-148545176D02*
X154005237Y-148449938D01*
X154005237Y-148449938D02*
X153862380Y-148402319D01*
X153862380Y-148402319D02*
X153767142Y-148402319D01*
X153767142Y-148402319D02*
X153624285Y-148449938D01*
X153624285Y-148449938D02*
X153576666Y-148497557D01*
X153195713Y-148497557D02*
X153148094Y-148449938D01*
X153148094Y-148449938D02*
X153052856Y-148402319D01*
X153052856Y-148402319D02*
X152814761Y-148402319D01*
X152814761Y-148402319D02*
X152719523Y-148449938D01*
X152719523Y-148449938D02*
X152671904Y-148497557D01*
X152671904Y-148497557D02*
X152624285Y-148592795D01*
X152624285Y-148592795D02*
X152624285Y-148688033D01*
X152624285Y-148688033D02*
X152671904Y-148830890D01*
X152671904Y-148830890D02*
X153243332Y-149402319D01*
X153243332Y-149402319D02*
X152624285Y-149402319D01*
X192714819Y-64264642D02*
X192238628Y-63931309D01*
X192714819Y-63693214D02*
X191714819Y-63693214D01*
X191714819Y-63693214D02*
X191714819Y-64074166D01*
X191714819Y-64074166D02*
X191762438Y-64169404D01*
X191762438Y-64169404D02*
X191810057Y-64217023D01*
X191810057Y-64217023D02*
X191905295Y-64264642D01*
X191905295Y-64264642D02*
X192048152Y-64264642D01*
X192048152Y-64264642D02*
X192143390Y-64217023D01*
X192143390Y-64217023D02*
X192191009Y-64169404D01*
X192191009Y-64169404D02*
X192238628Y-64074166D01*
X192238628Y-64074166D02*
X192238628Y-63693214D01*
X191810057Y-64645595D02*
X191762438Y-64693214D01*
X191762438Y-64693214D02*
X191714819Y-64788452D01*
X191714819Y-64788452D02*
X191714819Y-65026547D01*
X191714819Y-65026547D02*
X191762438Y-65121785D01*
X191762438Y-65121785D02*
X191810057Y-65169404D01*
X191810057Y-65169404D02*
X191905295Y-65217023D01*
X191905295Y-65217023D02*
X192000533Y-65217023D01*
X192000533Y-65217023D02*
X192143390Y-65169404D01*
X192143390Y-65169404D02*
X192714819Y-64597976D01*
X192714819Y-64597976D02*
X192714819Y-65217023D01*
X191714819Y-65550357D02*
X191714819Y-66169404D01*
X191714819Y-66169404D02*
X192095771Y-65836071D01*
X192095771Y-65836071D02*
X192095771Y-65978928D01*
X192095771Y-65978928D02*
X192143390Y-66074166D01*
X192143390Y-66074166D02*
X192191009Y-66121785D01*
X192191009Y-66121785D02*
X192286247Y-66169404D01*
X192286247Y-66169404D02*
X192524342Y-66169404D01*
X192524342Y-66169404D02*
X192619580Y-66121785D01*
X192619580Y-66121785D02*
X192667200Y-66074166D01*
X192667200Y-66074166D02*
X192714819Y-65978928D01*
X192714819Y-65978928D02*
X192714819Y-65693214D01*
X192714819Y-65693214D02*
X192667200Y-65597976D01*
X192667200Y-65597976D02*
X192619580Y-65550357D01*
X150839580Y-128110833D02*
X150887200Y-128063214D01*
X150887200Y-128063214D02*
X150934819Y-127920357D01*
X150934819Y-127920357D02*
X150934819Y-127825119D01*
X150934819Y-127825119D02*
X150887200Y-127682262D01*
X150887200Y-127682262D02*
X150791961Y-127587024D01*
X150791961Y-127587024D02*
X150696723Y-127539405D01*
X150696723Y-127539405D02*
X150506247Y-127491786D01*
X150506247Y-127491786D02*
X150363390Y-127491786D01*
X150363390Y-127491786D02*
X150172914Y-127539405D01*
X150172914Y-127539405D02*
X150077676Y-127587024D01*
X150077676Y-127587024D02*
X149982438Y-127682262D01*
X149982438Y-127682262D02*
X149934819Y-127825119D01*
X149934819Y-127825119D02*
X149934819Y-127920357D01*
X149934819Y-127920357D02*
X149982438Y-128063214D01*
X149982438Y-128063214D02*
X150030057Y-128110833D01*
X149934819Y-128444167D02*
X149934819Y-129110833D01*
X149934819Y-129110833D02*
X150934819Y-128682262D01*
X151276666Y-149307080D02*
X151324285Y-149354700D01*
X151324285Y-149354700D02*
X151467142Y-149402319D01*
X151467142Y-149402319D02*
X151562380Y-149402319D01*
X151562380Y-149402319D02*
X151705237Y-149354700D01*
X151705237Y-149354700D02*
X151800475Y-149259461D01*
X151800475Y-149259461D02*
X151848094Y-149164223D01*
X151848094Y-149164223D02*
X151895713Y-148973747D01*
X151895713Y-148973747D02*
X151895713Y-148830890D01*
X151895713Y-148830890D02*
X151848094Y-148640414D01*
X151848094Y-148640414D02*
X151800475Y-148545176D01*
X151800475Y-148545176D02*
X151705237Y-148449938D01*
X151705237Y-148449938D02*
X151562380Y-148402319D01*
X151562380Y-148402319D02*
X151467142Y-148402319D01*
X151467142Y-148402319D02*
X151324285Y-148449938D01*
X151324285Y-148449938D02*
X151276666Y-148497557D01*
X150324285Y-149402319D02*
X150895713Y-149402319D01*
X150609999Y-149402319D02*
X150609999Y-148402319D01*
X150609999Y-148402319D02*
X150705237Y-148545176D01*
X150705237Y-148545176D02*
X150800475Y-148640414D01*
X150800475Y-148640414D02*
X150895713Y-148688033D01*
D11*
%TO.C,R9*%
X147280000Y-219230436D02*
X147280000Y-220684564D01*
X149100000Y-219230436D02*
X149100000Y-220684564D01*
%TO.C,R13*%
X159880000Y-217534564D02*
X159880000Y-216080436D01*
X161700000Y-217534564D02*
X161700000Y-216080436D01*
%TO.C,C23*%
X94103748Y-179052500D02*
X94626252Y-179052500D01*
X94103748Y-180522500D02*
X94626252Y-180522500D01*
%TO.C,C4*%
X151725000Y-160718752D02*
X151725000Y-160196248D01*
X153195000Y-160718752D02*
X153195000Y-160196248D01*
%TO.C,R10*%
X144980000Y-217584564D02*
X144980000Y-216130436D01*
X146800000Y-217584564D02*
X146800000Y-216130436D01*
%TO.C,C24*%
X77638748Y-195272500D02*
X78161252Y-195272500D01*
X77638748Y-196742500D02*
X78161252Y-196742500D01*
%TO.C,C18*%
X85553748Y-207302500D02*
X86076252Y-207302500D01*
X85553748Y-208772500D02*
X86076252Y-208772500D01*
%TO.C,C9*%
X146421252Y-112842500D02*
X145898748Y-112842500D01*
X146421252Y-114312500D02*
X145898748Y-114312500D01*
%TO.C,R16*%
X175180000Y-217784564D02*
X175180000Y-216330436D01*
X177000000Y-217784564D02*
X177000000Y-216330436D01*
%TO.C,R12*%
X162180000Y-219230436D02*
X162180000Y-220684564D01*
X164000000Y-219230436D02*
X164000000Y-220684564D01*
%TO.C,C8*%
X152898748Y-112822500D02*
X153421252Y-112822500D01*
X152898748Y-114292500D02*
X153421252Y-114292500D01*
%TO.C,R7*%
X132380000Y-219230436D02*
X132380000Y-220684564D01*
X134200000Y-219230436D02*
X134200000Y-220684564D01*
%TO.C,R15*%
X177480000Y-219430436D02*
X177480000Y-220884564D01*
X179300000Y-219430436D02*
X179300000Y-220884564D01*
%TO.C,C21*%
X90353748Y-207327500D02*
X90876252Y-207327500D01*
X90353748Y-208797500D02*
X90876252Y-208797500D01*
%TO.C,C6*%
X146421252Y-127442500D02*
X145898748Y-127442500D01*
X146421252Y-128912500D02*
X145898748Y-128912500D01*
%TO.C,C5*%
X146775000Y-160718752D02*
X146775000Y-160196248D01*
X148245000Y-160718752D02*
X148245000Y-160196248D01*
%TO.C,C20*%
X78755000Y-208451248D02*
X78755000Y-208973752D01*
X80225000Y-208451248D02*
X80225000Y-208973752D01*
%TO.C,R6*%
X130080000Y-217584564D02*
X130080000Y-216130436D01*
X131900000Y-217584564D02*
X131900000Y-216130436D01*
%TO.C,C22*%
X88828748Y-186657500D02*
X89351252Y-186657500D01*
X88828748Y-188127500D02*
X89351252Y-188127500D01*
%TO.C,C2*%
X152675000Y-146186248D02*
X152675000Y-146708752D01*
X154145000Y-146186248D02*
X154145000Y-146708752D01*
%TO.C,R23*%
X193175000Y-64680436D02*
X193175000Y-65134564D01*
X194645000Y-64680436D02*
X194645000Y-65134564D01*
%TO.C,C7*%
X151425000Y-128016248D02*
X151425000Y-128538752D01*
X152895000Y-128016248D02*
X152895000Y-128538752D01*
%TO.C,C1*%
X150375000Y-146758752D02*
X150375000Y-146236248D01*
X151845000Y-146758752D02*
X151845000Y-146236248D01*
%TD*%
M02*
