%TF.GenerationSoftware,KiCad,Pcbnew,9.0.4*%
%TF.CreationDate,2026-06-06T14:19:33-03:00*%
%TF.ProjectId,av3,6176332e-6b69-4636-9164-5f7063625858,rev?*%
%TF.SameCoordinates,Original*%
%TF.FileFunction,Profile,NP*%
%FSLAX46Y46*%
G04 Gerber Fmt 4.6, Leading zero omitted, Abs format (unit mm)*
G04 Created by KiCad (PCBNEW 9.0.4) date 2026-06-06 14:19:33*
%MOMM*%
%LPD*%
G01*
G04 APERTURE LIST*
%TA.AperFunction,Profile*%
%ADD10C,0.200000*%
%TD*%
G04 APERTURE END LIST*
D10*
X216586373Y-154257500D02*
X208761373Y-154257500D01*
X208761373Y-158457500D01*
X216586373Y-158457500D01*
X216586373Y-160607500D01*
X207586373Y-160607500D01*
X207586373Y-152282500D01*
X216586373Y-152282500D01*
X216586373Y-154257500D01*
%TA.AperFunction,Profile*%
G36*
X216586373Y-154257500D02*
G01*
X208761373Y-154257500D01*
X208761373Y-158457500D01*
X216586373Y-158457500D01*
X216586373Y-160607500D01*
X207586373Y-160607500D01*
X207586373Y-152282500D01*
X216586373Y-152282500D01*
X216586373Y-154257500D01*
G37*
%TD.AperFunction*%
X62230000Y-56447500D02*
X242230000Y-56447500D01*
X242230000Y-236447500D01*
X62230000Y-236447500D01*
X62230000Y-56447500D01*
X216586373Y-121257500D02*
X208811373Y-121257500D01*
X208811373Y-125457500D01*
X216586373Y-125457500D01*
X216586373Y-127507500D01*
X207586373Y-127507500D01*
X207586373Y-119282500D01*
X216586373Y-119282500D01*
X216586373Y-121257500D01*
%TA.AperFunction,Profile*%
G36*
X216586373Y-121257500D02*
G01*
X208811373Y-121257500D01*
X208811373Y-125457500D01*
X216586373Y-125457500D01*
X216586373Y-127507500D01*
X207586373Y-127507500D01*
X207586373Y-119282500D01*
X216586373Y-119282500D01*
X216586373Y-121257500D01*
G37*
%TD.AperFunction*%
X216586373Y-137757500D02*
X208786373Y-137757500D01*
X208786373Y-141957500D01*
X216586373Y-141957500D01*
X216586373Y-144107500D01*
X207586373Y-144107500D01*
X207586373Y-135782500D01*
X216586373Y-135782500D01*
X216586373Y-137757500D01*
%TA.AperFunction,Profile*%
G36*
X216586373Y-137757500D02*
G01*
X208786373Y-137757500D01*
X208786373Y-141957500D01*
X216586373Y-141957500D01*
X216586373Y-144107500D01*
X207586373Y-144107500D01*
X207586373Y-135782500D01*
X216586373Y-135782500D01*
X216586373Y-137757500D01*
G37*
%TD.AperFunction*%
X126960000Y-207307500D02*
X185260000Y-207307500D01*
X185260000Y-211682500D01*
X126960000Y-211682500D01*
X126960000Y-207307500D01*
X75710000Y-181157500D02*
X107710000Y-181157500D01*
X107710000Y-185977500D01*
X75710000Y-185977500D01*
X75710000Y-181157500D01*
X216586373Y-170457500D02*
X208811373Y-170457500D01*
X208811373Y-174657500D01*
X216586373Y-174657500D01*
X216586373Y-176832500D01*
X207586373Y-176832500D01*
X207586373Y-168507500D01*
X216586373Y-168507500D01*
X216586373Y-170457500D01*
%TA.AperFunction,Profile*%
G36*
X216586373Y-170457500D02*
G01*
X208811373Y-170457500D01*
X208811373Y-174657500D01*
X216586373Y-174657500D01*
X216586373Y-176832500D01*
X207586373Y-176832500D01*
X207586373Y-168507500D01*
X216586373Y-168507500D01*
X216586373Y-170457500D01*
G37*
%TD.AperFunction*%
M02*
