%TF.GenerationSoftware,KiCad,Pcbnew,9.0.4*%
%TF.CreationDate,2026-06-06T14:19:33-03:00*%
%TF.ProjectId,av3,6176332e-6b69-4636-9164-5f7063625858,rev?*%
%TF.SameCoordinates,Original*%
%TF.FileFunction,Soldermask,Top*%
%TF.FilePolarity,Negative*%
%FSLAX46Y46*%
G04 Gerber Fmt 4.6, Leading zero omitted, Abs format (unit mm)*
G04 Created by KiCad (PCBNEW 9.0.4) date 2026-06-06 14:19:33*
%MOMM*%
%LPD*%
G01*
G04 APERTURE LIST*
G04 Aperture macros list*
%AMRoundRect*
0 Rectangle with rounded corners*
0 $1 Rounding radius*
0 $2 $3 $4 $5 $6 $7 $8 $9 X,Y pos of 4 corners*
0 Add a 4 corners polygon primitive as box body*
4,1,4,$2,$3,$4,$5,$6,$7,$8,$9,$2,$3,0*
0 Add four circle primitives for the rounded corners*
1,1,$1+$1,$2,$3*
1,1,$1+$1,$4,$5*
1,1,$1+$1,$6,$7*
1,1,$1+$1,$8,$9*
0 Add four rect primitives between the rounded corners*
20,1,$1+$1,$2,$3,$4,$5,0*
20,1,$1+$1,$4,$5,$6,$7,0*
20,1,$1+$1,$6,$7,$8,$9,0*
20,1,$1+$1,$8,$9,$2,$3,0*%
G04 Aperture macros list end*
%ADD10RoundRect,0.250000X-0.625000X0.400000X-0.625000X-0.400000X0.625000X-0.400000X0.625000X0.400000X0*%
%ADD11C,1.600000*%
%ADD12RoundRect,0.250000X0.550000X-0.550000X0.550000X0.550000X-0.550000X0.550000X-0.550000X-0.550000X0*%
%ADD13RoundRect,0.250000X-0.550000X0.550000X-0.550000X-0.550000X0.550000X-0.550000X0.550000X0.550000X0*%
%ADD14RoundRect,0.250000X-0.250000X1.150000X-0.250000X-1.150000X0.250000X-1.150000X0.250000X1.150000X0*%
%ADD15RoundRect,0.250000X-0.262500X-0.450000X0.262500X-0.450000X0.262500X0.450000X-0.262500X0.450000X0*%
%ADD16C,3.000000*%
%ADD17C,2.500000*%
%ADD18RoundRect,0.250000X-1.050000X-1.050000X1.050000X-1.050000X1.050000X1.050000X-1.050000X1.050000X0*%
%ADD19C,2.600000*%
%ADD20C,1.500000*%
%ADD21R,1.700000X1.700000*%
%ADD22C,1.700000*%
%ADD23RoundRect,0.250000X-0.450000X0.262500X-0.450000X-0.262500X0.450000X-0.262500X0.450000X0.262500X0*%
%ADD24RoundRect,0.250000X0.600000X0.600000X-0.600000X0.600000X-0.600000X-0.600000X0.600000X-0.600000X0*%
%ADD25R,1.800000X1.800000*%
%ADD26C,1.800000*%
%ADD27RoundRect,0.250000X0.550000X0.550000X-0.550000X0.550000X-0.550000X-0.550000X0.550000X-0.550000X0*%
%ADD28R,1.050000X1.500000*%
%ADD29O,1.050000X1.500000*%
%ADD30C,1.440000*%
%ADD31RoundRect,0.250000X0.250000X0.475000X-0.250000X0.475000X-0.250000X-0.475000X0.250000X-0.475000X0*%
%ADD32RoundRect,0.250000X-0.475000X0.250000X-0.475000X-0.250000X0.475000X-0.250000X0.475000X0.250000X0*%
%ADD33RoundRect,0.250000X0.475000X-0.250000X0.475000X0.250000X-0.475000X0.250000X-0.475000X-0.250000X0*%
%ADD34RoundRect,0.075000X-0.662500X-0.075000X0.662500X-0.075000X0.662500X0.075000X-0.662500X0.075000X0*%
%ADD35RoundRect,0.075000X-0.075000X-0.662500X0.075000X-0.662500X0.075000X0.662500X-0.075000X0.662500X0*%
%ADD36RoundRect,0.250000X1.050000X-1.050000X1.050000X1.050000X-1.050000X1.050000X-1.050000X-1.050000X0*%
%ADD37C,6.500000*%
%ADD38R,1.500000X3.000000*%
%ADD39O,1.500000X3.000000*%
%ADD40R,2.000000X2.000000*%
%ADD41C,4.000000*%
%ADD42R,1.600000X1.600000*%
%ADD43RoundRect,0.250000X-0.600000X0.600000X-0.600000X-0.600000X0.600000X-0.600000X0.600000X0.600000X0*%
%ADD44RoundRect,0.250000X-1.150000X-0.250000X1.150000X-0.250000X1.150000X0.250000X-1.150000X0.250000X0*%
%ADD45R,2.000000X1.500000*%
%ADD46O,2.000000X1.500000*%
%ADD47RoundRect,0.250000X-1.050000X1.050000X-1.050000X-1.050000X1.050000X-1.050000X1.050000X1.050000X0*%
%ADD48RoundRect,0.250000X-0.250000X-0.475000X0.250000X-0.475000X0.250000X0.475000X-0.250000X0.475000X0*%
%ADD49RoundRect,0.250000X-0.550000X-0.550000X0.550000X-0.550000X0.550000X0.550000X-0.550000X0.550000X0*%
%ADD50RoundRect,0.250000X0.262500X0.450000X-0.262500X0.450000X-0.262500X-0.450000X0.262500X-0.450000X0*%
G04 APERTURE END LIST*
D10*
%TO.C,R14*%
X164990000Y-195857500D03*
X164990000Y-198957500D03*
%TD*%
D11*
%TO.C,R21*%
X159820000Y-105277500D03*
X152200000Y-105277500D03*
%TD*%
D12*
%TO.C,U8*%
X97880000Y-187417500D03*
D11*
X100420000Y-187417500D03*
X102960000Y-187417500D03*
X105500000Y-187417500D03*
X105500000Y-179797500D03*
X102960000Y-179797500D03*
X100420000Y-179797500D03*
X97880000Y-179797500D03*
%TD*%
D13*
%TO.C,D1*%
X205660000Y-166957500D03*
D11*
X205660000Y-174577500D03*
%TD*%
%TO.C,R4*%
X192960000Y-142367500D03*
X200580000Y-142367500D03*
%TD*%
D14*
%TO.C,SW15*%
X81960000Y-117057500D03*
X81960000Y-122857500D03*
X77960000Y-117057500D03*
X77960000Y-122857500D03*
%TD*%
D15*
%TO.C,R24*%
X98587500Y-189717500D03*
X100412500Y-189717500D03*
%TD*%
D11*
%TO.C,R5*%
X192540000Y-127257500D03*
X200160000Y-127257500D03*
%TD*%
%TO.C,R3*%
X192940000Y-158467500D03*
X200560000Y-158467500D03*
%TD*%
D16*
%TO.C,K3*%
X210910000Y-139807500D03*
D17*
X212860000Y-145857500D03*
D16*
X225060000Y-145857500D03*
X225110000Y-133807500D03*
D17*
X212860000Y-133857500D03*
%TD*%
D10*
%TO.C,R17*%
X180690000Y-196057500D03*
X180690000Y-199157500D03*
%TD*%
D18*
%TO.C,J7*%
X160790000Y-230830000D03*
D19*
X165790000Y-230830000D03*
%TD*%
D14*
%TO.C,SW8*%
X90360000Y-98457500D03*
X90360000Y-104257500D03*
X86360000Y-98457500D03*
X86360000Y-104257500D03*
%TD*%
D10*
%TO.C,R11*%
X150090000Y-195757500D03*
X150090000Y-198857500D03*
%TD*%
D20*
%TO.C,Y1*%
X147460000Y-158257500D03*
X152460000Y-158257500D03*
%TD*%
D21*
%TO.C,J14*%
X136205000Y-117202500D03*
D22*
X136205000Y-119742500D03*
X136205000Y-122282500D03*
%TD*%
D11*
%TO.C,R19*%
X163445000Y-127602500D03*
X155825000Y-127602500D03*
%TD*%
D13*
%TO.C,D4*%
X205860000Y-118657500D03*
D11*
X205860000Y-126277500D03*
%TD*%
D23*
%TO.C,R1*%
X133160000Y-147445000D03*
X133160000Y-149270000D03*
%TD*%
D24*
%TO.C,J15*%
X172450000Y-119477500D03*
D22*
X169910000Y-119477500D03*
X172450000Y-116937500D03*
X169910000Y-116937500D03*
X172450000Y-114397500D03*
X169910000Y-114397500D03*
X172450000Y-111857500D03*
X169910000Y-111857500D03*
%TD*%
D25*
%TO.C,D7*%
X152360000Y-221507500D03*
D26*
X149820000Y-221507500D03*
%TD*%
D27*
%TO.C,C15*%
X105260000Y-81557500D03*
D11*
X102760000Y-81557500D03*
%TD*%
D28*
%TO.C,Q2*%
X205630000Y-162107500D03*
D29*
X204360000Y-162107500D03*
X203090000Y-162107500D03*
%TD*%
D21*
%TO.C,J13*%
X132505000Y-117202500D03*
D22*
X132505000Y-119742500D03*
X132505000Y-122282500D03*
%TD*%
D14*
%TO.C,SW7*%
X81960000Y-98457500D03*
X81960000Y-104257500D03*
X77960000Y-98457500D03*
X77960000Y-104257500D03*
%TD*%
D13*
%TO.C,D6*%
X130990000Y-195837500D03*
D11*
X130990000Y-203457500D03*
%TD*%
D30*
%TO.C,RV2*%
X121225000Y-107032500D03*
X121225000Y-109572500D03*
X121225000Y-112112500D03*
%TD*%
%TO.C,RV4*%
X135405000Y-107002500D03*
X135405000Y-109542500D03*
X135405000Y-112082500D03*
%TD*%
D25*
%TO.C,D11*%
X182560000Y-221657500D03*
D26*
X180020000Y-221657500D03*
%TD*%
D31*
%TO.C,C11*%
X149610000Y-105077500D03*
X147710000Y-105077500D03*
%TD*%
D32*
%TO.C,C13*%
X100180000Y-79597500D03*
X100180000Y-81497500D03*
%TD*%
D30*
%TO.C,RV5*%
X115160000Y-61157500D03*
X115160000Y-63697500D03*
X115160000Y-66237500D03*
%TD*%
D33*
%TO.C,C17*%
X111315000Y-186977500D03*
X111315000Y-185077500D03*
%TD*%
D34*
%TO.C,U1*%
X144567500Y-140447500D03*
X144567500Y-140947500D03*
X144567500Y-141447500D03*
X144567500Y-141947500D03*
X144567500Y-142447500D03*
X144567500Y-142947500D03*
X144567500Y-143447500D03*
X144567500Y-143947500D03*
X144567500Y-144447500D03*
X144567500Y-144947500D03*
X144567500Y-145447500D03*
X144567500Y-145947500D03*
X144567500Y-146447500D03*
X144567500Y-146947500D03*
X144567500Y-147447500D03*
X144567500Y-147947500D03*
X144567500Y-148447500D03*
X144567500Y-148947500D03*
X144567500Y-149447500D03*
X144567500Y-149947500D03*
X144567500Y-150447500D03*
X144567500Y-150947500D03*
X144567500Y-151447500D03*
X144567500Y-151947500D03*
X144567500Y-152447500D03*
D35*
X146230000Y-154110000D03*
X146730000Y-154110000D03*
X147230000Y-154110000D03*
X147730000Y-154110000D03*
X148230000Y-154110000D03*
X148730000Y-154110000D03*
X149230000Y-154110000D03*
X149730000Y-154110000D03*
X150230000Y-154110000D03*
X150730000Y-154110000D03*
X151230000Y-154110000D03*
X151730000Y-154110000D03*
X152230000Y-154110000D03*
X152730000Y-154110000D03*
X153230000Y-154110000D03*
X153730000Y-154110000D03*
X154230000Y-154110000D03*
X154730000Y-154110000D03*
X155230000Y-154110000D03*
X155730000Y-154110000D03*
X156230000Y-154110000D03*
X156730000Y-154110000D03*
X157230000Y-154110000D03*
X157730000Y-154110000D03*
X158230000Y-154110000D03*
D34*
X159892500Y-152447500D03*
X159892500Y-151947500D03*
X159892500Y-151447500D03*
X159892500Y-150947500D03*
X159892500Y-150447500D03*
X159892500Y-149947500D03*
X159892500Y-149447500D03*
X159892500Y-148947500D03*
X159892500Y-148447500D03*
X159892500Y-147947500D03*
X159892500Y-147447500D03*
X159892500Y-146947500D03*
X159892500Y-146447500D03*
X159892500Y-145947500D03*
X159892500Y-145447500D03*
X159892500Y-144947500D03*
X159892500Y-144447500D03*
X159892500Y-143947500D03*
X159892500Y-143447500D03*
X159892500Y-142947500D03*
X159892500Y-142447500D03*
X159892500Y-141947500D03*
X159892500Y-141447500D03*
X159892500Y-140947500D03*
X159892500Y-140447500D03*
D35*
X158230000Y-138785000D03*
X157730000Y-138785000D03*
X157230000Y-138785000D03*
X156730000Y-138785000D03*
X156230000Y-138785000D03*
X155730000Y-138785000D03*
X155230000Y-138785000D03*
X154730000Y-138785000D03*
X154230000Y-138785000D03*
X153730000Y-138785000D03*
X153230000Y-138785000D03*
X152730000Y-138785000D03*
X152230000Y-138785000D03*
X151730000Y-138785000D03*
X151230000Y-138785000D03*
X150730000Y-138785000D03*
X150230000Y-138785000D03*
X149730000Y-138785000D03*
X149230000Y-138785000D03*
X148730000Y-138785000D03*
X148230000Y-138785000D03*
X147730000Y-138785000D03*
X147230000Y-138785000D03*
X146730000Y-138785000D03*
X146230000Y-138785000D03*
%TD*%
D13*
%TO.C,D10*%
X160790000Y-195837500D03*
D11*
X160790000Y-203457500D03*
%TD*%
D36*
%TO.C,J2*%
X236660000Y-161157500D03*
D19*
X236660000Y-156157500D03*
X236660000Y-151157500D03*
%TD*%
D30*
%TO.C,RV3*%
X128405000Y-107032500D03*
X128405000Y-109572500D03*
X128405000Y-112112500D03*
%TD*%
D32*
%TO.C,C3*%
X135360000Y-147407500D03*
X135360000Y-149307500D03*
%TD*%
D18*
%TO.C,J5*%
X130990000Y-230857500D03*
D19*
X135990000Y-230857500D03*
%TD*%
D21*
%TO.C,J12*%
X128825000Y-117212500D03*
D22*
X128825000Y-119752500D03*
X128825000Y-122292500D03*
%TD*%
D36*
%TO.C,J1*%
X236660000Y-177557500D03*
D19*
X236660000Y-172557500D03*
X236660000Y-167557500D03*
%TD*%
D37*
%TO.C,U10*%
X121960000Y-62400000D03*
X121960000Y-99400000D03*
X236960000Y-62400000D03*
X236960000Y-99400000D03*
D38*
X196460000Y-61400000D03*
D39*
X199000000Y-61400000D03*
X201540000Y-61400000D03*
X204080000Y-61400000D03*
X206620000Y-61400000D03*
X209160000Y-61400000D03*
X211700000Y-61400000D03*
X214240000Y-61400000D03*
X216780000Y-61400000D03*
X219320000Y-61400000D03*
X221860000Y-61400000D03*
X224400000Y-61400000D03*
X226940000Y-61400000D03*
X229480000Y-61400000D03*
X193920000Y-61400000D03*
X191380000Y-61400000D03*
D40*
X120960000Y-75400000D03*
X120960000Y-86400000D03*
X120960000Y-79400000D03*
X120960000Y-90400000D03*
%TD*%
D14*
%TO.C,SW4*%
X90360000Y-89157500D03*
X90360000Y-94957500D03*
X86360000Y-89157500D03*
X86360000Y-94957500D03*
%TD*%
D36*
%TO.C,J4*%
X236660000Y-128257500D03*
D19*
X236660000Y-123257500D03*
X236660000Y-118257500D03*
%TD*%
D10*
%TO.C,R8*%
X135290000Y-195807500D03*
X135290000Y-198907500D03*
%TD*%
D16*
%TO.C,K2*%
X210910000Y-156307500D03*
D17*
X212860000Y-162357500D03*
D16*
X225060000Y-162357500D03*
X225110000Y-150307500D03*
D17*
X212860000Y-150357500D03*
%TD*%
D41*
%TO.C,J11*%
X82810000Y-218057500D03*
X107810000Y-218057500D03*
D42*
X89770000Y-216637500D03*
D11*
X92540000Y-216637500D03*
X95310000Y-216637500D03*
X98080000Y-216637500D03*
X100850000Y-216637500D03*
X91155000Y-219477500D03*
X93925000Y-219477500D03*
X96695000Y-219477500D03*
X99465000Y-219477500D03*
%TD*%
D14*
%TO.C,SW5*%
X98760000Y-89157500D03*
X98760000Y-94957500D03*
X94760000Y-89157500D03*
X94760000Y-94957500D03*
%TD*%
D12*
%TO.C,U4*%
X160750000Y-213262500D03*
D11*
X163290000Y-213262500D03*
X165830000Y-213262500D03*
X165830000Y-205642500D03*
X163290000Y-205642500D03*
X160750000Y-205642500D03*
%TD*%
D13*
%TO.C,D2*%
X205760000Y-151157500D03*
D11*
X205760000Y-158777500D03*
%TD*%
D14*
%TO.C,SW14*%
X73560000Y-117057500D03*
X73560000Y-122857500D03*
X69560000Y-117057500D03*
X69560000Y-122857500D03*
%TD*%
D43*
%TO.C,J9*%
X134640000Y-158957500D03*
D22*
X134640000Y-161497500D03*
X132100000Y-158957500D03*
X132100000Y-161497500D03*
X129560000Y-158957500D03*
X129560000Y-161497500D03*
X127020000Y-158957500D03*
X127020000Y-161497500D03*
X124480000Y-158957500D03*
X124480000Y-161497500D03*
%TD*%
D21*
%TO.C,J10*%
X125115000Y-117212500D03*
D22*
X125115000Y-119752500D03*
X125115000Y-122292500D03*
%TD*%
D15*
%TO.C,R26*%
X81877500Y-189462500D03*
X83702500Y-189462500D03*
%TD*%
D44*
%TO.C,SW1*%
X124460000Y-146457500D03*
X130260000Y-146457500D03*
X124460000Y-150457500D03*
X130260000Y-150457500D03*
%TD*%
D45*
%TO.C,PS1*%
X113672500Y-179350000D03*
D46*
X113672500Y-181890000D03*
X113672500Y-184430000D03*
X113672500Y-186970000D03*
%TD*%
D14*
%TO.C,SW9*%
X98760000Y-98457500D03*
X98760000Y-104257500D03*
X94760000Y-98457500D03*
X94760000Y-104257500D03*
%TD*%
D32*
%TO.C,C12*%
X100080000Y-59647500D03*
X100080000Y-61547500D03*
%TD*%
D12*
%TO.C,U5*%
X176090000Y-213477500D03*
D11*
X178630000Y-213477500D03*
X181170000Y-213477500D03*
X181170000Y-205857500D03*
X178630000Y-205857500D03*
X176090000Y-205857500D03*
%TD*%
%TO.C,R2*%
X192660000Y-174267500D03*
X200280000Y-174267500D03*
%TD*%
D30*
%TO.C,RV1*%
X113210000Y-107027500D03*
X113210000Y-109567500D03*
X113210000Y-112107500D03*
%TD*%
D13*
%TO.C,D3*%
X205860000Y-135157500D03*
D11*
X205860000Y-142777500D03*
%TD*%
D16*
%TO.C,K4*%
X210910000Y-123307500D03*
D17*
X212860000Y-129357500D03*
D16*
X225060000Y-129357500D03*
X225110000Y-117307500D03*
D17*
X212860000Y-117357500D03*
%TD*%
D33*
%TO.C,C16*%
X111295000Y-181907500D03*
X111295000Y-180007500D03*
%TD*%
D47*
%TO.C,J16*%
X102730000Y-65517500D03*
D19*
X102730000Y-70597500D03*
X102730000Y-75677500D03*
%TD*%
D14*
%TO.C,SW11*%
X81960000Y-107757500D03*
X81960000Y-113557500D03*
X77960000Y-107757500D03*
X77960000Y-113557500D03*
%TD*%
D15*
%TO.C,R25*%
X101125000Y-177667500D03*
X102950000Y-177667500D03*
%TD*%
D28*
%TO.C,Q4*%
X205630000Y-129607500D03*
D29*
X204360000Y-129607500D03*
X203090000Y-129607500D03*
%TD*%
D11*
%TO.C,R20*%
X159800000Y-109687500D03*
X152180000Y-109687500D03*
%TD*%
%TO.C,R18*%
X154710000Y-131967500D03*
X147090000Y-131967500D03*
%TD*%
D28*
%TO.C,Q3*%
X205660000Y-146007500D03*
D29*
X204390000Y-146007500D03*
X203120000Y-146007500D03*
%TD*%
D14*
%TO.C,SW12*%
X90360000Y-107757500D03*
X90360000Y-113557500D03*
X86360000Y-107757500D03*
X86360000Y-113557500D03*
%TD*%
D25*
%TO.C,D9*%
X167260000Y-221557500D03*
D26*
X164720000Y-221557500D03*
%TD*%
D36*
%TO.C,J3*%
X236660000Y-144757500D03*
D19*
X236660000Y-139757500D03*
X236660000Y-134757500D03*
%TD*%
D18*
%TO.C,J6*%
X145890000Y-230830000D03*
D19*
X150890000Y-230830000D03*
%TD*%
D12*
%TO.C,U9*%
X76960000Y-205812500D03*
D11*
X79500000Y-205812500D03*
X82040000Y-205812500D03*
X84580000Y-205812500D03*
X87120000Y-205812500D03*
X89660000Y-205812500D03*
X92200000Y-205812500D03*
X94740000Y-205812500D03*
X94740000Y-198192500D03*
X92200000Y-198192500D03*
X89660000Y-198192500D03*
X87120000Y-198192500D03*
X84580000Y-198192500D03*
X82040000Y-198192500D03*
X79500000Y-198192500D03*
X76960000Y-198192500D03*
%TD*%
D12*
%TO.C,U6*%
X142010000Y-124787500D03*
D11*
X144550000Y-124787500D03*
X147090000Y-124787500D03*
X149630000Y-124787500D03*
X152170000Y-124787500D03*
X154710000Y-124787500D03*
X157250000Y-124787500D03*
X157250000Y-117167500D03*
X154710000Y-117167500D03*
X152170000Y-117167500D03*
X149630000Y-117167500D03*
X147090000Y-117167500D03*
X144550000Y-117167500D03*
X142010000Y-117167500D03*
%TD*%
D14*
%TO.C,SW17*%
X98760000Y-117057500D03*
X98760000Y-122857500D03*
X94760000Y-117057500D03*
X94760000Y-122857500D03*
%TD*%
%TO.C,SW10*%
X73560000Y-107757500D03*
X73560000Y-113557500D03*
X69560000Y-107757500D03*
X69560000Y-113557500D03*
%TD*%
%TO.C,SW2*%
X73560000Y-89157500D03*
X73560000Y-94957500D03*
X69560000Y-89157500D03*
X69560000Y-94957500D03*
%TD*%
D12*
%TO.C,U2*%
X130950000Y-213262500D03*
D11*
X133490000Y-213262500D03*
X136030000Y-213262500D03*
X136030000Y-205642500D03*
X133490000Y-205642500D03*
X130950000Y-205642500D03*
%TD*%
D12*
%TO.C,U3*%
X145890000Y-213312500D03*
D11*
X148430000Y-213312500D03*
X150970000Y-213312500D03*
X150970000Y-205692500D03*
X148430000Y-205692500D03*
X145890000Y-205692500D03*
%TD*%
D16*
%TO.C,K1*%
X210960000Y-172557500D03*
D17*
X212910000Y-178607500D03*
D16*
X225110000Y-178607500D03*
X225160000Y-166557500D03*
D17*
X212910000Y-166607500D03*
%TD*%
D25*
%TO.C,D5*%
X137430000Y-221507500D03*
D26*
X134890000Y-221507500D03*
%TD*%
D18*
%TO.C,J8*%
X176090000Y-230957500D03*
D19*
X181090000Y-230957500D03*
%TD*%
D48*
%TO.C,C19*%
X78590000Y-209862500D03*
X80490000Y-209862500D03*
%TD*%
D49*
%TO.C,C14*%
X102724887Y-59667500D03*
D11*
X105224887Y-59667500D03*
%TD*%
D32*
%TO.C,C10*%
X149610000Y-126777500D03*
X149610000Y-128677500D03*
%TD*%
D14*
%TO.C,SW13*%
X98760000Y-107757500D03*
X98760000Y-113557500D03*
X94760000Y-107757500D03*
X94760000Y-113557500D03*
%TD*%
%TO.C,SW6*%
X73560000Y-98457500D03*
X73560000Y-104257500D03*
X69560000Y-98457500D03*
X69560000Y-104257500D03*
%TD*%
D13*
%TO.C,D12*%
X176090000Y-196037500D03*
D11*
X176090000Y-203657500D03*
%TD*%
D14*
%TO.C,SW16*%
X90360000Y-117057500D03*
X90360000Y-122857500D03*
X86360000Y-117057500D03*
X86360000Y-122857500D03*
%TD*%
D28*
%TO.C,Q1*%
X205430000Y-177867500D03*
D29*
X204160000Y-177867500D03*
X202890000Y-177867500D03*
%TD*%
D13*
%TO.C,D8*%
X145890000Y-195807500D03*
D11*
X145890000Y-203427500D03*
%TD*%
D14*
%TO.C,SW3*%
X81960000Y-89157500D03*
X81960000Y-94957500D03*
X77960000Y-89157500D03*
X77960000Y-94957500D03*
%TD*%
D13*
%TO.C,U7*%
X85660000Y-179742500D03*
D11*
X83120000Y-179742500D03*
X80580000Y-179742500D03*
X78040000Y-179742500D03*
X78040000Y-187362500D03*
X80580000Y-187362500D03*
X83120000Y-187362500D03*
X85660000Y-187362500D03*
%TD*%
D50*
%TO.C,R22*%
X85002500Y-177612500D03*
X83177500Y-177612500D03*
%TD*%
M02*
